<?xml version="1.0" encoding="utf-8"?>
<svg xmlns="http://www.w3.org/2000/svg" version="1.2" viewBox="0 0 2510.802 511.806">
	<title>Children’s Song</title>
	<desc>“Follow My Leader”</desc>
	<path class="StaffLines" d="M336.598 634.198 2847.4 634.198M336.598 658.998 2847.4 658.998M336.598 683.798 2847.4 683.798M336.598 708.598 2847.4 708.598M336.598 733.398 2847.4 733.398M336.598 906.998 2847.4 906.998M336.598 931.798 2847.4 931.798M336.598 956.598 2847.4 956.598M336.598 981.398 2847.4 981.398M336.598 1006.2 2847.4 1006.2" fill="none" stroke="#000" stroke-linejoin="bevel" stroke-width="2.73" transform="translate(-336.598 -584.594)"/>
	<path class="BarLine" d="M1649.04 905.634 1649.04 1007.56M2845.17 632.834 2845.17 734.762M2326.39 632.834 2326.39 734.762M1030.57 905.634 1030.57 1007.56M1727.25 632.834 1727.25 734.762M1128.12 632.834 1128.12 734.762M2267.5 905.634 2267.5 1007.56" fill="none" stroke="#000" stroke-linejoin="bevel" stroke-width="4.46" transform="translate(-336.598 -584.594)"/>
	<path class="BarLine" d="M2474.355 359.604c0-2.883-2.294-5.2545-5.1615-5.2545-2.883 0-5.1615 2.3715-5.1615 5.2545 0 2.883 2.2785 5.2545 5.1615 5.2545 2.8675 0 5.1615-2.3715 5.1615-5.2545M2474.355 384.404c0-2.883-2.294-5.2545-5.1615-5.2545-2.883 0-5.1615 2.3715-5.1615 5.2545 0 2.883 2.2785 5.2545 5.1615 5.2545 2.8675 0 5.1615-2.3715 5.1615-5.2545" style="stroke-width:.992"/>
	<path class="BarLine" d="M2822.35 905.634 2822.35 1007.56" fill="none" stroke="#000" stroke-linejoin="bevel" stroke-width="4.46" transform="translate(-336.598 -584.594)"/>
	<path class="BarLine" d="M2840.58 905.634 2840.58 1007.56" fill="none" stroke="#000" stroke-linejoin="bevel" stroke-width="13.64" transform="translate(-336.598 -584.594)"/>
	<path class="Stem" d="M2033.76 717.03 2033.76 637.915M1792.72 704.63 1792.72 634.217M2332.97 977.43 2332.97 894.797M1096.03 952.63 1096.03 882.29M810.001 965.03 810.001 900.829M2194.45 729.43 2194.45 640.379M560.674 977.43 560.674 906.968M2391.85 704.63 2391.85 621.997M1262.25 977.43 1262.25 894.507M1354.28 692.23 1354.28 596.951M2130.05 1014.63 2130.05 913.18M1193.59 667.43 1193.59 590.846M594.456 655.03 594.456 590.817M1714.5 977.43 1714.5 907.017M835.497 667.43 835.497 594.515M996.19 692.23 996.19 596.979M1963.83 977.43 1963.83 910.715" fill="none" stroke="#000" stroke-linejoin="bevel" stroke-width="2.48" transform="translate(-336.598 -584.594)"/>
	<path class="Note" d="M1762.452 438.1755c0 4.2625 3.069 9.02102 11.1135 9.02102 10.3075 0 21.1265-8.43202 21.1265-17.15852 0-5.859-4.96-9.12948-11.1135-9.12948-9.6255 0-21.1265 8.13748-21.1265 17.26698M728.442 376.1735c0 4.2625 3.069 9.02102 11.11348 9.02102 10.30757 0 21.12652-8.43202 21.12652-17.15852 0-5.859-4.96-9.12948-11.11348-9.12948-9.62547 0-21.12652 8.13748-21.12652 17.26698M1596.242 400.9735c0 4.2625 3.069 9.02102 11.1135 9.02102 10.3075 0 21.1265-8.43202 21.1265-17.15852 0-5.859-4.96-9.12948-11.1135-9.12948-9.6255 0-21.1265 8.13748-21.1265 17.26698M1965.382 400.9735c0 4.2625 3.069 9.02102 11.1135 9.02102 10.3075 0 21.1265-8.43202 21.1265-17.15852 0-5.859-4.96-9.12948-11.1135-9.12948-9.6255 0-21.1265 8.13748-21.1265 17.26698M1346.912 400.9735c0 4.2625 3.069 9.02102 11.1135 9.02102 10.3075 0 21.1265-8.43202 21.1265-17.15852 0-5.859-4.96-9.12948-11.1135-9.12948-9.6255 0-21.1265 8.13748-21.1265 17.26698M193.084 400.9735c0 4.2625 3.069 9.02102 11.11348 9.02102 10.30757 0 21.12652-8.43202 21.12652-17.15852 0-5.859-4.96-9.12948-11.11348-9.12948-9.62547 0-21.12652 8.13748-21.12652 17.26698M442.411 388.5735c0 4.2625 3.069 9.02102 11.11348 9.02102 10.30757 0 21.12652-8.43202 21.12652-17.15852 0-5.859-4.96-9.12948-11.11348-9.12948-9.62547 0-21.12652 8.13748-21.12652 17.26698M2024.262 128.1735c0 4.2625 3.069 9.02102 11.1135 9.02102 10.3075 0 21.1265-8.43202 21.1265-17.15852 0-5.859-4.96-9.12948-11.1135-9.12948-9.6255 0-21.1265 8.13748-21.1265 17.26698M894.662 400.9735c0 4.2625 3.069 9.02102 11.11348 9.02102 10.30757 0 21.12652-8.43202 21.12652-17.15852 0-5.859-4.96-9.12948-11.11348-9.12948-9.62547 0-21.12652 8.13748-21.12652 17.26698M628.6 115.7735c0 4.2625 3.069 9.02102 11.11348 9.02102 10.30757 0 21.12652-8.43202 21.12652-17.15852 0-5.859-4.96-9.129475-11.11348-9.129475-9.62547 0-21.12652 8.137475-21.12652 17.266975M986.692 115.7735c0 4.2625 3.069 9.02102 11.11348 9.02102 10.30752 0 21.12652-8.43202 21.12652-17.15852 0-5.859-4.96-9.129475-11.1135-9.129475-9.62545 0-21.1265 8.137475-21.1265 17.266975M1425.132 128.1735c0 4.2625 3.069 9.02102 11.1135 9.02102 10.3075 0 21.1265-8.43202 21.1265-17.15852 0-5.859-4.96-9.12948-11.1135-9.12948-9.6255 0-21.1265 8.13748-21.1265 17.26698M226.866 78.573505c0 4.262495 3.069 9.02102 11.11348 9.02102 10.30757 0 21.12652-8.43202 21.12652-17.158525 0-5.859-4.96-9.129475-11.11348-9.129475-9.62547 0-21.12652 8.137475-21.12652 17.26698M1666.172 140.5735c0 4.2625 3.069 9.02102 11.1135 9.02102 10.3075 0 21.1265-8.43202 21.1265-17.15852 0-5.859-4.96-9.12948-11.1135-9.12948-9.6255 0-21.1265 8.13748-21.1265 17.26698M826.002 90.973505c0 4.262495 3.069 9.02102 11.11348 9.02102 10.30757 0 21.12652-8.43202 21.12652-17.158525 0-5.859-4.96-9.129475-11.11348-9.129475-9.62547 0-21.12652 8.137475-21.12652 17.26698M1826.862 152.9735c0 4.2625 3.069 9.02102 11.1135 9.02102 10.3075 0 21.1265-8.43202 21.1265-17.15852 0-5.859-4.96-9.12948-11.1135-9.12948-9.6255 0-21.1265 8.13748-21.1265 17.26698M467.906 90.973505c0 4.262495 3.069 9.02102 11.11348 9.02102 10.30757 0 21.12652-8.43202 21.12652-17.158525 0-5.859-4.96-9.129475-11.11348-9.129475-9.62547 0-21.12652 8.137475-21.12652 17.26698" style="stroke-width:.992"/>
	<path class="Clef" d="M30.798525 447.69052c0 6.55653 4.96 15.19 18.352 15.19 4.665475 0 8.742-1.19347 12.30695-3.37904C66.820525 455.73505 68.2 449.17852 68.2 442.932c0-3.85948-.58895-8.32348-1.58095-13.98095-.294525-1.984-.89905-4.96-1.488-8.83505 9.718425-3.17748 16.95695-13.29895 16.95695-23.5135 0-14.97302-10.617475-25.0945-25.094525-25.0945-.992-5.952-1.984-11.81105-2.774425-17.36 10.416-11.02052 17.654425-23.42052 17.654425-39.184 0-9.03652-2.774425-16.368-4.37095-19.94813-2.371475-5.05325-5.254525-8.52525-7.03705-8.52525-.697475 0-3.766425 1.19338-7.03695 5.05325-6.35505 7.54813-8.137475 20.24265-8.137475 28.56613 0 5.36295.496 10.23 2.185475 21.34348-.108525.093-5.27 5.34747-7.34705 7.03704C31.09305 356.82948 18.6 368.91948 18.6 388.775c0 18.53805 16.166525 33.12352 34.62705 33.12352 2.867475 0 5.54895-.29452 7.827475-.69747 1.89095 9.53243 3.084525 16.47643 3.084525 21.73095 0 10.32305-5.36305 15.77905-15.376 15.77905-2.38705 0-4.464-.496-4.665575-.496-.09295-.10853-.294425-.20157-.294425-.29453 0-.20147.201475-.31.496-.31 4.665475-.79052 9.315475-4.75852 9.315475-11.098 0-5.36304-4.06105-11.02052-11.50105-11.02052-6.944 0-11.31495 5.65748-11.31495 12.19852m20.73895-132.432c.89905-3.968 5.456-14.384 10.617575-14.384 1.488 0 3.859475 4.75843 3.859475 11.70243 0 10.32305-7.626 18.05757-14.47705 24.8-.58895-3.968-1.08495-7.82747-1.08495-11.99695 0-3.67348.294525-7.05252 1.08495-10.12148M60.264 417.23305c-1.984.40295-3.859475.60443-5.750525.60443-14.182425 0-26.28797-9.92-26.28797-24.90848 0-12.09005 8.52502-22.909 17.26702-30.45752 1.674-1.488 3.270525-2.86748 4.758525-4.35548.883475 5.34748 1.58095 10.01295 2.278425 14.08948C43.49305 374.88695 37.35505 384.404 37.35505 393.735c0 6.944 5.456 16.461 13.392 16.461.790425 0 1.689475-.40295 1.689475-1.28652 0-.89896-.992-1.39496-2.185475-2.18548-3.87505-2.387-6.060525-4.96-6.060525-9.827 0-6.045 4.572525-10.91205 10.32295-12.29152L60.264 417.23305M74.353475 398.881c0 7.0525-2.88295 14.291-9.92 17.17405-2.07695-11.90405-4.758425-27.68305-5.456-32.0541 8.928 0 15.376 6.06055 15.376 14.88005M30.798525 174.89052c0 6.55653 4.96 15.19 18.352 15.19 4.665475 0 8.742-1.19347 12.30695-3.37904C66.820525 182.93505 68.2 176.37852 68.2 170.132c0-3.85948-.58895-8.32348-1.58095-13.98095-.294525-1.984-.89905-4.96-1.488-8.83505 9.718425-3.17748 16.95695-13.29895 16.95695-23.5135 0-14.97302-10.617475-25.0945-25.094525-25.0945-.992-5.952-1.984-11.81105-2.774425-17.36 10.416-11.020525 17.654425-23.420525 17.654425-39.184 0-9.036525-2.774425-16.368-4.37095-19.948128-2.371475-5.053248-5.254525-8.525248-7.03705-8.525248-.697475 0-3.766425 1.193376-7.03695 5.053248C47.073475 26.292 45.29105 38.986525 45.29105 47.31c0 5.36295.496 10.23 2.185475 21.343475-.108525.09305-5.27 5.347475-7.34705 7.03705C31.09305 84.029475 18.6 96.119475 18.6 115.975c0 18.53805 16.166525 33.12352 34.62705 33.12352 2.867475 0 5.54895-.29452 7.827475-.69747 1.89095 9.53243 3.084525 16.47643 3.084525 21.73095 0 10.32305-5.36305 15.77905-15.376 15.77905-2.38705 0-4.464-.496-4.665575-.496-.09295-.10853-.294425-.20157-.294425-.29453 0-.20147.201475-.31.496-.31 4.665475-.79052 9.315475-4.75852 9.315475-11.098 0-5.36304-4.06105-11.02052-11.50105-11.02052-6.944 0-11.31495 5.65748-11.31495 12.19852M51.537475 42.458525c.89905-3.968 5.456-14.384 10.617575-14.384 1.488 0 3.859475 4.758425 3.859475 11.702425 0 10.32305-7.626 18.057575-14.47705 24.8-.58895-3.968-1.08495-7.827475-1.08495-11.99695 0-3.673475.294525-7.052525 1.08495-10.121475M60.264 144.43305c-1.984.40295-3.859475.60443-5.750525.60443-14.182425 0-26.28797-9.92-26.28797-24.90848 0-12.09005 8.52502-22.909 17.26702-30.457525 1.674-1.488 3.270525-2.867475 4.758525-4.355475.883475 5.347475 1.58095 10.01295 2.278425 14.089475C43.49305 102.08695 37.35505 111.604 37.35505 120.935c0 6.944 5.456 16.461 13.392 16.461.790425 0 1.689475-.40295 1.689475-1.28652 0-.89896-.992-1.39496-2.185475-2.18548-3.87505-2.387-6.060525-4.96-6.060525-9.827 0-6.045 4.572525-10.91205 10.32295-12.29152L60.264 144.43305M74.353475 126.081c0 7.0525-2.88295 14.291-9.92 17.17405-2.07695-11.90405-4.758425-27.68305-5.456-32.0541 8.928 0 15.376 6.06055 15.376 14.88005" style="stroke-width:.992"/>
	<path class="KeySig" d="M129.99152 311.988c.60453-.0931 1.10053-.79052 1.10053-1.39505v-5.84347c0-.992-.69757-1.39496-1.59653-1.39496L126.225 304.052v-14.78705h-2.77452v15.376l-8.83498 1.798V292.44252H111.841V307.028l-3.875.79052c-.589.10843-1.085.79043-1.085 1.39496v5.75052c0 1.085.7905 1.395 1.6895 1.395l3.2705-.6975v16.368l-3.875.7905c-.589.0931-1.085.79052-1.085 1.39505v5.75043c0 1.08504.7905 1.37957 1.6895 1.37957l3.2705-.682v14.77147h2.7745v-15.376l8.83498-1.78252v13.99652h2.77452v-14.58547l3.76652-.69757c.60453-.10843 1.10053-.79043 1.10053-1.39496V329.751c0-.992-.69757-1.395-1.59653-1.395l-3.27052.6975v-16.368l3.76652-.6975m-15.37602 3.069 8.83498-1.7825v16.368l-8.83498 1.891V315.057M129.99152 39.188c.60453-.09305 1.10053-.790525 1.10053-1.39505v-5.843475c0-.992-.69757-1.39495-1.59653-1.39495L126.225 31.252V16.46495h-2.77452v15.376l-8.83498 1.798V19.642525H111.841V34.228l-3.875.790525c-.589.108425-1.085.790425-1.085 1.39495V42.164c0 1.085.7905 1.395 1.6895 1.395l3.2705-.697505v16.36801L107.966 60.02c-.589.09305-1.085.790525-1.085 1.39505v5.750425c0 1.08505.7905 1.379575 1.6895 1.379575l3.2705-.682v14.771475h2.7745v-15.376L123.45048 65.476V79.472525H126.225V64.88705l3.76652-.697575c.60453-.108425 1.10053-.790425 1.10053-1.39495V56.951c0-.992-.69757-1.395-1.59653-1.395L126.225 56.253505V39.885495L129.99152 39.188m-15.37602 3.069 8.83498-1.782505v16.36801l-8.83498 1.891V42.257" style="stroke-width:.992"/>
	<path class="TimeSig" d="M189.12348 78.775c-.79043 2.17-2.77443 9.315525-7.64148 9.315525-6.448 0-7.84295-3.96802-13.19052-3.96802-.79043 0-1.59643.108495-2.58843.294495 0 0 2.48-3.766495 13.00443-7.037 10.50904-3.2705 13.19052-8.432 13.19052-14.384 0-4.169475-1.87548-12.4-16.864-12.4-14.973 0-17.763 9.02095-17.763 13.593475 0 4.06102 3.379 7.331525 7.44 7.331525 4.07648 0 7.347-3.270505 7.347-7.331525 0-2.774525-1.984-5.85895-4.55695-6.85095-.31-.09305-.69757-.58905-.69757-1.08505 0-.604525.496-1.286525 2.27852-1.782525.496-.201475 1.89105-.496 3.37905-.496 5.642 0 6.74243 3.472 6.74243 8.52505 0 11.6095-13.79496 14.089505-19.54548 22.72305 0 0-2.976 4.154-2.976 8.819475 0 4.665475 2.387 4.96 3.565 4.96 1.5965 0 3.286-1.286525 3.286-3.06905 0-.40295-.1085-.790425-.31-1.286425-.589-1.39505-.7905-2.48-.7905-3.286 0-.294525 0-.58905.1085-.883575.093-.604425.8835-1.596425 3.27048-1.596425 2.86757 0 3.968 3.37895 5.75052 5.952 1.78252 2.588425 4.55705 4.169475 7.73452 4.169475 3.17748 0 7.44-2.278525 9.238-5.952 1.78253-3.673475 4.06096-11.113525 4.06096-13.779525 0-1.302-.79043-1.891-1.68948-1.891-.69748 0-1.37948.403-1.78252 1.395M186.55105 121.9735c3.27043-2.48 5.54895-5.6575 5.54895-9.6255 0-7.14548-7.82748-12.98905-17.45295-12.98905-9.62557 0-17.46855 5.84357-17.46855 12.98905 0 3.968.992 7.533 5.6575 10.509-4.464 2.5885-6.944 6.262-6.944 11.02048 0 8.02904 8.432 14.47704 18.75505 14.47704 10.30747 0 18.73947-6.448 18.73947-14.47704 0-4.75848-1.674-9.22248-6.83547-11.90398m-5.56453-2.6815c-6.74252-2.1855-14.18252-5.456-14.18252-9.92 0-3.87505 3.56505-5.456 7.84305-5.456 6.15347 0 10.30747 2.88295 10.30747 7.44 0 4.7585-2.17 7.037-3.968 7.936m-6.33947 23.51348c-6.35505 0-11.81105-3.472-11.81105-9.03643 0-6.63405 5.16148-8.23055 5.16148-8.23055 6.74252 2.2785 16.368 5.6575 16.368 11.1135 0 2.68148-3.37896 6.15348-9.71843 6.15348" style="stroke-width:.992"/>
	<path class="Rest" d="M2241.1915 351.86948c-.093 0-.2945-.10853-.403-.10853-.589 0-1.085.31-1.2865.806-2.2785 4.55705-7.037 10.71055-12.4 11.70255 1.085-1.2865 1.7825-2.88298 1.7825-4.75855 0-3.87495-3.1775-7.05243-7.037-7.05243-3.968 0-7.1455 3.17748-7.1455 7.05243 0 5.34755 5.2545 7.82755 9.92 7.82755 5.2545 0 8.7265-2.48 12.1055-6.15355l-11.315 35.32453 2.6815.79052 13.888-43.74105c.1085-.10843.1085-.31.1085-.496 0-.496-.31-.89895-.899-1.19347M2291.7915 79.069475c-.093 0-.2945-.108525-.403-.108525-.589 0-1.085.31-1.2865.806-2.2785 4.55705-7.037 10.710545-12.4 11.702545 1.085-1.286495 1.7825-2.88297 1.7825-4.758545 0-3.87495-3.1775-7.052425-7.037-7.052425-3.968 0-7.1455 3.177475-7.1455 7.052425 0 5.347545 5.2545 7.827545 9.92 7.827545 5.2545 0 8.7265-2.48 12.1055-6.153545l-11.315 35.32453 2.6815.79052 13.888-43.74105c.1085-.108425.1085-.31.1085-.496 0-.496-.31-.89895-.899-1.193475M1173.8715 79.069475c-.093 0-.2945-.108525-.403-.108525-.589 0-1.085.31-1.2865.806-2.2785 4.55705-7.037 10.710545-12.4 11.702545 1.085-1.286495 1.7825-2.88297 1.7825-4.758545 0-3.87495-3.1775-7.052425-7.037-7.052425-3.968 0-7.1455 3.177475-7.1455 7.052425 0 5.347545 5.2545 7.827545 9.92 7.827545 5.2545 0 8.7265-2.48 12.1055-6.153545l-11.315 35.32453 2.6815.79052 13.888-43.74105c.1085-.108425.1085-.31.1085-.496 0-.496-.31-.89895-.899-1.193475M1087.3715 351.86948c-.093 0-.2945-.10853-.403-.10853-.589 0-1.085.31-1.2865.806-2.2785 4.55705-7.037 10.71055-12.4 11.70255 1.085-1.2865 1.7825-2.88298 1.7825-4.75855 0-3.87495-3.1775-7.05243-7.037-7.05243-3.968 0-7.1455 3.17748-7.1455 7.05243 0 5.34755 5.2545 7.82755 9.92 7.82755 5.2545 0 8.7265-2.48 12.1055-6.15355l-11.315 35.32453 2.6815.79052 13.888-43.74105c.1085-.10843.1085-.31.1085-.496 0-.496-.31-.89895-.899-1.19347" style="stroke-width:.992"/>
	<path class="Beam" d="m1454.882 43.404 404.21 6.2v12.401l-404.21-6.2V43.404M1695.922 65.701l163.17 2.503v12.401l-163.17-2.503V65.701M855.752 0l163.17 6.2v12.409l-163.17-6.2V0M855.752 18.6l163.17 6.2v12.409l-163.17-6.2V18.6M1376.662 316.204l418.03 6.2v12.401l-418.03-6.2v-12.401M1625.992 338.502l168.7 2.502v12.401l-168.7-2.502v-12.401M256.618.004l404.214 6.2v12.401l-404.214-6.2V.004M497.659 22.301l163.173 2.503V37.205L497.659 34.702V22.301M758.192 291.388l168.7 12.4v12.433l-168.7-12.4v-12.433M758.192 309.988l168.7 12.4v12.433l-168.7-12.4v-12.433M222.836 316.203l251.807-6.2v12.403l-251.807 6.2v-12.403" fill-rule="evenodd"/>
	<path class="Hook" d="M1995.132 332.52548c0 .29452.093.88357.7905 1.08504 4.2625 1.39496 12.803 6.758 19.251 17.76296 1.7825 3.06904 4.6655 7.34704 4.6655 15.57757 0 7.14547-1.798 14.47695-4.464 21.62243-.2015.60452-.31 1.10052-.31 1.488 0 .69757.403.992 1.1005.992.589 0 1.085-.38748 1.488-1.08496 4.464-7.936 6.1535-17.174 6.1535-26.19504-.496-12.80296-7.843-22.22696-7.843-22.22696.2945 0-9.1295-12.19852-11.811-16.368-3.658-5.65752-5.3475-11.29952-5.549-11.70252-.093-.2945-.992-3.875-.992-3.875-.093-.3875-.589-.7905-1.1935-.7905-.6975 0-1.2865.6045-1.2865 1.2865v22.42848M2054.012 59.725475c0 .294525.093.883575.7905 1.08505 4.2625 1.39495 12.803 6.758 19.251 17.76295 1.7825 3.06905 4.6655 7.34705 4.6655 15.577575 0 7.14547-1.798 14.47695-4.464 21.62243-.2015.60452-.31 1.10052-.31 1.488 0 .69757.403.992 1.1005.992.589 0 1.085-.38748 1.488-1.08496 4.464-7.936 6.1535-17.173995 6.1535-26.195045-.496-12.80295-7.843-22.22695-7.843-22.22695.2945 0-9.1295-12.198525-11.811-16.368C2059.375 46.721 2057.6855 41.079 2057.484 40.676c-.093-.294495-.992-3.875-.992-3.875-.093-.3875-.589-.790505-1.1935-.790505-.6975 0-1.2865.604505-1.2865 1.286505v22.428475" style="stroke-width:.992"/>
	<path class="Lyrics" d="M213.389 186.033h5.39l10.313 15.281 10.234-15.281h5.406l-13.14 19.468v17.703h-5.063v-17.703l-13.14-19.468m40.062 12.5c-2.458 0-4.401.958-5.828 2.875-1.427 1.916-2.141 4.541-2.141 7.875 0 3.333.711 5.96 2.133 7.882 1.422 1.922 3.367 2.883 5.836 2.883 2.448 0 4.385-.963 5.813-2.89 1.427-1.928 2.14-4.553 2.14-7.875 0-3.303-.713-5.92-2.14-7.852-1.428-1.932-3.365-2.898-5.813-2.898m0-3.891c3.99 0 7.12 1.294 9.391 3.883 2.271 2.588 3.406 6.174 3.406 10.758 0 4.562-1.135 8.143-3.406 10.742-2.271 2.599-5.401 3.898-9.391 3.898-4 0-7.133-1.299-9.398-3.898-2.266-2.599-3.399-6.18-3.399-10.742 0-4.584 1.133-8.17 3.399-10.758 2.265-2.589 5.398-3.883 9.398-3.883M1608.842 484.366v16.83h-4.58v-16.69c0-2.63-.52-4.61-1.54-5.92-1.03-1.31-2.57-1.97-4.63-1.97-2.48 0-4.44.79-5.86 2.37-1.43 1.58-2.14 3.73-2.14 6.44v15.77h-4.61v-38.75h4.61v15.19c1.09-1.68 2.38-2.93 3.87-3.76 1.49-.83 3.2-1.24 5.14-1.24 3.21 0 5.63.99 7.27 2.97 1.65 1.99 2.47 4.91 2.47 8.76m21.81 2.81c-3.71 0-6.28.43-7.7 1.27-1.43.84-2.15 2.29-2.15 4.33 0 1.62.54 2.92 1.61 3.87 1.08.96 2.54 1.44 4.38 1.44 2.54 0 4.58-.9 6.11-2.7 1.53-1.8 2.3-4.2 2.3-7.19v-1.02h-4.55m9.14-1.89v15.91h-4.59v-4.23c-1.05 1.69-2.35 2.94-3.91 3.75-1.56.8-3.47 1.2-5.72 1.2-2.85 0-5.12-.8-6.81-2.4-1.69-1.6-2.53-3.75-2.53-6.44 0-3.14 1.05-5.5 3.14-7.1 2.1-1.59 5.24-2.39 9.4-2.39h6.43v-.44c0-2.11-.7-3.74-2.08-4.89-1.39-1.16-3.33-1.73-5.83-1.73-1.59 0-3.15.19-4.66.57-1.51.38-2.96.95-4.36 1.71v-4.23c1.68-.65 3.31-1.13 4.89-1.46 1.57-.32 3.11-.48 4.6-.48 4.03 0 7.04 1.04 9.04 3.14 1.99 2.09 2.99 5.26 2.99 9.51M1778.682 476.526c-2.46 0-4.4.96-5.83 2.87-1.43 1.92-2.14 4.55-2.14 7.88 0 3.33.71 5.96 2.13 7.88 1.43 1.92 3.37 2.88 5.84 2.88 2.45 0 4.38-.96 5.81-2.89 1.43-1.92 2.14-4.55 2.14-7.87 0-3.3-.71-5.92-2.14-7.85-1.43-1.94-3.36-2.9-5.81-2.9m0-3.89c3.99 0 7.12 1.29 9.39 3.88 2.27 2.59 3.41 6.18 3.41 10.76 0 4.56-1.14 8.14-3.41 10.74-2.27 2.6-5.4 3.9-9.39 3.9-4 0-7.13-1.3-9.4-3.9-2.26-2.6-3.4-6.18-3.4-10.74 0-4.58 1.14-8.17 3.4-10.76 2.27-2.59 5.4-3.88 9.4-3.88M2036.862 206.376v16.828h-4.58v-16.687c0-2.635-.51-4.609-1.54-5.922-1.03-1.312-2.57-1.969-4.63-1.969-2.48 0-4.43.789-5.86 2.367-1.43 1.579-2.14 3.727-2.14 6.446v15.765h-4.61v-38.75h4.61v15.188c1.09-1.677 2.38-2.93 3.87-3.758 1.49-.828 3.21-1.242 5.14-1.242 3.21 0 5.64.992 7.28 2.976 1.64 1.985 2.46 4.904 2.46 8.758m21.81 2.813c-3.71 0-6.28.422-7.7 1.265-1.43.844-2.14 2.287-2.14 4.329 0 1.625.53 2.916 1.61 3.875 1.07.958 2.53 1.437 4.37 1.437 2.54 0 4.58-.901 6.11-2.703 1.53-1.802 2.3-4.198 2.3-7.188v-1.015h-4.55m9.14-1.891v15.906h-4.59v-4.234c-1.04 1.698-2.35 2.948-3.91 3.75-1.56.802-3.47 1.203-5.72 1.203-2.85 0-5.12-.799-6.81-2.398-1.69-1.599-2.53-3.748-2.53-6.446 0-3.135 1.05-5.5 3.15-7.093 2.1-1.594 5.23-2.391 9.4-2.391h6.42v-.437c0-2.115-.7-3.748-2.08-4.899-1.39-1.151-3.33-1.726-5.83-1.726-1.59 0-3.14.19-4.66.57-1.51.38-2.96.95-4.35 1.711v-4.235c1.67-.645 3.3-1.13 4.88-1.453 1.58-.323 3.11-.484 4.6-.484 4.03 0 7.04 1.047 9.04 3.141 1.99 2.093 2.99 5.265 2.99 9.515M1977.702 484.366v16.83h-4.58v-16.69c0-2.63-.52-4.61-1.54-5.92-1.03-1.31-2.57-1.97-4.63-1.97-2.48 0-4.44.79-5.86 2.37-1.43 1.58-2.14 3.73-2.14 6.44v15.77h-4.61v-38.75h4.61v15.19c1.09-1.68 2.38-2.93 3.87-3.76 1.49-.83 3.2-1.24 5.14-1.24 3.21 0 5.63.99 7.27 2.97 1.64 1.99 2.47 4.91 2.47 8.76m21.81 2.81c-3.71 0-6.28.43-7.71 1.27-1.42.84-2.14 2.29-2.14 4.33 0 1.62.54 2.92 1.61 3.87 1.08.96 2.53 1.44 4.38 1.44 2.54 0 4.58-.9 6.11-2.7 1.53-1.8 2.29-4.2 2.29-7.19v-1.02h-4.54m9.14-1.89v15.91h-4.6v-4.23c-1.04 1.69-2.34 2.94-3.9 3.75-1.56.8-3.47 1.2-5.72 1.2-2.85 0-5.13-.8-6.81-2.4-1.69-1.6-2.53-3.75-2.53-6.44 0-3.14 1.05-5.5 3.14-7.1 2.1-1.59 5.24-2.39 9.4-2.39h6.42v-.44c0-2.11-.69-3.74-2.07-4.89-1.39-1.16-3.33-1.73-5.83-1.73-1.6 0-3.15.19-4.66.57-1.51.38-2.96.95-4.36 1.71v-4.23c1.68-.65 3.31-1.13 4.89-1.46 1.57-.32 3.11-.48 4.6-.48 4.03 0 7.04 1.04 9.04 3.14 1.99 2.09 2.99 5.26 2.99 9.51m10.08 9.58h5.25v6.33h-5.25v-6.33M1349.432 503.786c-1.29 3.33-2.55 5.49-3.78 6.5-1.23 1.01-2.88 1.52-4.94 1.52h-3.65v-3.83h2.68c1.26 0 2.24-.3 2.94-.9.7-.6 1.47-2.01 2.33-4.24l.81-2.09-11.28-27.44h4.86l8.72 21.81 8.72-21.81h4.84l-12.25 30.48m29.38-27.26c-2.46 0-4.41.96-5.83 2.87-1.43 1.92-2.14 4.55-2.14 7.88 0 3.33.71 5.96 2.13 7.88 1.42 1.92 3.37 2.88 5.84 2.88 2.44 0 4.38-.96 5.81-2.89 1.43-1.92 2.14-4.55 2.14-7.87 0-3.3-.71-5.92-2.14-7.85-1.43-1.94-3.37-2.9-5.81-2.9m0-3.89c3.99 0 7.12 1.29 9.39 3.88 2.27 2.59 3.4 6.18 3.4 10.76 0 4.56-1.13 8.14-3.4 10.74-2.27 2.6-5.4 3.9-9.39 3.9-4 0-7.14-1.3-9.4-3.9-2.27-2.6-3.4-6.18-3.4-10.74 0-4.58 1.13-8.17 3.4-10.76 2.26-2.59 5.4-3.88 9.4-3.88M491.891 206.376v16.828h-4.578v-16.687c0-2.635-.513-4.609-1.539-5.922-1.027-1.312-2.571-1.969-4.633-1.969-2.479 0-4.433.789-5.86 2.367-1.427 1.579-2.14 3.727-2.14 6.446v15.765h-4.61v-38.75h4.61v15.188c1.093-1.677 2.385-2.93 3.875-3.758 1.489-.828 3.203-1.242 5.14-1.242 3.209 0 5.633.992 7.274 2.976 1.64 1.985 2.461 4.904 2.461 8.758m21.812 2.813c-3.708 0-6.276.422-7.703 1.265-1.427.844-2.141 2.287-2.141 4.329 0 1.625.537 2.916 1.61 3.875 1.073.958 2.531 1.437 4.375 1.437 2.541 0 4.578-.901 6.109-2.703 1.531-1.802 2.297-4.198 2.297-7.188v-1.015h-4.547m9.141-1.891v15.906h-4.594v-4.234c-1.042 1.698-2.344 2.948-3.906 3.75-1.563.802-3.469 1.203-5.719 1.203-2.854 0-5.125-.799-6.812-2.398-1.688-1.599-2.532-3.748-2.532-6.446 0-3.135 1.05-5.5 3.149-7.093 2.099-1.594 5.232-2.391 9.398-2.391h6.422v-.437c0-2.115-.693-3.748-2.078-4.899-1.385-1.151-3.328-1.726-5.828-1.726-1.594 0-3.146.19-4.656.57-1.511.38-2.964.95-4.36 1.711v-4.235c1.677-.645 3.305-1.13 4.883-1.453 1.578-.323 3.112-.484 4.602-.484 4.031 0 7.044 1.047 9.039 3.141 1.994 2.093 2.992 5.265 2.992 9.515m21.031 18.5c-1.292 3.323-2.552 5.49-3.781 6.5-1.229 1.011-2.875 1.516-4.938 1.516H531.5v-3.828h2.688c1.26 0 2.239-.3 2.937-.899.698-.599 1.474-2.013 2.328-4.242l.813-2.094-11.282-27.437h4.86l8.719 21.812 8.718-21.812h4.844l-12.25 30.484M896.762 487.176c-3.71 0-6.28.43-7.7 1.27-1.43.84-2.14 2.29-2.14 4.33 0 1.62.53 2.92 1.6 3.87 1.08.96 2.54 1.44 4.38 1.44 2.54 0 4.58-.9 6.11-2.7 1.53-1.8 2.3-4.2 2.3-7.19v-1.02h-4.55m9.14-1.89v15.91h-4.59v-4.23c-1.05 1.69-2.35 2.94-3.91 3.75-1.56.8-3.47 1.2-5.72 1.2-2.85 0-5.12-.8-6.81-2.4-1.69-1.6-2.53-3.75-2.53-6.44 0-3.14 1.05-5.5 3.15-7.1 2.09-1.59 5.23-2.39 9.39-2.39h6.43v-.44c0-2.11-.7-3.74-2.08-4.89-1.39-1.16-3.33-1.73-5.83-1.73-1.59 0-3.15.19-4.66.57-1.51.38-2.96.95-4.36 1.71v-4.23c1.68-.65 3.31-1.13 4.89-1.46 1.58-.32 3.11-.48 4.6-.48 4.03 0 7.04 1.04 9.04 3.14 1.99 2.09 2.99 5.26 2.99 9.51m33.28.82v2.25h-21.06c.2 3.14 1.15 5.54 2.85 7.2 1.7 1.66 4.08 2.48 7.12 2.48 1.76 0 3.46-.21 5.11-.64 1.66-.44 3.29-1.08 4.92-1.95v4.33c-1.65.7-3.33 1.23-5.06 1.59-1.72.37-3.47.55-5.25.55-4.45 0-7.98-1.3-10.57-3.88-2.6-2.59-3.9-6.09-3.9-10.51 0-4.56 1.23-8.19 3.69-10.87 2.47-2.68 5.79-4.02 9.98-4.02 3.75 0 6.72 1.21 8.9 3.62 2.18 2.42 3.27 5.7 3.27 9.85m-4.58-1.35c-.03-2.51-.73-4.51-2.1-6-1.37-1.49-3.18-2.23-5.44-2.23-2.56 0-4.6.72-6.14 2.16-1.53 1.45-2.42 3.48-2.65 6.1l16.33-.03M828.522 225.798c-1.29 3.323-2.55 5.49-3.78 6.5-1.23 1.011-2.88 1.516-4.94 1.516h-3.66v-3.828h2.69c1.26 0 2.24-.3 2.94-.899.7-.599 1.47-2.013 2.33-4.242l.81-2.094-11.28-27.437h4.86l8.72 21.812 8.71-21.812h4.85l-12.25 30.484m29.37-27.265c-2.46 0-4.4.958-5.83 2.875-1.42 1.916-2.14 4.541-2.14 7.875 0 3.333.71 5.96 2.14 7.882 1.42 1.922 3.36 2.883 5.83 2.883 2.45 0 4.39-.963 5.82-2.89 1.42-1.928 2.14-4.553 2.14-7.875 0-3.303-.72-5.92-2.14-7.852-1.43-1.932-3.37-2.898-5.82-2.898m0-3.891c3.99 0 7.12 1.294 9.39 3.883 2.27 2.588 3.41 6.174 3.41 10.758 0 4.562-1.14 8.143-3.41 10.742-2.27 2.599-5.4 3.898-9.39 3.898-4 0-7.13-1.299-9.4-3.898-2.26-2.599-3.39-6.18-3.39-10.742 0-4.584 1.13-8.17 3.39-10.758 2.27-2.589 5.4-3.883 9.4-3.883M730.962 503.786c-1.29 3.33-2.55 5.49-3.78 6.5-1.23 1.01-2.87 1.52-4.94 1.52h-3.65v-3.83h2.69c1.26 0 2.23-.3 2.93-.9.7-.6 1.48-2.01 2.33-4.24l.81-2.09-11.28-27.44h4.86l8.72 21.81 8.72-21.81h4.84l-12.25 30.48m29.38-27.26c-2.46 0-4.4.96-5.83 2.87-1.43 1.92-2.14 4.55-2.14 7.88 0 3.33.71 5.96 2.13 7.88 1.42 1.92 3.37 2.88 5.84 2.88 2.45 0 4.38-.96 5.81-2.89 1.43-1.92 2.14-4.55 2.14-7.87 0-3.3-.71-5.92-2.14-7.85-1.43-1.94-3.36-2.9-5.81-2.9m0-3.89c3.99 0 7.12 1.29 9.39 3.88 2.27 2.59 3.4 6.18 3.4 10.76 0 4.56-1.13 8.14-3.4 10.74-2.27 2.6-5.4 3.9-9.39 3.9-4 0-7.13-1.3-9.4-3.9-2.27-2.6-3.4-6.18-3.4-10.74 0-4.58 1.13-8.17 3.4-10.76 2.27-2.59 5.4-3.88 9.4-3.88M988.792 209.189c-3.71 0-6.28.422-7.7 1.265-1.43.844-2.14 2.287-2.14 4.329 0 1.625.53 2.916 1.6 3.875 1.08.958 2.54 1.437 4.38 1.437 2.54 0 4.58-.901 6.11-2.703 1.53-1.802 2.3-4.198 2.3-7.188v-1.015h-4.55m9.14-1.891v15.906h-4.59v-4.234c-1.05 1.698-2.35 2.948-3.91 3.75-1.56.802-3.47 1.203-5.72 1.203-2.85 0-5.12-.799-6.81-2.398-1.69-1.599-2.53-3.748-2.53-6.446 0-3.135 1.05-5.5 3.15-7.093 2.09-1.594 5.23-2.391 9.39-2.391h6.43v-.437c0-2.115-.7-3.748-2.08-4.899-1.39-1.151-3.33-1.726-5.83-1.726-1.59 0-3.15.19-4.66.57-1.51.38-2.96.95-4.36 1.711v-4.235c1.68-.645 3.31-1.13 4.89-1.453 1.58-.323 3.11-.484 4.6-.484 4.03 0 7.04 1.047 9.04 3.141 1.99 2.093 2.99 5.265 2.99 9.515m33.28.813v2.25h-21.06c.2 3.146 1.15 5.547 2.85 7.203 1.7 1.656 4.08 2.484 7.12 2.484 1.76 0 3.46-.216 5.11-.648 1.66-.433 3.29-1.081 4.92-1.946v4.329c-1.65.697-3.33 1.229-5.06 1.593-1.72.365-3.47.547-5.25.547-4.45 0-7.98-1.294-10.57-3.883-2.6-2.588-3.9-6.091-3.9-10.507 0-4.563 1.23-8.185 3.69-10.868 2.47-2.682 5.79-4.023 9.98-4.023 3.75 0 6.72 1.208 8.9 3.625 2.18 2.417 3.27 5.698 3.27 9.844m-4.58-1.344c-.03-2.51-.73-4.51-2.1-6-1.37-1.49-3.18-2.234-5.44-2.234-2.56 0-4.6.721-6.14 2.164-1.53 1.442-2.42 3.476-2.65 6.101l16.33-.031M438.512 484.366v16.83h-4.578v-16.69c0-2.63-.513-4.61-1.539-5.92-1.027-1.31-2.571-1.97-4.633-1.97-2.479 0-4.433.79-5.86 2.37-1.427 1.58-2.14 3.73-2.14 6.44v15.77h-4.61v-38.75h4.61v15.19c1.093-1.68 2.385-2.93 3.875-3.76 1.489-.83 3.203-1.24 5.14-1.24 3.209 0 5.633.99 7.274 2.97 1.64 1.99 2.461 4.91 2.461 8.76m21.812 2.81c-3.708 0-6.276.43-7.703 1.27-1.427.84-2.141 2.29-2.141 4.33 0 1.62.537 2.92 1.61 3.87 1.073.96 2.531 1.44 4.375 1.44 2.541 0 4.578-.9 6.109-2.7 1.531-1.8 2.297-4.2 2.297-7.19v-1.02h-4.547m9.141-1.89v15.91h-4.594v-4.23c-1.042 1.69-2.344 2.94-3.906 3.75-1.563.8-3.469 1.2-5.719 1.2-2.854 0-5.125-.8-6.812-2.4-1.688-1.6-2.532-3.75-2.532-6.44 0-3.14 1.05-5.5 3.149-7.1 2.099-1.59 5.232-2.39 9.398-2.39h6.422v-.44c0-2.11-.693-3.74-2.078-4.89-1.385-1.16-3.328-1.73-5.828-1.73-1.594 0-3.146.19-4.656.57-1.511.38-2.964.95-4.36 1.71v-4.23c1.677-.65 3.305-1.13 4.883-1.46 1.578-.32 3.112-.48 4.602-.48 4.031 0 7.044 1.04 9.039 3.14 1.994 2.09 2.992 5.26 2.992 9.51m21.031 18.5c-1.292 3.33-2.552 5.49-3.781 6.5-1.229 1.01-2.875 1.52-4.938 1.52h-3.656v-3.83h2.688c1.26 0 2.239-.3 2.937-.9.698-.6 1.474-2.01 2.328-4.24l.813-2.09-11.282-27.44h4.86l8.719 21.81 8.718-21.81h4.844l-12.25 30.48M1437.732 206.376v16.828h-4.58v-16.687c0-2.635-.51-4.609-1.54-5.922-1.03-1.312-2.57-1.969-4.63-1.969-2.48 0-4.44.789-5.86 2.367-1.43 1.579-2.14 3.727-2.14 6.446v15.765h-4.61v-38.75h4.61v15.188c1.09-1.677 2.38-2.93 3.87-3.758 1.49-.828 3.2-1.242 5.14-1.242 3.21 0 5.64.992 7.28 2.976 1.64 1.985 2.46 4.904 2.46 8.758m21.81 2.813c-3.71 0-6.28.422-7.7 1.265-1.43.844-2.14 2.287-2.14 4.329 0 1.625.53 2.916 1.6 3.875 1.08.958 2.54 1.437 4.38 1.437 2.54 0 4.58-.901 6.11-2.703 1.53-1.802 2.3-4.198 2.3-7.188v-1.015h-4.55m9.14-1.891v15.906h-4.59v-4.234c-1.05 1.698-2.35 2.948-3.91 3.75-1.56.802-3.47 1.203-5.72 1.203-2.85 0-5.12-.799-6.81-2.398-1.69-1.599-2.53-3.748-2.53-6.446 0-3.135 1.05-5.5 3.15-7.093 2.09-1.594 5.23-2.391 9.39-2.391h6.43v-.437c0-2.115-.7-3.748-2.08-4.899-1.39-1.151-3.33-1.726-5.83-1.726-1.59 0-3.15.19-4.66.57-1.51.38-2.96.95-4.36 1.711v-4.235c1.68-.645 3.31-1.13 4.89-1.453 1.58-.323 3.11-.484 4.6-.484 4.03 0 7.04 1.047 9.04 3.141 1.99 2.093 2.99 5.265 2.99 9.515M180.606 464.026h5.391l10.312 15.28 10.235-15.28h5.406l-13.141 19.47v17.7h-5.062v-17.7l-13.141-19.47m41.703 23.15c-3.708 0-6.276.43-7.703 1.27-1.427.84-2.14 2.29-2.14 4.33 0 1.62.536 2.92 1.609 3.87 1.073.96 2.531 1.44 4.375 1.44 2.542 0 4.578-.9 6.109-2.7 1.532-1.8 2.297-4.2 2.297-7.19v-1.02h-4.547m9.141-1.89v15.91h-4.594v-4.23c-1.041 1.69-2.343 2.94-3.906 3.75-1.562.8-3.469 1.2-5.719 1.2-2.854 0-5.125-.8-6.812-2.4-1.688-1.6-2.531-3.75-2.531-6.44 0-3.14 1.049-5.5 3.148-7.1 2.099-1.59 5.232-2.39 9.398-2.39h6.422v-.44c0-2.11-.692-3.74-2.078-4.89-1.385-1.16-3.328-1.73-5.828-1.73-1.594 0-3.146.19-4.656.57-1.511.38-2.964.95-4.36 1.71v-4.23c1.678-.65 3.305-1.13 4.883-1.46 1.578-.32 3.112-.48 4.602-.48 4.031 0 7.044 1.04 9.039 3.14 1.995 2.09 2.992 5.26 2.992 9.51M1677.252 199.595c-.51-.302-1.07-.523-1.68-.664-.61-.141-1.28-.211-2.01-.211-2.59 0-4.58.844-5.96 2.531-1.39 1.688-2.08 4.11-2.08 7.266v14.687h-4.61v-27.89h4.61v4.328c.97-1.688 2.22-2.943 3.76-3.766 1.54-.823 3.42-1.234 5.63-1.234.31 0 .66.021 1.04.062.39.042.81.105 1.27.188l.03 4.703m17.47 9.594c-3.71 0-6.28.422-7.7 1.265-1.43.844-2.14 2.287-2.14 4.329 0 1.625.53 2.916 1.61 3.875 1.07.958 2.53 1.437 4.37 1.437 2.54 0 4.58-.901 6.11-2.703 1.53-1.802 2.3-4.198 2.3-7.188v-1.015h-4.55m9.14-1.891v15.906h-4.59v-4.234c-1.04 1.698-2.35 2.948-3.91 3.75-1.56.802-3.47 1.203-5.72 1.203-2.85 0-5.12-.799-6.81-2.398-1.69-1.599-2.53-3.748-2.53-6.446 0-3.135 1.05-5.5 3.15-7.093 2.1-1.594 5.23-2.391 9.4-2.391h6.42v-.437c0-2.115-.7-3.748-2.08-4.899-1.39-1.151-3.33-1.726-5.83-1.726-1.59 0-3.15.19-4.66.57-1.51.38-2.96.95-4.35 1.711v-4.235c1.67-.645 3.3-1.13 4.88-1.453 1.58-.323 3.11-.484 4.6-.484 4.03 0 7.04 1.047 9.04 3.141 1.99 2.093 2.99 5.265 2.99 9.515M1843.092 198.533c-2.46 0-4.41.958-5.83 2.875-1.43 1.916-2.14 4.541-2.14 7.875 0 3.333.71 5.96 2.13 7.882 1.42 1.922 3.37 2.883 5.84 2.883 2.44 0 4.38-.963 5.81-2.89 1.42-1.928 2.14-4.553 2.14-7.875 0-3.303-.72-5.92-2.14-7.852-1.43-1.932-3.37-2.898-5.81-2.898m0-3.891c3.98 0 7.12 1.294 9.39 3.883 2.27 2.588 3.4 6.174 3.4 10.758 0 4.562-1.13 8.143-3.4 10.742-2.27 2.599-5.41 3.898-9.39 3.898-4 0-7.14-1.299-9.4-3.898-2.27-2.599-3.4-6.18-3.4-10.742 0-4.584 1.13-8.17 3.4-10.758 2.26-2.589 5.4-3.883 9.4-3.883"/>
	<path class="LyricsLineSegment" d="M894.984 806.558 997.43 806.558" fill="none" stroke="#000" stroke-linejoin="bevel" stroke-width="2.48" transform="translate(-336.598 -584.594)"/>
</svg>
