<?xml version="1.0" encoding="UTF-8" standalone="no"?>
<svg
   width="2510.802"
   height="511.806"
   viewBox="0 0 2510.802 511.806"
   version="1.2"
   id="svg1181"
   sodipodi:docname="illustration-1.svg"
   inkscape:version="1.2.2 (b0a8486541, 2022-12-01)"
   xmlns:inkscape="http://www.inkscape.org/namespaces/inkscape"
   xmlns:sodipodi="http://sodipodi.sourceforge.net/DTD/sodipodi-0.dtd"
   xmlns="http://www.w3.org/2000/svg"
   xmlns:svg="http://www.w3.org/2000/svg">
  <defs
     id="defs1185" />
  <sodipodi:namedview
     id="namedview1183"
     pagecolor="#ffffff"
     bordercolor="#000000"
     borderopacity="0.25"
     inkscape:showpageshadow="2"
     inkscape:pageopacity="0.0"
     inkscape:pagecheckerboard="0"
     inkscape:deskcolor="#d1d1d1"
     showgrid="false"
     inkscape:zoom="0.5"
     inkscape:cx="1194"
     inkscape:cy="38"
     inkscape:window-width="1920"
     inkscape:window-height="939"
     inkscape:window-x="0"
     inkscape:window-y="32"
     inkscape:window-maximized="1"
     inkscape:current-layer="svg1181" />
  <title
     id="title977">illustration-1</title>
  <desc
     id="desc979">Generated by MuseScore 4.0.1</desc>
  <polyline
     class="StaffLines"
     fill="none"
     stroke="#000000"
     stroke-width="2.73"
     stroke-linejoin="bevel"
     points="336.598,634.198 2847.4,634.198"
     id="polyline983"
     transform="translate(-336.598,-584.594)" />
  <polyline
     class="StaffLines"
     fill="none"
     stroke="#000000"
     stroke-width="2.73"
     stroke-linejoin="bevel"
     points="336.598,658.998 2847.4,658.998"
     id="polyline985"
     transform="translate(-336.598,-584.594)" />
  <polyline
     class="StaffLines"
     fill="none"
     stroke="#000000"
     stroke-width="2.73"
     stroke-linejoin="bevel"
     points="336.598,683.798 2847.4,683.798"
     id="polyline987"
     transform="translate(-336.598,-584.594)" />
  <polyline
     class="StaffLines"
     fill="none"
     stroke="#000000"
     stroke-width="2.73"
     stroke-linejoin="bevel"
     points="336.598,708.598 2847.4,708.598"
     id="polyline989"
     transform="translate(-336.598,-584.594)" />
  <polyline
     class="StaffLines"
     fill="none"
     stroke="#000000"
     stroke-width="2.73"
     stroke-linejoin="bevel"
     points="336.598,733.398 2847.4,733.398"
     id="polyline991"
     transform="translate(-336.598,-584.594)" />
  <polyline
     class="StaffLines"
     fill="none"
     stroke="#000000"
     stroke-width="2.73"
     stroke-linejoin="bevel"
     points="336.598,906.998 2847.4,906.998"
     id="polyline993"
     transform="translate(-336.598,-584.594)" />
  <polyline
     class="StaffLines"
     fill="none"
     stroke="#000000"
     stroke-width="2.73"
     stroke-linejoin="bevel"
     points="336.598,931.798 2847.4,931.798"
     id="polyline995"
     transform="translate(-336.598,-584.594)" />
  <polyline
     class="StaffLines"
     fill="none"
     stroke="#000000"
     stroke-width="2.73"
     stroke-linejoin="bevel"
     points="336.598,956.598 2847.4,956.598"
     id="polyline997"
     transform="translate(-336.598,-584.594)" />
  <polyline
     class="StaffLines"
     fill="none"
     stroke="#000000"
     stroke-width="2.73"
     stroke-linejoin="bevel"
     points="336.598,981.398 2847.4,981.398"
     id="polyline999"
     transform="translate(-336.598,-584.594)" />
  <polyline
     class="StaffLines"
     fill="none"
     stroke="#000000"
     stroke-width="2.73"
     stroke-linejoin="bevel"
     points="336.598,1006.2 2847.4,1006.2"
     id="polyline1001"
     transform="translate(-336.598,-584.594)" />
  <polyline
     class="BarLine"
     fill="none"
     stroke="#000000"
     stroke-width="4.46"
     stroke-linejoin="bevel"
     points="1649.04,905.634 1649.04,1007.56"
     id="polyline1009"
     transform="translate(-336.598,-584.594)" />
  <polyline
     class="BarLine"
     fill="none"
     stroke="#000000"
     stroke-width="4.46"
     stroke-linejoin="bevel"
     points="2845.17,632.834 2845.17,734.762"
     id="polyline1011"
     transform="translate(-336.598,-584.594)" />
  <polyline
     class="BarLine"
     fill="none"
     stroke="#000000"
     stroke-width="4.46"
     stroke-linejoin="bevel"
     points="2326.39,632.834 2326.39,734.762"
     id="polyline1013"
     transform="translate(-336.598,-584.594)" />
  <polyline
     class="BarLine"
     fill="none"
     stroke="#000000"
     stroke-width="4.46"
     stroke-linejoin="bevel"
     points="1030.57,905.634 1030.57,1007.56"
     id="polyline1015"
     transform="translate(-336.598,-584.594)" />
  <polyline
     class="BarLine"
     fill="none"
     stroke="#000000"
     stroke-width="4.46"
     stroke-linejoin="bevel"
     points="1727.25,632.834 1727.25,734.762"
     id="polyline1017"
     transform="translate(-336.598,-584.594)" />
  <polyline
     class="BarLine"
     fill="none"
     stroke="#000000"
     stroke-width="4.46"
     stroke-linejoin="bevel"
     points="1128.12,632.834 1128.12,734.762"
     id="polyline1019"
     transform="translate(-336.598,-584.594)" />
  <polyline
     class="BarLine"
     fill="none"
     stroke="#000000"
     stroke-width="4.46"
     stroke-linejoin="bevel"
     points="2267.5,905.634 2267.5,1007.56"
     id="polyline1021"
     transform="translate(-336.598,-584.594)" />
  <path
     class="BarLine"
     d="m 2474.355,359.604 c 0,-2.883 -2.294,-5.2545 -5.1615,-5.2545 -2.883,0 -5.1615,2.3715 -5.1615,5.2545 0,2.883 2.2785,5.2545 5.1615,5.2545 2.8675,0 5.1615,-2.3715 5.1615,-5.2545"
     id="path1023"
     style="stroke-width:0.992" />
  <path
     class="BarLine"
     d="m 2474.355,384.404 c 0,-2.883 -2.294,-5.2545 -5.1615,-5.2545 -2.883,0 -5.1615,2.3715 -5.1615,5.2545 0,2.883 2.2785,5.2545 5.1615,5.2545 2.8675,0 5.1615,-2.3715 5.1615,-5.2545"
     id="path1025"
     style="stroke-width:0.992" />
  <polyline
     class="BarLine"
     fill="none"
     stroke="#000000"
     stroke-width="4.46"
     stroke-linejoin="bevel"
     points="2822.35,905.634 2822.35,1007.56"
     id="polyline1027"
     transform="translate(-336.598,-584.594)" />
  <polyline
     class="BarLine"
     fill="none"
     stroke="#000000"
     stroke-width="13.64"
     stroke-linejoin="bevel"
     points="2840.58,905.634 2840.58,1007.56"
     id="polyline1029"
     transform="translate(-336.598,-584.594)" />
  <polyline
     class="Stem"
     fill="none"
     stroke="#000000"
     stroke-width="2.48"
     stroke-linejoin="bevel"
     points="2033.76,717.03 2033.76,637.915"
     id="polyline1031"
     transform="translate(-336.598,-584.594)" />
  <polyline
     class="Stem"
     fill="none"
     stroke="#000000"
     stroke-width="2.48"
     stroke-linejoin="bevel"
     points="1792.72,704.63 1792.72,634.217"
     id="polyline1033"
     transform="translate(-336.598,-584.594)" />
  <polyline
     class="Stem"
     fill="none"
     stroke="#000000"
     stroke-width="2.48"
     stroke-linejoin="bevel"
     points="2332.97,977.43 2332.97,894.797"
     id="polyline1035"
     transform="translate(-336.598,-584.594)" />
  <polyline
     class="Stem"
     fill="none"
     stroke="#000000"
     stroke-width="2.48"
     stroke-linejoin="bevel"
     points="1096.03,952.63 1096.03,882.29"
     id="polyline1037"
     transform="translate(-336.598,-584.594)" />
  <polyline
     class="Stem"
     fill="none"
     stroke="#000000"
     stroke-width="2.48"
     stroke-linejoin="bevel"
     points="810.001,965.03 810.001,900.829"
     id="polyline1039"
     transform="translate(-336.598,-584.594)" />
  <polyline
     class="Stem"
     fill="none"
     stroke="#000000"
     stroke-width="2.48"
     stroke-linejoin="bevel"
     points="2194.45,729.43 2194.45,640.379"
     id="polyline1041"
     transform="translate(-336.598,-584.594)" />
  <polyline
     class="Stem"
     fill="none"
     stroke="#000000"
     stroke-width="2.48"
     stroke-linejoin="bevel"
     points="560.674,977.43 560.674,906.968"
     id="polyline1043"
     transform="translate(-336.598,-584.594)" />
  <polyline
     class="Stem"
     fill="none"
     stroke="#000000"
     stroke-width="2.48"
     stroke-linejoin="bevel"
     points="2391.85,704.63 2391.85,621.997"
     id="polyline1045"
     transform="translate(-336.598,-584.594)" />
  <polyline
     class="Stem"
     fill="none"
     stroke="#000000"
     stroke-width="2.48"
     stroke-linejoin="bevel"
     points="1262.25,977.43 1262.25,894.507"
     id="polyline1047"
     transform="translate(-336.598,-584.594)" />
  <polyline
     class="Stem"
     fill="none"
     stroke="#000000"
     stroke-width="2.48"
     stroke-linejoin="bevel"
     points="1354.28,692.23 1354.28,596.951"
     id="polyline1049"
     transform="translate(-336.598,-584.594)" />
  <polyline
     class="Stem"
     fill="none"
     stroke="#000000"
     stroke-width="2.48"
     stroke-linejoin="bevel"
     points="2130.05,1014.63 2130.05,913.18"
     id="polyline1051"
     transform="translate(-336.598,-584.594)" />
  <polyline
     class="Stem"
     fill="none"
     stroke="#000000"
     stroke-width="2.48"
     stroke-linejoin="bevel"
     points="1193.59,667.43 1193.59,590.846"
     id="polyline1053"
     transform="translate(-336.598,-584.594)" />
  <polyline
     class="Stem"
     fill="none"
     stroke="#000000"
     stroke-width="2.48"
     stroke-linejoin="bevel"
     points="594.456,655.03 594.456,590.817"
     id="polyline1055"
     transform="translate(-336.598,-584.594)" />
  <polyline
     class="Stem"
     fill="none"
     stroke="#000000"
     stroke-width="2.48"
     stroke-linejoin="bevel"
     points="1714.5,977.43 1714.5,907.017"
     id="polyline1057"
     transform="translate(-336.598,-584.594)" />
  <polyline
     class="Stem"
     fill="none"
     stroke="#000000"
     stroke-width="2.48"
     stroke-linejoin="bevel"
     points="835.497,667.43 835.497,594.515"
     id="polyline1059"
     transform="translate(-336.598,-584.594)" />
  <polyline
     class="Stem"
     fill="none"
     stroke="#000000"
     stroke-width="2.48"
     stroke-linejoin="bevel"
     points="996.19,692.23 996.19,596.979"
     id="polyline1061"
     transform="translate(-336.598,-584.594)" />
  <polyline
     class="Stem"
     fill="none"
     stroke="#000000"
     stroke-width="2.48"
     stroke-linejoin="bevel"
     points="1963.83,977.43 1963.83,910.715"
     id="polyline1063"
     transform="translate(-336.598,-584.594)" />
  <path
     class="Note"
     d="m 1762.452,438.1755 c 0,4.2625 3.069,9.02102 11.1135,9.02102 10.3075,0 21.1265,-8.43202 21.1265,-17.15852 0,-5.859 -4.96,-9.12948 -11.1135,-9.12948 -9.6255,0 -21.1265,8.13748 -21.1265,17.26698"
     id="path1065"
     style="stroke-width:0.992" />
  <path
     class="Note"
     d="m 728.442,376.1735 c 0,4.2625 3.069,9.02102 11.11348,9.02102 10.30757,0 21.12652,-8.43202 21.12652,-17.15852 0,-5.859 -4.96,-9.12948 -11.11348,-9.12948 -9.62547,0 -21.12652,8.13748 -21.12652,17.26698"
     id="path1067"
     style="stroke-width:0.992" />
  <path
     class="Note"
     d="m 1596.242,400.9735 c 0,4.2625 3.069,9.02102 11.1135,9.02102 10.3075,0 21.1265,-8.43202 21.1265,-17.15852 0,-5.859 -4.96,-9.12948 -11.1135,-9.12948 -9.6255,0 -21.1265,8.13748 -21.1265,17.26698"
     id="path1069"
     style="stroke-width:0.992" />
  <path
     class="Note"
     d="m 1965.382,400.9735 c 0,4.2625 3.069,9.02102 11.1135,9.02102 10.3075,0 21.1265,-8.43202 21.1265,-17.15852 0,-5.859 -4.96,-9.12948 -11.1135,-9.12948 -9.6255,0 -21.1265,8.13748 -21.1265,17.26698"
     id="path1071"
     style="stroke-width:0.992" />
  <path
     class="Note"
     d="m 1346.912,400.9735 c 0,4.2625 3.069,9.02102 11.1135,9.02102 10.3075,0 21.1265,-8.43202 21.1265,-17.15852 0,-5.859 -4.96,-9.12948 -11.1135,-9.12948 -9.6255,0 -21.1265,8.13748 -21.1265,17.26698"
     id="path1073"
     style="stroke-width:0.992" />
  <path
     class="Note"
     d="m 193.084,400.9735 c 0,4.2625 3.069,9.02102 11.11348,9.02102 10.30757,0 21.12652,-8.43202 21.12652,-17.15852 0,-5.859 -4.96,-9.12948 -11.11348,-9.12948 -9.62547,0 -21.12652,8.13748 -21.12652,17.26698"
     id="path1075"
     style="stroke-width:0.992" />
  <path
     class="Note"
     d="m 442.411,388.5735 c 0,4.2625 3.069,9.02102 11.11348,9.02102 10.30757,0 21.12652,-8.43202 21.12652,-17.15852 0,-5.859 -4.96,-9.12948 -11.11348,-9.12948 -9.62547,0 -21.12652,8.13748 -21.12652,17.26698"
     id="path1077"
     style="stroke-width:0.992" />
  <path
     class="Note"
     d="m 2024.262,128.1735 c 0,4.2625 3.069,9.02102 11.1135,9.02102 10.3075,0 21.1265,-8.43202 21.1265,-17.15852 0,-5.859 -4.96,-9.12948 -11.1135,-9.12948 -9.6255,0 -21.1265,8.13748 -21.1265,17.26698"
     id="path1079"
     style="stroke-width:0.992" />
  <path
     class="Note"
     d="m 894.662,400.9735 c 0,4.2625 3.069,9.02102 11.11348,9.02102 10.30757,0 21.12652,-8.43202 21.12652,-17.15852 0,-5.859 -4.96,-9.12948 -11.11348,-9.12948 -9.62547,0 -21.12652,8.13748 -21.12652,17.26698"
     id="path1081"
     style="stroke-width:0.992" />
  <path
     class="Note"
     d="m 628.6,115.7735 c 0,4.2625 3.069,9.02102 11.11348,9.02102 10.30757,0 21.12652,-8.43202 21.12652,-17.15852 0,-5.859 -4.96,-9.129475 -11.11348,-9.129475 -9.62547,0 -21.12652,8.137475 -21.12652,17.266975"
     id="path1083"
     style="stroke-width:0.992" />
  <path
     class="Note"
     d="m 986.692,115.7735 c 0,4.2625 3.069,9.02102 11.11348,9.02102 10.30752,0 21.12652,-8.43202 21.12652,-17.15852 0,-5.859 -4.96,-9.129475 -11.1135,-9.129475 -9.62545,0 -21.1265,8.137475 -21.1265,17.266975"
     id="path1085"
     style="stroke-width:0.992" />
  <path
     class="Note"
     d="m 1425.132,128.1735 c 0,4.2625 3.069,9.02102 11.1135,9.02102 10.3075,0 21.1265,-8.43202 21.1265,-17.15852 0,-5.859 -4.96,-9.12948 -11.1135,-9.12948 -9.6255,0 -21.1265,8.13748 -21.1265,17.26698"
     id="path1087"
     style="stroke-width:0.992" />
  <path
     class="Note"
     d="m 226.866,78.573505 c 0,4.262495 3.069,9.02102 11.11348,9.02102 10.30757,0 21.12652,-8.43202 21.12652,-17.158525 0,-5.859 -4.96,-9.129475 -11.11348,-9.129475 -9.62547,0 -21.12652,8.137475 -21.12652,17.26698"
     id="path1089"
     style="stroke-width:0.992" />
  <path
     class="Note"
     d="m 1666.172,140.5735 c 0,4.2625 3.069,9.02102 11.1135,9.02102 10.3075,0 21.1265,-8.43202 21.1265,-17.15852 0,-5.859 -4.96,-9.12948 -11.1135,-9.12948 -9.6255,0 -21.1265,8.13748 -21.1265,17.26698"
     id="path1091"
     style="stroke-width:0.992" />
  <path
     class="Note"
     d="m 826.002,90.973505 c 0,4.262495 3.069,9.02102 11.11348,9.02102 10.30757,0 21.12652,-8.43202 21.12652,-17.158525 0,-5.859 -4.96,-9.129475 -11.11348,-9.129475 -9.62547,0 -21.12652,8.137475 -21.12652,17.26698"
     id="path1093"
     style="stroke-width:0.992" />
  <path
     class="Note"
     d="m 1826.862,152.9735 c 0,4.2625 3.069,9.02102 11.1135,9.02102 10.3075,0 21.1265,-8.43202 21.1265,-17.15852 0,-5.859 -4.96,-9.12948 -11.1135,-9.12948 -9.6255,0 -21.1265,8.13748 -21.1265,17.26698"
     id="path1095"
     style="stroke-width:0.992" />
  <path
     class="Note"
     d="m 467.906,90.973505 c 0,4.262495 3.069,9.02102 11.11348,9.02102 10.30757,0 21.12652,-8.43202 21.12652,-17.158525 0,-5.859 -4.96,-9.129475 -11.11348,-9.129475 -9.62547,0 -21.12652,8.137475 -21.12652,17.26698"
     id="path1097"
     style="stroke-width:0.992" />
  <path
     class="Clef"
     d="m 30.798525,447.69052 c 0,6.55653 4.96,15.19 18.352,15.19 4.665475,0 8.742,-1.19347 12.30695,-3.37904 C 66.820525,455.73505 68.2,449.17852 68.2,442.932 c 0,-3.85948 -0.58895,-8.32348 -1.58095,-13.98095 -0.294525,-1.984 -0.89905,-4.96 -1.488,-8.83505 9.718425,-3.17748 16.95695,-13.29895 16.95695,-23.5135 0,-14.97302 -10.617475,-25.0945 -25.094525,-25.0945 -0.992,-5.952 -1.984,-11.81105 -2.774425,-17.36 10.416,-11.02052 17.654425,-23.42052 17.654425,-39.184 0,-9.03652 -2.774425,-16.368 -4.37095,-19.94813 -2.371475,-5.05325 -5.254525,-8.52525 -7.03705,-8.52525 -0.697475,0 -3.766425,1.19338 -7.03695,5.05325 -6.35505,7.54813 -8.137475,20.24265 -8.137475,28.56613 0,5.36295 0.496,10.23 2.185475,21.34348 -0.108525,0.093 -5.27,5.34747 -7.34705,7.03704 C 31.09305,356.82948 18.6,368.91948 18.6,388.775 c 0,18.53805 16.166525,33.12352 34.62705,33.12352 2.867475,0 5.54895,-0.29452 7.827475,-0.69747 1.89095,9.53243 3.084525,16.47643 3.084525,21.73095 0,10.32305 -5.36305,15.77905 -15.376,15.77905 -2.38705,0 -4.464,-0.496 -4.665575,-0.496 -0.09295,-0.10853 -0.294425,-0.20157 -0.294425,-0.29453 0,-0.20147 0.201475,-0.31 0.496,-0.31 4.665475,-0.79052 9.315475,-4.75852 9.315475,-11.098 0,-5.36304 -4.06105,-11.02052 -11.50105,-11.02052 -6.944,0 -11.31495,5.65748 -11.31495,12.19852 m 20.73895,-132.432 c 0.89905,-3.968 5.456,-14.384 10.617575,-14.384 1.488,0 3.859475,4.75843 3.859475,11.70243 0,10.32305 -7.626,18.05757 -14.47705,24.8 -0.58895,-3.968 -1.08495,-7.82747 -1.08495,-11.99695 0,-3.67348 0.294525,-7.05252 1.08495,-10.12148 M 60.264,417.23305 c -1.984,0.40295 -3.859475,0.60443 -5.750525,0.60443 -14.182425,0 -26.28797,-9.92 -26.28797,-24.90848 0,-12.09005 8.52502,-22.909 17.26702,-30.45752 1.674,-1.488 3.270525,-2.86748 4.758525,-4.35548 0.883475,5.34748 1.58095,10.01295 2.278425,14.08948 C 43.49305,374.88695 37.35505,384.404 37.35505,393.735 c 0,6.944 5.456,16.461 13.392,16.461 0.790425,0 1.689475,-0.40295 1.689475,-1.28652 0,-0.89896 -0.992,-1.39496 -2.185475,-2.18548 -3.87505,-2.387 -6.060525,-4.96 -6.060525,-9.827 0,-6.045 4.572525,-10.91205 10.32295,-12.29152 L 60.264,417.23305 M 74.353475,398.881 c 0,7.0525 -2.88295,14.291 -9.92,17.17405 -2.07695,-11.90405 -4.758425,-27.68305 -5.456,-32.0541 8.928,0 15.376,6.06055 15.376,14.88005"
     id="path1099"
     style="stroke-width:0.992" />
  <path
     class="Clef"
     d="m 30.798525,174.89052 c 0,6.55653 4.96,15.19 18.352,15.19 4.665475,0 8.742,-1.19347 12.30695,-3.37904 C 66.820525,182.93505 68.2,176.37852 68.2,170.132 c 0,-3.85948 -0.58895,-8.32348 -1.58095,-13.98095 -0.294525,-1.984 -0.89905,-4.96 -1.488,-8.83505 9.718425,-3.17748 16.95695,-13.29895 16.95695,-23.5135 0,-14.97302 -10.617475,-25.0945 -25.094525,-25.0945 -0.992,-5.952 -1.984,-11.81105 -2.774425,-17.36 10.416,-11.020525 17.654425,-23.420525 17.654425,-39.184 0,-9.036525 -2.774425,-16.368 -4.37095,-19.948128 -2.371475,-5.053248 -5.254525,-8.525248 -7.03705,-8.525248 -0.697475,0 -3.766425,1.193376 -7.03695,5.053248 C 47.073475,26.292 45.29105,38.986525 45.29105,47.31 c 0,5.36295 0.496,10.23 2.185475,21.343475 -0.108525,0.09305 -5.27,5.347475 -7.34705,7.03705 C 31.09305,84.029475 18.6,96.119475 18.6,115.975 c 0,18.53805 16.166525,33.12352 34.62705,33.12352 2.867475,0 5.54895,-0.29452 7.827475,-0.69747 1.89095,9.53243 3.084525,16.47643 3.084525,21.73095 0,10.32305 -5.36305,15.77905 -15.376,15.77905 -2.38705,0 -4.464,-0.496 -4.665575,-0.496 -0.09295,-0.10853 -0.294425,-0.20157 -0.294425,-0.29453 0,-0.20147 0.201475,-0.31 0.496,-0.31 4.665475,-0.79052 9.315475,-4.75852 9.315475,-11.098 0,-5.36304 -4.06105,-11.02052 -11.50105,-11.02052 -6.944,0 -11.31495,5.65748 -11.31495,12.19852 M 51.537475,42.458525 c 0.89905,-3.968 5.456,-14.384 10.617575,-14.384 1.488,0 3.859475,4.758425 3.859475,11.702425 0,10.32305 -7.626,18.057575 -14.47705,24.8 -0.58895,-3.968 -1.08495,-7.827475 -1.08495,-11.99695 0,-3.673475 0.294525,-7.052525 1.08495,-10.121475 M 60.264,144.43305 c -1.984,0.40295 -3.859475,0.60443 -5.750525,0.60443 -14.182425,0 -26.28797,-9.92 -26.28797,-24.90848 0,-12.09005 8.52502,-22.909 17.26702,-30.457525 1.674,-1.488 3.270525,-2.867475 4.758525,-4.355475 0.883475,5.347475 1.58095,10.01295 2.278425,14.089475 C 43.49305,102.08695 37.35505,111.604 37.35505,120.935 c 0,6.944 5.456,16.461 13.392,16.461 0.790425,0 1.689475,-0.40295 1.689475,-1.28652 0,-0.89896 -0.992,-1.39496 -2.185475,-2.18548 -3.87505,-2.387 -6.060525,-4.96 -6.060525,-9.827 0,-6.045 4.572525,-10.91205 10.32295,-12.29152 L 60.264,144.43305 M 74.353475,126.081 c 0,7.0525 -2.88295,14.291 -9.92,17.17405 -2.07695,-11.90405 -4.758425,-27.68305 -5.456,-32.0541 8.928,0 15.376,6.06055 15.376,14.88005"
     id="path1101"
     style="stroke-width:0.992" />
  <path
     class="KeySig"
     d="m 129.99152,311.988 c 0.60453,-0.0931 1.10053,-0.79052 1.10053,-1.39505 v -5.84347 c 0,-0.992 -0.69757,-1.39496 -1.59653,-1.39496 L 126.225,304.052 v -14.78705 h -2.77452 v 15.376 l -8.83498,1.798 V 292.44252 H 111.841 V 307.028 l -3.875,0.79052 c -0.589,0.10843 -1.085,0.79043 -1.085,1.39496 v 5.75052 c 0,1.085 0.7905,1.395 1.6895,1.395 l 3.2705,-0.6975 v 16.368 l -3.875,0.7905 c -0.589,0.0931 -1.085,0.79052 -1.085,1.39505 v 5.75043 c 0,1.08504 0.7905,1.37957 1.6895,1.37957 l 3.2705,-0.682 v 14.77147 h 2.7745 v -15.376 l 8.83498,-1.78252 v 13.99652 h 2.77452 v -14.58547 l 3.76652,-0.69757 c 0.60453,-0.10843 1.10053,-0.79043 1.10053,-1.39496 V 329.751 c 0,-0.992 -0.69757,-1.395 -1.59653,-1.395 l -3.27052,0.6975 v -16.368 l 3.76652,-0.6975 m -15.37602,3.069 8.83498,-1.7825 v 16.368 l -8.83498,1.891 V 315.057"
     id="path1103"
     style="stroke-width:0.992" />
  <path
     class="KeySig"
     d="m 129.99152,39.188 c 0.60453,-0.09305 1.10053,-0.790525 1.10053,-1.39505 v -5.843475 c 0,-0.992 -0.69757,-1.39495 -1.59653,-1.39495 L 126.225,31.252 V 16.46495 h -2.77452 v 15.376 l -8.83498,1.798 V 19.642525 H 111.841 V 34.228 l -3.875,0.790525 c -0.589,0.108425 -1.085,0.790425 -1.085,1.39495 V 42.164 c 0,1.085 0.7905,1.395 1.6895,1.395 l 3.2705,-0.697505 v 16.36801 L 107.966,60.02 c -0.589,0.09305 -1.085,0.790525 -1.085,1.39505 v 5.750425 c 0,1.08505 0.7905,1.379575 1.6895,1.379575 l 3.2705,-0.682 v 14.771475 h 2.7745 v -15.376 L 123.45048,65.476 V 79.472525 H 126.225 V 64.88705 l 3.76652,-0.697575 c 0.60453,-0.108425 1.10053,-0.790425 1.10053,-1.39495 V 56.951 c 0,-0.992 -0.69757,-1.395 -1.59653,-1.395 L 126.225,56.253505 V 39.885495 L 129.99152,39.188 m -15.37602,3.069 8.83498,-1.782505 v 16.36801 l -8.83498,1.891 V 42.257"
     id="path1105"
     style="stroke-width:0.992" />
  <path
     class="TimeSig"
     d="m 189.12348,78.775 c -0.79043,2.17 -2.77443,9.315525 -7.64148,9.315525 -6.448,0 -7.84295,-3.96802 -13.19052,-3.96802 -0.79043,0 -1.59643,0.108495 -2.58843,0.294495 0,0 2.48,-3.766495 13.00443,-7.037 10.50904,-3.2705 13.19052,-8.432 13.19052,-14.384 0,-4.169475 -1.87548,-12.4 -16.864,-12.4 -14.973,0 -17.763,9.02095 -17.763,13.593475 0,4.06102 3.379,7.331525 7.44,7.331525 4.07648,0 7.347,-3.270505 7.347,-7.331525 0,-2.774525 -1.984,-5.85895 -4.55695,-6.85095 -0.31,-0.09305 -0.69757,-0.58905 -0.69757,-1.08505 0,-0.604525 0.496,-1.286525 2.27852,-1.782525 0.496,-0.201475 1.89105,-0.496 3.37905,-0.496 5.642,0 6.74243,3.472 6.74243,8.52505 0,11.6095 -13.79496,14.089505 -19.54548,22.72305 0,0 -2.976,4.154 -2.976,8.819475 0,4.665475 2.387,4.96 3.565,4.96 1.5965,0 3.286,-1.286525 3.286,-3.06905 0,-0.40295 -0.1085,-0.790425 -0.31,-1.286425 -0.589,-1.39505 -0.7905,-2.48 -0.7905,-3.286 0,-0.294525 0,-0.58905 0.1085,-0.883575 0.093,-0.604425 0.8835,-1.596425 3.27048,-1.596425 2.86757,0 3.968,3.37895 5.75052,5.952 1.78252,2.588425 4.55705,4.169475 7.73452,4.169475 3.17748,0 7.44,-2.278525 9.238,-5.952 1.78253,-3.673475 4.06096,-11.113525 4.06096,-13.779525 0,-1.302 -0.79043,-1.891 -1.68948,-1.891 -0.69748,0 -1.37948,0.403 -1.78252,1.395"
     id="path1107"
     style="stroke-width:0.992" />
  <path
     class="TimeSig"
     d="m 186.55105,121.9735 c 3.27043,-2.48 5.54895,-5.6575 5.54895,-9.6255 0,-7.14548 -7.82748,-12.98905 -17.45295,-12.98905 -9.62557,0 -17.46855,5.84357 -17.46855,12.98905 0,3.968 0.992,7.533 5.6575,10.509 -4.464,2.5885 -6.944,6.262 -6.944,11.02048 0,8.02904 8.432,14.47704 18.75505,14.47704 10.30747,0 18.73947,-6.448 18.73947,-14.47704 0,-4.75848 -1.674,-9.22248 -6.83547,-11.90398 m -5.56453,-2.6815 c -6.74252,-2.1855 -14.18252,-5.456 -14.18252,-9.92 0,-3.87505 3.56505,-5.456 7.84305,-5.456 6.15347,0 10.30747,2.88295 10.30747,7.44 0,4.7585 -2.17,7.037 -3.968,7.936 m -6.33947,23.51348 c -6.35505,0 -11.81105,-3.472 -11.81105,-9.03643 0,-6.63405 5.16148,-8.23055 5.16148,-8.23055 6.74252,2.2785 16.368,5.6575 16.368,11.1135 0,2.68148 -3.37896,6.15348 -9.71843,6.15348"
     id="path1109"
     style="stroke-width:0.992" />
  <path
     class="Rest"
     d="m 2241.1915,351.86948 c -0.093,0 -0.2945,-0.10853 -0.403,-0.10853 -0.589,0 -1.085,0.31 -1.2865,0.806 -2.2785,4.55705 -7.037,10.71055 -12.4,11.70255 1.085,-1.2865 1.7825,-2.88298 1.7825,-4.75855 0,-3.87495 -3.1775,-7.05243 -7.037,-7.05243 -3.968,0 -7.1455,3.17748 -7.1455,7.05243 0,5.34755 5.2545,7.82755 9.92,7.82755 5.2545,0 8.7265,-2.48 12.1055,-6.15355 l -11.315,35.32453 2.6815,0.79052 13.888,-43.74105 c 0.1085,-0.10843 0.1085,-0.31 0.1085,-0.496 0,-0.496 -0.31,-0.89895 -0.899,-1.19347"
     id="path1111"
     style="stroke-width:0.992" />
  <path
     class="Rest"
     d="m 2291.7915,79.069475 c -0.093,0 -0.2945,-0.108525 -0.403,-0.108525 -0.589,0 -1.085,0.31 -1.2865,0.806 -2.2785,4.55705 -7.037,10.710545 -12.4,11.702545 1.085,-1.286495 1.7825,-2.88297 1.7825,-4.758545 0,-3.87495 -3.1775,-7.052425 -7.037,-7.052425 -3.968,0 -7.1455,3.177475 -7.1455,7.052425 0,5.347545 5.2545,7.827545 9.92,7.827545 5.2545,0 8.7265,-2.48 12.1055,-6.153545 l -11.315,35.32453 2.6815,0.79052 13.888,-43.74105 c 0.1085,-0.108425 0.1085,-0.31 0.1085,-0.496 0,-0.496 -0.31,-0.89895 -0.899,-1.193475"
     id="path1113"
     style="stroke-width:0.992" />
  <path
     class="Rest"
     d="m 1173.8715,79.069475 c -0.093,0 -0.2945,-0.108525 -0.403,-0.108525 -0.589,0 -1.085,0.31 -1.2865,0.806 -2.2785,4.55705 -7.037,10.710545 -12.4,11.702545 1.085,-1.286495 1.7825,-2.88297 1.7825,-4.758545 0,-3.87495 -3.1775,-7.052425 -7.037,-7.052425 -3.968,0 -7.1455,3.177475 -7.1455,7.052425 0,5.347545 5.2545,7.827545 9.92,7.827545 5.2545,0 8.7265,-2.48 12.1055,-6.153545 l -11.315,35.32453 2.6815,0.79052 13.888,-43.74105 c 0.1085,-0.108425 0.1085,-0.31 0.1085,-0.496 0,-0.496 -0.31,-0.89895 -0.899,-1.193475"
     id="path1115"
     style="stroke-width:0.992" />
  <path
     class="Rest"
     d="m 1087.3715,351.86948 c -0.093,0 -0.2945,-0.10853 -0.403,-0.10853 -0.589,0 -1.085,0.31 -1.2865,0.806 -2.2785,4.55705 -7.037,10.71055 -12.4,11.70255 1.085,-1.2865 1.7825,-2.88298 1.7825,-4.75855 0,-3.87495 -3.1775,-7.05243 -7.037,-7.05243 -3.968,0 -7.1455,3.17748 -7.1455,7.05243 0,5.34755 5.2545,7.82755 9.92,7.82755 5.2545,0 8.7265,-2.48 12.1055,-6.15355 l -11.315,35.32453 2.6815,0.79052 13.888,-43.74105 c 0.1085,-0.10843 0.1085,-0.31 0.1085,-0.496 0,-0.496 -0.31,-0.89895 -0.899,-1.19347"
     id="path1117"
     style="stroke-width:0.992" />
  <path
     class="Beam"
     fill-rule="evenodd"
     d="m 1454.882,43.404 404.21,6.2 v 12.401 l -404.21,-6.2 V 43.404"
     id="path1119" />
  <path
     class="Beam"
     fill-rule="evenodd"
     d="m 1695.922,65.701 163.17,2.503 v 12.401 l -163.17,-2.503 V 65.701"
     id="path1121" />
  <path
     class="Beam"
     fill-rule="evenodd"
     d="m 855.752,0 163.17,6.2 v 12.409 l -163.17,-6.2 V 0"
     id="path1123" />
  <path
     class="Beam"
     fill-rule="evenodd"
     d="m 855.752,18.6 163.17,6.2 v 12.409 l -163.17,-6.2 V 18.6"
     id="path1125" />
  <path
     class="Beam"
     fill-rule="evenodd"
     d="m 1376.662,316.204 418.03,6.2 v 12.401 l -418.03,-6.2 v -12.401"
     id="path1127" />
  <path
     class="Beam"
     fill-rule="evenodd"
     d="m 1625.992,338.502 168.7,2.502 v 12.401 l -168.7,-2.502 v -12.401"
     id="path1129" />
  <path
     class="Beam"
     fill-rule="evenodd"
     d="m 256.618,0.004 404.214,6.2 v 12.401 l -404.214,-6.2 V 0.004"
     id="path1131" />
  <path
     class="Beam"
     fill-rule="evenodd"
     d="m 497.659,22.301 163.173,2.503 V 37.205 L 497.659,34.702 V 22.301"
     id="path1133" />
  <path
     class="Beam"
     fill-rule="evenodd"
     d="m 758.192,291.388 168.7,12.4 v 12.433 l -168.7,-12.4 v -12.433"
     id="path1135" />
  <path
     class="Beam"
     fill-rule="evenodd"
     d="m 758.192,309.988 168.7,12.4 v 12.433 l -168.7,-12.4 v -12.433"
     id="path1137" />
  <path
     class="Beam"
     fill-rule="evenodd"
     d="m 222.836,316.203 251.807,-6.2 v 12.403 l -251.807,6.2 v -12.403"
     id="path1139" />
  <path
     class="Hook"
     d="m 1995.132,332.52548 c 0,0.29452 0.093,0.88357 0.7905,1.08504 4.2625,1.39496 12.803,6.758 19.251,17.76296 1.7825,3.06904 4.6655,7.34704 4.6655,15.57757 0,7.14547 -1.798,14.47695 -4.464,21.62243 -0.2015,0.60452 -0.31,1.10052 -0.31,1.488 0,0.69757 0.403,0.992 1.1005,0.992 0.589,0 1.085,-0.38748 1.488,-1.08496 4.464,-7.936 6.1535,-17.174 6.1535,-26.19504 -0.496,-12.80296 -7.843,-22.22696 -7.843,-22.22696 0.2945,0 -9.1295,-12.19852 -11.811,-16.368 -3.658,-5.65752 -5.3475,-11.29952 -5.549,-11.70252 -0.093,-0.2945 -0.992,-3.875 -0.992,-3.875 -0.093,-0.3875 -0.589,-0.7905 -1.1935,-0.7905 -0.6975,0 -1.2865,0.6045 -1.2865,1.2865 v 22.42848"
     id="path1141"
     style="stroke-width:0.992" />
  <path
     class="Hook"
     d="m 2054.012,59.725475 c 0,0.294525 0.093,0.883575 0.7905,1.08505 4.2625,1.39495 12.803,6.758 19.251,17.76295 1.7825,3.06905 4.6655,7.34705 4.6655,15.577575 0,7.14547 -1.798,14.47695 -4.464,21.62243 -0.2015,0.60452 -0.31,1.10052 -0.31,1.488 0,0.69757 0.403,0.992 1.1005,0.992 0.589,0 1.085,-0.38748 1.488,-1.08496 4.464,-7.936 6.1535,-17.173995 6.1535,-26.195045 -0.496,-12.80295 -7.843,-22.22695 -7.843,-22.22695 0.2945,0 -9.1295,-12.198525 -11.811,-16.368 C 2059.375,46.721 2057.6855,41.079 2057.484,40.676 c -0.093,-0.294495 -0.992,-3.875 -0.992,-3.875 -0.093,-0.3875 -0.589,-0.790505 -1.1935,-0.790505 -0.6975,0 -1.2865,0.604505 -1.2865,1.286505 v 22.428475"
     id="path1143"
     style="stroke-width:0.992" />
  <path
     class="Lyrics"
     d="m 213.389,186.033 h 5.39 l 10.313,15.281 10.234,-15.281 h 5.406 l -13.14,19.468 v 17.703 h -5.063 v -17.703 l -13.14,-19.468 m 40.062,12.5 c -2.458,0 -4.401,0.958 -5.828,2.875 -1.427,1.916 -2.141,4.541 -2.141,7.875 0,3.333 0.711,5.96 2.133,7.882 1.422,1.922 3.367,2.883 5.836,2.883 2.448,0 4.385,-0.963 5.813,-2.89 1.427,-1.928 2.14,-4.553 2.14,-7.875 0,-3.303 -0.713,-5.92 -2.14,-7.852 -1.428,-1.932 -3.365,-2.898 -5.813,-2.898 m 0,-3.891 c 3.99,0 7.12,1.294 9.391,3.883 2.271,2.588 3.406,6.174 3.406,10.758 0,4.562 -1.135,8.143 -3.406,10.742 -2.271,2.599 -5.401,3.898 -9.391,3.898 -4,0 -7.133,-1.299 -9.398,-3.898 -2.266,-2.599 -3.399,-6.18 -3.399,-10.742 0,-4.584 1.133,-8.17 3.399,-10.758 2.265,-2.589 5.398,-3.883 9.398,-3.883"
     id="path1145" />
  <path
     class="Lyrics"
     d="m 1608.842,484.366 v 16.83 h -4.58 v -16.69 c 0,-2.63 -0.52,-4.61 -1.54,-5.92 -1.03,-1.31 -2.57,-1.97 -4.63,-1.97 -2.48,0 -4.44,0.79 -5.86,2.37 -1.43,1.58 -2.14,3.73 -2.14,6.44 v 15.77 h -4.61 v -38.75 h 4.61 v 15.19 c 1.09,-1.68 2.38,-2.93 3.87,-3.76 1.49,-0.83 3.2,-1.24 5.14,-1.24 3.21,0 5.63,0.99 7.27,2.97 1.65,1.99 2.47,4.91 2.47,8.76 m 21.81,2.81 c -3.71,0 -6.28,0.43 -7.7,1.27 -1.43,0.84 -2.15,2.29 -2.15,4.33 0,1.62 0.54,2.92 1.61,3.87 1.08,0.96 2.54,1.44 4.38,1.44 2.54,0 4.58,-0.9 6.11,-2.7 1.53,-1.8 2.3,-4.2 2.3,-7.19 v -1.02 h -4.55 m 9.14,-1.89 v 15.91 h -4.59 v -4.23 c -1.05,1.69 -2.35,2.94 -3.91,3.75 -1.56,0.8 -3.47,1.2 -5.72,1.2 -2.85,0 -5.12,-0.8 -6.81,-2.4 -1.69,-1.6 -2.53,-3.75 -2.53,-6.44 0,-3.14 1.05,-5.5 3.14,-7.1 2.1,-1.59 5.24,-2.39 9.4,-2.39 h 6.43 v -0.44 c 0,-2.11 -0.7,-3.74 -2.08,-4.89 -1.39,-1.16 -3.33,-1.73 -5.83,-1.73 -1.59,0 -3.15,0.19 -4.66,0.57 -1.51,0.38 -2.96,0.95 -4.36,1.71 v -4.23 c 1.68,-0.65 3.31,-1.13 4.89,-1.46 1.57,-0.32 3.11,-0.48 4.6,-0.48 4.03,0 7.04,1.04 9.04,3.14 1.99,2.09 2.99,5.26 2.99,9.51"
     id="path1147" />
  <path
     class="Lyrics"
     d="m 1778.682,476.526 c -2.46,0 -4.4,0.96 -5.83,2.87 -1.43,1.92 -2.14,4.55 -2.14,7.88 0,3.33 0.71,5.96 2.13,7.88 1.43,1.92 3.37,2.88 5.84,2.88 2.45,0 4.38,-0.96 5.81,-2.89 1.43,-1.92 2.14,-4.55 2.14,-7.87 0,-3.3 -0.71,-5.92 -2.14,-7.85 -1.43,-1.94 -3.36,-2.9 -5.81,-2.9 m 0,-3.89 c 3.99,0 7.12,1.29 9.39,3.88 2.27,2.59 3.41,6.18 3.41,10.76 0,4.56 -1.14,8.14 -3.41,10.74 -2.27,2.6 -5.4,3.9 -9.39,3.9 -4,0 -7.13,-1.3 -9.4,-3.9 -2.26,-2.6 -3.4,-6.18 -3.4,-10.74 0,-4.58 1.14,-8.17 3.4,-10.76 2.27,-2.59 5.4,-3.88 9.4,-3.88"
     id="path1149" />
  <path
     class="Lyrics"
     d="m 2036.862,206.376 v 16.828 h -4.58 v -16.687 c 0,-2.635 -0.51,-4.609 -1.54,-5.922 -1.03,-1.312 -2.57,-1.969 -4.63,-1.969 -2.48,0 -4.43,0.789 -5.86,2.367 -1.43,1.579 -2.14,3.727 -2.14,6.446 v 15.765 h -4.61 v -38.75 h 4.61 v 15.188 c 1.09,-1.677 2.38,-2.93 3.87,-3.758 1.49,-0.828 3.21,-1.242 5.14,-1.242 3.21,0 5.64,0.992 7.28,2.976 1.64,1.985 2.46,4.904 2.46,8.758 m 21.81,2.813 c -3.71,0 -6.28,0.422 -7.7,1.265 -1.43,0.844 -2.14,2.287 -2.14,4.329 0,1.625 0.53,2.916 1.61,3.875 1.07,0.958 2.53,1.437 4.37,1.437 2.54,0 4.58,-0.901 6.11,-2.703 1.53,-1.802 2.3,-4.198 2.3,-7.188 v -1.015 h -4.55 m 9.14,-1.891 v 15.906 h -4.59 v -4.234 c -1.04,1.698 -2.35,2.948 -3.91,3.75 -1.56,0.802 -3.47,1.203 -5.72,1.203 -2.85,0 -5.12,-0.799 -6.81,-2.398 -1.69,-1.599 -2.53,-3.748 -2.53,-6.446 0,-3.135 1.05,-5.5 3.15,-7.093 2.1,-1.594 5.23,-2.391 9.4,-2.391 h 6.42 v -0.437 c 0,-2.115 -0.7,-3.748 -2.08,-4.899 -1.39,-1.151 -3.33,-1.726 -5.83,-1.726 -1.59,0 -3.14,0.19 -4.66,0.57 -1.51,0.38 -2.96,0.95 -4.35,1.711 v -4.235 c 1.67,-0.645 3.3,-1.13 4.88,-1.453 1.58,-0.323 3.11,-0.484 4.6,-0.484 4.03,0 7.04,1.047 9.04,3.141 1.99,2.093 2.99,5.265 2.99,9.515"
     id="path1151" />
  <path
     class="Lyrics"
     d="m 1977.702,484.366 v 16.83 h -4.58 v -16.69 c 0,-2.63 -0.52,-4.61 -1.54,-5.92 -1.03,-1.31 -2.57,-1.97 -4.63,-1.97 -2.48,0 -4.44,0.79 -5.86,2.37 -1.43,1.58 -2.14,3.73 -2.14,6.44 v 15.77 h -4.61 v -38.75 h 4.61 v 15.19 c 1.09,-1.68 2.38,-2.93 3.87,-3.76 1.49,-0.83 3.2,-1.24 5.14,-1.24 3.21,0 5.63,0.99 7.27,2.97 1.64,1.99 2.47,4.91 2.47,8.76 m 21.81,2.81 c -3.71,0 -6.28,0.43 -7.71,1.27 -1.42,0.84 -2.14,2.29 -2.14,4.33 0,1.62 0.54,2.92 1.61,3.87 1.08,0.96 2.53,1.44 4.38,1.44 2.54,0 4.58,-0.9 6.11,-2.7 1.53,-1.8 2.29,-4.2 2.29,-7.19 v -1.02 h -4.54 m 9.14,-1.89 v 15.91 h -4.6 v -4.23 c -1.04,1.69 -2.34,2.94 -3.9,3.75 -1.56,0.8 -3.47,1.2 -5.72,1.2 -2.85,0 -5.13,-0.8 -6.81,-2.4 -1.69,-1.6 -2.53,-3.75 -2.53,-6.44 0,-3.14 1.05,-5.5 3.14,-7.1 2.1,-1.59 5.24,-2.39 9.4,-2.39 h 6.42 v -0.44 c 0,-2.11 -0.69,-3.74 -2.07,-4.89 -1.39,-1.16 -3.33,-1.73 -5.83,-1.73 -1.6,0 -3.15,0.19 -4.66,0.57 -1.51,0.38 -2.96,0.95 -4.36,1.71 v -4.23 c 1.68,-0.65 3.31,-1.13 4.89,-1.46 1.57,-0.32 3.11,-0.48 4.6,-0.48 4.03,0 7.04,1.04 9.04,3.14 1.99,2.09 2.99,5.26 2.99,9.51 m 10.08,9.58 h 5.25 v 6.33 h -5.25 v -6.33"
     id="path1153" />
  <path
     class="Lyrics"
     d="m 1349.432,503.786 c -1.29,3.33 -2.55,5.49 -3.78,6.5 -1.23,1.01 -2.88,1.52 -4.94,1.52 h -3.65 v -3.83 h 2.68 c 1.26,0 2.24,-0.3 2.94,-0.9 0.7,-0.6 1.47,-2.01 2.33,-4.24 l 0.81,-2.09 -11.28,-27.44 h 4.86 l 8.72,21.81 8.72,-21.81 h 4.84 l -12.25,30.48 m 29.38,-27.26 c -2.46,0 -4.41,0.96 -5.83,2.87 -1.43,1.92 -2.14,4.55 -2.14,7.88 0,3.33 0.71,5.96 2.13,7.88 1.42,1.92 3.37,2.88 5.84,2.88 2.44,0 4.38,-0.96 5.81,-2.89 1.43,-1.92 2.14,-4.55 2.14,-7.87 0,-3.3 -0.71,-5.92 -2.14,-7.85 -1.43,-1.94 -3.37,-2.9 -5.81,-2.9 m 0,-3.89 c 3.99,0 7.12,1.29 9.39,3.88 2.27,2.59 3.4,6.18 3.4,10.76 0,4.56 -1.13,8.14 -3.4,10.74 -2.27,2.6 -5.4,3.9 -9.39,3.9 -4,0 -7.14,-1.3 -9.4,-3.9 -2.27,-2.6 -3.4,-6.18 -3.4,-10.74 0,-4.58 1.13,-8.17 3.4,-10.76 2.26,-2.59 5.4,-3.88 9.4,-3.88"
     id="path1155" />
  <path
     class="Lyrics"
     d="m 491.891,206.376 v 16.828 h -4.578 v -16.687 c 0,-2.635 -0.513,-4.609 -1.539,-5.922 -1.027,-1.312 -2.571,-1.969 -4.633,-1.969 -2.479,0 -4.433,0.789 -5.86,2.367 -1.427,1.579 -2.14,3.727 -2.14,6.446 v 15.765 h -4.61 v -38.75 h 4.61 v 15.188 c 1.093,-1.677 2.385,-2.93 3.875,-3.758 1.489,-0.828 3.203,-1.242 5.14,-1.242 3.209,0 5.633,0.992 7.274,2.976 1.64,1.985 2.461,4.904 2.461,8.758 m 21.812,2.813 c -3.708,0 -6.276,0.422 -7.703,1.265 -1.427,0.844 -2.141,2.287 -2.141,4.329 0,1.625 0.537,2.916 1.61,3.875 1.073,0.958 2.531,1.437 4.375,1.437 2.541,0 4.578,-0.901 6.109,-2.703 1.531,-1.802 2.297,-4.198 2.297,-7.188 v -1.015 h -4.547 m 9.141,-1.891 v 15.906 h -4.594 v -4.234 c -1.042,1.698 -2.344,2.948 -3.906,3.75 -1.563,0.802 -3.469,1.203 -5.719,1.203 -2.854,0 -5.125,-0.799 -6.812,-2.398 -1.688,-1.599 -2.532,-3.748 -2.532,-6.446 0,-3.135 1.05,-5.5 3.149,-7.093 2.099,-1.594 5.232,-2.391 9.398,-2.391 h 6.422 v -0.437 c 0,-2.115 -0.693,-3.748 -2.078,-4.899 -1.385,-1.151 -3.328,-1.726 -5.828,-1.726 -1.594,0 -3.146,0.19 -4.656,0.57 -1.511,0.38 -2.964,0.95 -4.36,1.711 v -4.235 c 1.677,-0.645 3.305,-1.13 4.883,-1.453 1.578,-0.323 3.112,-0.484 4.602,-0.484 4.031,0 7.044,1.047 9.039,3.141 1.994,2.093 2.992,5.265 2.992,9.515 m 21.031,18.5 c -1.292,3.323 -2.552,5.49 -3.781,6.5 -1.229,1.011 -2.875,1.516 -4.938,1.516 H 531.5 v -3.828 h 2.688 c 1.26,0 2.239,-0.3 2.937,-0.899 0.698,-0.599 1.474,-2.013 2.328,-4.242 l 0.813,-2.094 -11.282,-27.437 h 4.86 l 8.719,21.812 8.718,-21.812 h 4.844 l -12.25,30.484"
     id="path1157" />
  <path
     class="Lyrics"
     d="m 896.762,487.176 c -3.71,0 -6.28,0.43 -7.7,1.27 -1.43,0.84 -2.14,2.29 -2.14,4.33 0,1.62 0.53,2.92 1.6,3.87 1.08,0.96 2.54,1.44 4.38,1.44 2.54,0 4.58,-0.9 6.11,-2.7 1.53,-1.8 2.3,-4.2 2.3,-7.19 v -1.02 h -4.55 m 9.14,-1.89 v 15.91 h -4.59 v -4.23 c -1.05,1.69 -2.35,2.94 -3.91,3.75 -1.56,0.8 -3.47,1.2 -5.72,1.2 -2.85,0 -5.12,-0.8 -6.81,-2.4 -1.69,-1.6 -2.53,-3.75 -2.53,-6.44 0,-3.14 1.05,-5.5 3.15,-7.1 2.09,-1.59 5.23,-2.39 9.39,-2.39 h 6.43 v -0.44 c 0,-2.11 -0.7,-3.74 -2.08,-4.89 -1.39,-1.16 -3.33,-1.73 -5.83,-1.73 -1.59,0 -3.15,0.19 -4.66,0.57 -1.51,0.38 -2.96,0.95 -4.36,1.71 v -4.23 c 1.68,-0.65 3.31,-1.13 4.89,-1.46 1.58,-0.32 3.11,-0.48 4.6,-0.48 4.03,0 7.04,1.04 9.04,3.14 1.99,2.09 2.99,5.26 2.99,9.51 m 33.28,0.82 v 2.25 h -21.06 c 0.2,3.14 1.15,5.54 2.85,7.2 1.7,1.66 4.08,2.48 7.12,2.48 1.76,0 3.46,-0.21 5.11,-0.64 1.66,-0.44 3.29,-1.08 4.92,-1.95 v 4.33 c -1.65,0.7 -3.33,1.23 -5.06,1.59 -1.72,0.37 -3.47,0.55 -5.25,0.55 -4.45,0 -7.98,-1.3 -10.57,-3.88 -2.6,-2.59 -3.9,-6.09 -3.9,-10.51 0,-4.56 1.23,-8.19 3.69,-10.87 2.47,-2.68 5.79,-4.02 9.98,-4.02 3.75,0 6.72,1.21 8.9,3.62 2.18,2.42 3.27,5.7 3.27,9.85 m -4.58,-1.35 c -0.03,-2.51 -0.73,-4.51 -2.1,-6 -1.37,-1.49 -3.18,-2.23 -5.44,-2.23 -2.56,0 -4.6,0.72 -6.14,2.16 -1.53,1.45 -2.42,3.48 -2.65,6.1 l 16.33,-0.03"
     id="path1159" />
  <path
     class="Lyrics"
     d="m 828.522,225.798 c -1.29,3.323 -2.55,5.49 -3.78,6.5 -1.23,1.011 -2.88,1.516 -4.94,1.516 h -3.66 v -3.828 h 2.69 c 1.26,0 2.24,-0.3 2.94,-0.899 0.7,-0.599 1.47,-2.013 2.33,-4.242 l 0.81,-2.094 -11.28,-27.437 h 4.86 l 8.72,21.812 8.71,-21.812 h 4.85 l -12.25,30.484 m 29.37,-27.265 c -2.46,0 -4.4,0.958 -5.83,2.875 -1.42,1.916 -2.14,4.541 -2.14,7.875 0,3.333 0.71,5.96 2.14,7.882 1.42,1.922 3.36,2.883 5.83,2.883 2.45,0 4.39,-0.963 5.82,-2.89 1.42,-1.928 2.14,-4.553 2.14,-7.875 0,-3.303 -0.72,-5.92 -2.14,-7.852 -1.43,-1.932 -3.37,-2.898 -5.82,-2.898 m 0,-3.891 c 3.99,0 7.12,1.294 9.39,3.883 2.27,2.588 3.41,6.174 3.41,10.758 0,4.562 -1.14,8.143 -3.41,10.742 -2.27,2.599 -5.4,3.898 -9.39,3.898 -4,0 -7.13,-1.299 -9.4,-3.898 -2.26,-2.599 -3.39,-6.18 -3.39,-10.742 0,-4.584 1.13,-8.17 3.39,-10.758 2.27,-2.589 5.4,-3.883 9.4,-3.883"
     id="path1161" />
  <path
     class="Lyrics"
     d="m 730.962,503.786 c -1.29,3.33 -2.55,5.49 -3.78,6.5 -1.23,1.01 -2.87,1.52 -4.94,1.52 h -3.65 v -3.83 h 2.69 c 1.26,0 2.23,-0.3 2.93,-0.9 0.7,-0.6 1.48,-2.01 2.33,-4.24 l 0.81,-2.09 -11.28,-27.44 h 4.86 l 8.72,21.81 8.72,-21.81 h 4.84 l -12.25,30.48 m 29.38,-27.26 c -2.46,0 -4.4,0.96 -5.83,2.87 -1.43,1.92 -2.14,4.55 -2.14,7.88 0,3.33 0.71,5.96 2.13,7.88 1.42,1.92 3.37,2.88 5.84,2.88 2.45,0 4.38,-0.96 5.81,-2.89 1.43,-1.92 2.14,-4.55 2.14,-7.87 0,-3.3 -0.71,-5.92 -2.14,-7.85 -1.43,-1.94 -3.36,-2.9 -5.81,-2.9 m 0,-3.89 c 3.99,0 7.12,1.29 9.39,3.88 2.27,2.59 3.4,6.18 3.4,10.76 0,4.56 -1.13,8.14 -3.4,10.74 -2.27,2.6 -5.4,3.9 -9.39,3.9 -4,0 -7.13,-1.3 -9.4,-3.9 -2.27,-2.6 -3.4,-6.18 -3.4,-10.74 0,-4.58 1.13,-8.17 3.4,-10.76 2.27,-2.59 5.4,-3.88 9.4,-3.88"
     id="path1163" />
  <path
     class="Lyrics"
     d="m 988.792,209.189 c -3.71,0 -6.28,0.422 -7.7,1.265 -1.43,0.844 -2.14,2.287 -2.14,4.329 0,1.625 0.53,2.916 1.6,3.875 1.08,0.958 2.54,1.437 4.38,1.437 2.54,0 4.58,-0.901 6.11,-2.703 1.53,-1.802 2.3,-4.198 2.3,-7.188 v -1.015 h -4.55 m 9.14,-1.891 v 15.906 h -4.59 v -4.234 c -1.05,1.698 -2.35,2.948 -3.91,3.75 -1.56,0.802 -3.47,1.203 -5.72,1.203 -2.85,0 -5.12,-0.799 -6.81,-2.398 -1.69,-1.599 -2.53,-3.748 -2.53,-6.446 0,-3.135 1.05,-5.5 3.15,-7.093 2.09,-1.594 5.23,-2.391 9.39,-2.391 h 6.43 v -0.437 c 0,-2.115 -0.7,-3.748 -2.08,-4.899 -1.39,-1.151 -3.33,-1.726 -5.83,-1.726 -1.59,0 -3.15,0.19 -4.66,0.57 -1.51,0.38 -2.96,0.95 -4.36,1.711 v -4.235 c 1.68,-0.645 3.31,-1.13 4.89,-1.453 1.58,-0.323 3.11,-0.484 4.6,-0.484 4.03,0 7.04,1.047 9.04,3.141 1.99,2.093 2.99,5.265 2.99,9.515 m 33.28,0.813 v 2.25 h -21.06 c 0.2,3.146 1.15,5.547 2.85,7.203 1.7,1.656 4.08,2.484 7.12,2.484 1.76,0 3.46,-0.216 5.11,-0.648 1.66,-0.433 3.29,-1.081 4.92,-1.946 v 4.329 c -1.65,0.697 -3.33,1.229 -5.06,1.593 -1.72,0.365 -3.47,0.547 -5.25,0.547 -4.45,0 -7.98,-1.294 -10.57,-3.883 -2.6,-2.588 -3.9,-6.091 -3.9,-10.507 0,-4.563 1.23,-8.185 3.69,-10.868 2.47,-2.682 5.79,-4.023 9.98,-4.023 3.75,0 6.72,1.208 8.9,3.625 2.18,2.417 3.27,5.698 3.27,9.844 m -4.58,-1.344 c -0.03,-2.51 -0.73,-4.51 -2.1,-6 -1.37,-1.49 -3.18,-2.234 -5.44,-2.234 -2.56,0 -4.6,0.721 -6.14,2.164 -1.53,1.442 -2.42,3.476 -2.65,6.101 l 16.33,-0.031"
     id="path1165" />
  <path
     class="Lyrics"
     d="m 438.512,484.366 v 16.83 h -4.578 v -16.69 c 0,-2.63 -0.513,-4.61 -1.539,-5.92 -1.027,-1.31 -2.571,-1.97 -4.633,-1.97 -2.479,0 -4.433,0.79 -5.86,2.37 -1.427,1.58 -2.14,3.73 -2.14,6.44 v 15.77 h -4.61 v -38.75 h 4.61 v 15.19 c 1.093,-1.68 2.385,-2.93 3.875,-3.76 1.489,-0.83 3.203,-1.24 5.14,-1.24 3.209,0 5.633,0.99 7.274,2.97 1.64,1.99 2.461,4.91 2.461,8.76 m 21.812,2.81 c -3.708,0 -6.276,0.43 -7.703,1.27 -1.427,0.84 -2.141,2.29 -2.141,4.33 0,1.62 0.537,2.92 1.61,3.87 1.073,0.96 2.531,1.44 4.375,1.44 2.541,0 4.578,-0.9 6.109,-2.7 1.531,-1.8 2.297,-4.2 2.297,-7.19 v -1.02 h -4.547 m 9.141,-1.89 v 15.91 h -4.594 v -4.23 c -1.042,1.69 -2.344,2.94 -3.906,3.75 -1.563,0.8 -3.469,1.2 -5.719,1.2 -2.854,0 -5.125,-0.8 -6.812,-2.4 -1.688,-1.6 -2.532,-3.75 -2.532,-6.44 0,-3.14 1.05,-5.5 3.149,-7.1 2.099,-1.59 5.232,-2.39 9.398,-2.39 h 6.422 v -0.44 c 0,-2.11 -0.693,-3.74 -2.078,-4.89 -1.385,-1.16 -3.328,-1.73 -5.828,-1.73 -1.594,0 -3.146,0.19 -4.656,0.57 -1.511,0.38 -2.964,0.95 -4.36,1.71 v -4.23 c 1.677,-0.65 3.305,-1.13 4.883,-1.46 1.578,-0.32 3.112,-0.48 4.602,-0.48 4.031,0 7.044,1.04 9.039,3.14 1.994,2.09 2.992,5.26 2.992,9.51 m 21.031,18.5 c -1.292,3.33 -2.552,5.49 -3.781,6.5 -1.229,1.01 -2.875,1.52 -4.938,1.52 h -3.656 v -3.83 h 2.688 c 1.26,0 2.239,-0.3 2.937,-0.9 0.698,-0.6 1.474,-2.01 2.328,-4.24 l 0.813,-2.09 -11.282,-27.44 h 4.86 l 8.719,21.81 8.718,-21.81 h 4.844 l -12.25,30.48"
     id="path1167" />
  <path
     class="Lyrics"
     d="m 1437.732,206.376 v 16.828 h -4.58 v -16.687 c 0,-2.635 -0.51,-4.609 -1.54,-5.922 -1.03,-1.312 -2.57,-1.969 -4.63,-1.969 -2.48,0 -4.44,0.789 -5.86,2.367 -1.43,1.579 -2.14,3.727 -2.14,6.446 v 15.765 h -4.61 v -38.75 h 4.61 v 15.188 c 1.09,-1.677 2.38,-2.93 3.87,-3.758 1.49,-0.828 3.2,-1.242 5.14,-1.242 3.21,0 5.64,0.992 7.28,2.976 1.64,1.985 2.46,4.904 2.46,8.758 m 21.81,2.813 c -3.71,0 -6.28,0.422 -7.7,1.265 -1.43,0.844 -2.14,2.287 -2.14,4.329 0,1.625 0.53,2.916 1.6,3.875 1.08,0.958 2.54,1.437 4.38,1.437 2.54,0 4.58,-0.901 6.11,-2.703 1.53,-1.802 2.3,-4.198 2.3,-7.188 v -1.015 h -4.55 m 9.14,-1.891 v 15.906 h -4.59 v -4.234 c -1.05,1.698 -2.35,2.948 -3.91,3.75 -1.56,0.802 -3.47,1.203 -5.72,1.203 -2.85,0 -5.12,-0.799 -6.81,-2.398 -1.69,-1.599 -2.53,-3.748 -2.53,-6.446 0,-3.135 1.05,-5.5 3.15,-7.093 2.09,-1.594 5.23,-2.391 9.39,-2.391 h 6.43 v -0.437 c 0,-2.115 -0.7,-3.748 -2.08,-4.899 -1.39,-1.151 -3.33,-1.726 -5.83,-1.726 -1.59,0 -3.15,0.19 -4.66,0.57 -1.51,0.38 -2.96,0.95 -4.36,1.711 v -4.235 c 1.68,-0.645 3.31,-1.13 4.89,-1.453 1.58,-0.323 3.11,-0.484 4.6,-0.484 4.03,0 7.04,1.047 9.04,3.141 1.99,2.093 2.99,5.265 2.99,9.515"
     id="path1169" />
  <path
     class="Lyrics"
     d="m 180.606,464.026 h 5.391 l 10.312,15.28 10.235,-15.28 h 5.406 l -13.141,19.47 v 17.7 h -5.062 v -17.7 l -13.141,-19.47 m 41.703,23.15 c -3.708,0 -6.276,0.43 -7.703,1.27 -1.427,0.84 -2.14,2.29 -2.14,4.33 0,1.62 0.536,2.92 1.609,3.87 1.073,0.96 2.531,1.44 4.375,1.44 2.542,0 4.578,-0.9 6.109,-2.7 1.532,-1.8 2.297,-4.2 2.297,-7.19 v -1.02 h -4.547 m 9.141,-1.89 v 15.91 h -4.594 v -4.23 c -1.041,1.69 -2.343,2.94 -3.906,3.75 -1.562,0.8 -3.469,1.2 -5.719,1.2 -2.854,0 -5.125,-0.8 -6.812,-2.4 -1.688,-1.6 -2.531,-3.75 -2.531,-6.44 0,-3.14 1.049,-5.5 3.148,-7.1 2.099,-1.59 5.232,-2.39 9.398,-2.39 h 6.422 v -0.44 c 0,-2.11 -0.692,-3.74 -2.078,-4.89 -1.385,-1.16 -3.328,-1.73 -5.828,-1.73 -1.594,0 -3.146,0.19 -4.656,0.57 -1.511,0.38 -2.964,0.95 -4.36,1.71 v -4.23 c 1.678,-0.65 3.305,-1.13 4.883,-1.46 1.578,-0.32 3.112,-0.48 4.602,-0.48 4.031,0 7.044,1.04 9.039,3.14 1.995,2.09 2.992,5.26 2.992,9.51"
     id="path1171" />
  <path
     class="Lyrics"
     d="m 1677.252,199.595 c -0.51,-0.302 -1.07,-0.523 -1.68,-0.664 -0.61,-0.141 -1.28,-0.211 -2.01,-0.211 -2.59,0 -4.58,0.844 -5.96,2.531 -1.39,1.688 -2.08,4.11 -2.08,7.266 v 14.687 h -4.61 v -27.89 h 4.61 v 4.328 c 0.97,-1.688 2.22,-2.943 3.76,-3.766 1.54,-0.823 3.42,-1.234 5.63,-1.234 0.31,0 0.66,0.021 1.04,0.062 0.39,0.042 0.81,0.105 1.27,0.188 l 0.03,4.703 m 17.47,9.594 c -3.71,0 -6.28,0.422 -7.7,1.265 -1.43,0.844 -2.14,2.287 -2.14,4.329 0,1.625 0.53,2.916 1.61,3.875 1.07,0.958 2.53,1.437 4.37,1.437 2.54,0 4.58,-0.901 6.11,-2.703 1.53,-1.802 2.3,-4.198 2.3,-7.188 v -1.015 h -4.55 m 9.14,-1.891 v 15.906 h -4.59 v -4.234 c -1.04,1.698 -2.35,2.948 -3.91,3.75 -1.56,0.802 -3.47,1.203 -5.72,1.203 -2.85,0 -5.12,-0.799 -6.81,-2.398 -1.69,-1.599 -2.53,-3.748 -2.53,-6.446 0,-3.135 1.05,-5.5 3.15,-7.093 2.1,-1.594 5.23,-2.391 9.4,-2.391 h 6.42 v -0.437 c 0,-2.115 -0.7,-3.748 -2.08,-4.899 -1.39,-1.151 -3.33,-1.726 -5.83,-1.726 -1.59,0 -3.15,0.19 -4.66,0.57 -1.51,0.38 -2.96,0.95 -4.35,1.711 v -4.235 c 1.67,-0.645 3.3,-1.13 4.88,-1.453 1.58,-0.323 3.11,-0.484 4.6,-0.484 4.03,0 7.04,1.047 9.04,3.141 1.99,2.093 2.99,5.265 2.99,9.515"
     id="path1173" />
  <path
     class="Lyrics"
     d="m 1843.092,198.533 c -2.46,0 -4.41,0.958 -5.83,2.875 -1.43,1.916 -2.14,4.541 -2.14,7.875 0,3.333 0.71,5.96 2.13,7.882 1.42,1.922 3.37,2.883 5.84,2.883 2.44,0 4.38,-0.963 5.81,-2.89 1.42,-1.928 2.14,-4.553 2.14,-7.875 0,-3.303 -0.72,-5.92 -2.14,-7.852 -1.43,-1.932 -3.37,-2.898 -5.81,-2.898 m 0,-3.891 c 3.98,0 7.12,1.294 9.39,3.883 2.27,2.588 3.4,6.174 3.4,10.758 0,4.562 -1.13,8.143 -3.4,10.742 -2.27,2.599 -5.41,3.898 -9.39,3.898 -4,0 -7.14,-1.299 -9.4,-3.898 -2.27,-2.599 -3.4,-6.18 -3.4,-10.742 0,-4.584 1.13,-8.17 3.4,-10.758 2.26,-2.589 5.4,-3.883 9.4,-3.883"
     id="path1175" />
  <polyline
     class="LyricsLineSegment"
     fill="none"
     stroke="#000000"
     stroke-width="2.48"
     stroke-linejoin="bevel"
     points="894.984,806.558 997.43,806.558"
     id="polyline1177"
     transform="translate(-336.598,-584.594)" />
</svg>
