<?xml version="1.0" encoding="UTF-8" standalone="no"?>
<svg width="3060px" height="3960px" viewBox="0 0 3060 3960"
 xmlns="http://www.w3.org/2000/svg" xmlns:xlink="http://www.w3.org/1999/xlink" version="1.2" baseProfile="tiny">
<title>illustration-1</title>
<desc>Generated by MuseScore 4.0.1</desc>
<path class="" fill="#ffffff" fill-rule="evenodd" d="M0,0 L3060,0 L3060,3960 L0,3960 L0,0 "/>
<polyline class="StaffLines" fill="none" stroke="#000000" stroke-width="2.73" stroke-linejoin="bevel" points="336.598,634.198 2847.4,634.198"/>
<polyline class="StaffLines" fill="none" stroke="#000000" stroke-width="2.73" stroke-linejoin="bevel" points="336.598,658.998 2847.4,658.998"/>
<polyline class="StaffLines" fill="none" stroke="#000000" stroke-width="2.73" stroke-linejoin="bevel" points="336.598,683.798 2847.4,683.798"/>
<polyline class="StaffLines" fill="none" stroke="#000000" stroke-width="2.73" stroke-linejoin="bevel" points="336.598,708.598 2847.4,708.598"/>
<polyline class="StaffLines" fill="none" stroke="#000000" stroke-width="2.73" stroke-linejoin="bevel" points="336.598,733.398 2847.4,733.398"/>
<polyline class="StaffLines" fill="none" stroke="#000000" stroke-width="2.73" stroke-linejoin="bevel" points="336.598,906.998 2847.4,906.998"/>
<polyline class="StaffLines" fill="none" stroke="#000000" stroke-width="2.73" stroke-linejoin="bevel" points="336.598,931.798 2847.4,931.798"/>
<polyline class="StaffLines" fill="none" stroke="#000000" stroke-width="2.73" stroke-linejoin="bevel" points="336.598,956.598 2847.4,956.598"/>
<polyline class="StaffLines" fill="none" stroke="#000000" stroke-width="2.73" stroke-linejoin="bevel" points="336.598,981.398 2847.4,981.398"/>
<polyline class="StaffLines" fill="none" stroke="#000000" stroke-width="2.73" stroke-linejoin="bevel" points="336.598,1006.2 2847.4,1006.2"/>
<path class="Text" d="M237.895,213.192 L236.052,213.192 L234.052,216.192 C231.645,213.942 228.505,212.739 224.942,212.739 C218.348,212.739 214.005,216.895 214.005,223.192 C214.005,228.645 216.692,231.348 224.052,233.255 L228.802,234.442 C232.505,235.395 232.848,235.505 233.895,236.302 C235.395,237.442 236.208,239.098 236.208,241.052 C236.208,243.052 235.442,244.692 233.942,246.098 C232.302,247.505 230.645,248.052 227.895,248.052 C220.348,248.052 216.598,242.505 215.302,235.755 L213.145,235.755 L213.348,250.005 L215.302,250.005 L217.552,246.598 C220.895,249.348 223.645,250.348 228.052,250.348 C235.395,250.348 240.098,246.052 240.098,239.348 C240.098,236.192 239.098,233.598 237.098,231.692 C235.755,230.395 233.802,229.552 229.802,228.552 L224.442,227.192 C220.005,226.052 217.895,224.098 217.895,221.052 C217.895,217.552 220.755,215.145 225.005,215.145 C231.442,215.145 235.005,220.489 236.348,226.192 L238.505,226.192 L237.895,213.192 M261.927,242.255 C260.333,245.848 258.63,247.302 256.036,247.302 C252.036,247.302 249.536,243.645 249.536,237.802 C249.536,231.692 251.989,227.692 255.677,227.692 C257.177,227.692 258.489,228.395 258.489,229.192 C258.489,229.348 258.427,229.505 258.177,229.802 C257.38,230.755 257.177,231.255 257.177,232.098 C257.177,233.755 258.427,234.895 260.177,234.895 C261.989,234.895 263.239,233.505 263.239,231.505 C263.239,228.098 259.88,225.552 255.427,225.552 C248.927,225.552 244.286,230.848 244.286,238.348 C244.286,245.442 248.536,250.348 254.739,250.348 C259.177,250.348 261.739,248.302 263.88,243.005 L261.927,242.255 M277.317,225.552 C271.177,225.552 266.427,231.005 266.427,238.005 C266.427,244.848 271.223,250.348 277.223,250.348 C283.223,250.348 288.02,244.848 288.02,237.942 C288.02,231.098 283.223,225.552 277.317,225.552 M277.317,227.692 C280.817,227.692 282.77,231.348 282.77,237.942 C282.77,244.598 280.817,248.192 277.223,248.192 C273.63,248.192 271.677,244.598 271.677,238.005 C271.677,231.192 273.567,227.692 277.317,227.692 M299.614,226.302 L290.755,226.848 L290.755,229.005 L292.802,229.005 C294.708,229.052 294.958,229.348 294.958,231.505 L294.958,245.802 C294.911,246.552 294.864,246.848 294.661,247.098 C294.302,247.552 293.302,247.755 291.161,247.802 L290.958,247.802 L290.958,249.598 L304.302,249.598 L304.302,247.802 L303.411,247.802 C300.052,247.692 299.614,247.442 299.614,245.645 L299.614,242.942 C299.661,234.552 302.661,228.145 306.552,227.942 C305.864,228.755 305.661,229.255 305.661,230.192 C305.661,231.802 306.802,232.942 308.411,232.942 C310.255,232.942 311.458,231.598 311.458,229.598 C311.458,227.145 309.755,225.552 307.114,225.552 C303.958,225.552 301.255,228.052 299.614,232.505 L299.614,226.302 M334.848,238.348 C334.895,230.848 330.645,225.552 324.552,225.552 C318.145,225.552 313.348,231.098 313.348,238.598 C313.348,245.645 317.895,250.348 324.645,250.348 C329.442,250.348 332.802,248.005 334.848,243.255 L333.098,242.302 C331.052,246.145 328.942,247.645 325.598,247.645 C323.052,247.645 321.192,246.598 319.895,244.348 C319.005,242.848 318.598,241.098 318.645,238.348 L334.848,238.348 M318.692,236.192 C318.692,232.692 320.302,227.692 324.505,227.692 C327.505,227.692 329.505,230.348 329.505,234.395 C329.505,235.802 329.052,236.192 327.442,236.192 L318.692,236.192 "/>
<path class="Text" d="M1112,395.899 L1113.54,395.899 L1115.71,383.368 C1115.79,383.008 1115.79,382.587 1115.79,382.243 C1115.79,380.493 1114.52,379.227 1112.77,379.227 C1111.02,379.227 1109.75,380.493 1109.75,382.243 C1109.75,382.587 1109.75,382.946 1109.83,383.368 L1112,395.899 M1124.68,395.899 L1126.21,395.899 L1128.38,383.368 C1128.46,382.946 1128.46,382.587 1128.46,382.243 C1128.46,380.493 1127.19,379.227 1125.44,379.227 C1123.69,379.227 1122.43,380.493 1122.43,382.243 C1122.43,382.665 1122.43,382.946 1122.5,383.368 L1124.68,395.899 M1176.4,380.212 L1134.74,380.212 L1134.74,383.508 L1136,383.508 C1139.99,383.571 1141.32,383.79 1141.88,384.477 C1142.3,385.118 1142.3,385.258 1142.3,388.821 L1142.3,422.149 C1142.3,425.712 1142.3,425.852 1141.88,426.493 C1141.32,427.18 1139.99,427.462 1136,427.462 L1134.74,427.462 L1134.74,430.758 L1158.75,430.758 L1158.75,427.462 L1156.44,427.462 C1152.44,427.462 1151.11,427.18 1150.57,426.493 C1150.15,425.852 1150.15,425.649 1150.15,422.149 L1150.15,406.258 L1151.54,406.258 C1158.75,405.977 1161.35,408.571 1161.61,416.337 L1164.91,416.337 L1164.91,393.368 L1161.61,393.368 C1161.21,400.243 1158.47,402.899 1151.82,402.962 L1150.15,402.962 L1150.15,387.008 C1150.07,384.071 1150.77,383.571 1154.55,383.508 L1157.77,383.508 C1169.25,383.43 1172.13,386.024 1174.29,398.071 L1177.38,398.071 L1176.4,380.212 M1207.05,379.165 C1192.27,379.165 1182.69,391.274 1182.69,405.555 C1182.69,419.493 1192.27,431.805 1206.77,431.805 C1220.49,431.805 1230.85,420.462 1230.85,405.493 C1230.85,390.649 1220.49,379.165 1207.05,379.165 M1206.97,382.446 C1211.68,382.446 1215.58,384.618 1218.11,388.477 C1220.71,392.602 1221.61,396.868 1221.61,405.493 C1221.61,414.024 1220.71,418.29 1218.11,422.493 C1215.58,426.415 1211.74,428.524 1206.77,428.524 C1201.8,428.524 1197.94,426.493 1195.43,422.493 C1192.77,418.29 1191.93,414.024 1191.93,405.352 C1191.93,396.868 1192.83,392.68 1195.43,388.477 C1198.02,384.415 1201.72,382.446 1206.97,382.446 M1279.21,411.571 L1276.13,411.571 C1273.82,424.18 1270.68,427.258 1259.82,427.462 L1256.88,427.462 C1252.68,427.321 1251.63,426.633 1251.85,424.102 L1251.85,388.821 C1251.85,385.321 1251.85,385.118 1252.25,384.477 C1252.82,383.79 1254.15,383.571 1258.15,383.508 L1259.4,383.508 L1259.4,380.212 L1236.44,380.212 L1236.44,383.508 L1237.69,383.508 C1241.69,383.571 1243.02,383.79 1243.58,384.477 C1244,385.118 1244,385.258 1244,388.821 L1244,422.149 C1244,425.712 1244,425.852 1243.58,426.493 C1243.02,427.18 1241.69,427.462 1237.69,427.462 L1236.44,427.462 L1236.44,430.758 L1277.74,430.758 L1279.21,411.571 M1325.9,411.571 L1322.82,411.571 C1320.5,424.18 1317.36,427.258 1306.5,427.462 L1303.57,427.462 C1299.36,427.321 1298.32,426.633 1298.54,424.102 L1298.54,388.821 C1298.54,385.321 1298.54,385.118 1298.94,384.477 C1299.5,383.79 1300.83,383.571 1304.83,383.508 L1306.08,383.508 L1306.08,380.212 L1283.13,380.212 L1283.13,383.508 L1284.38,383.508 C1288.38,383.571 1289.71,383.79 1290.27,384.477 C1290.69,385.118 1290.69,385.258 1290.69,388.821 L1290.69,422.149 C1290.69,425.712 1290.69,425.852 1290.27,426.493 C1289.71,427.18 1288.38,427.462 1284.38,427.462 L1283.13,427.462 L1283.13,430.758 L1324.43,430.758 L1325.9,411.571 M1355.3,379.165 C1340.52,379.165 1330.94,391.274 1330.94,405.555 C1330.94,419.493 1340.52,431.805 1355.02,431.805 C1368.74,431.805 1379.1,420.462 1379.1,405.493 C1379.1,390.649 1368.74,379.165 1355.3,379.165 M1355.22,382.446 C1359.93,382.446 1363.83,384.618 1366.36,388.477 C1368.96,392.602 1369.86,396.868 1369.86,405.493 C1369.86,414.024 1368.96,418.29 1366.36,422.493 C1363.83,426.415 1359.99,428.524 1355.02,428.524 C1350.05,428.524 1346.19,426.493 1343.68,422.493 C1341.02,418.29 1340.18,414.024 1340.18,405.352 C1340.18,396.868 1341.08,392.68 1343.68,388.477 C1346.27,384.415 1349.97,382.446 1355.22,382.446 M1403.6,418.024 L1393.5,386.649 C1393.3,385.946 1393.16,385.258 1393.16,384.899 C1393.16,383.852 1393.93,383.508 1396.18,383.508 L1399.32,383.508 L1399.32,380.212 L1379.58,380.212 L1379.58,383.508 L1380.91,383.508 C1383.93,383.508 1384.27,383.79 1385.11,386.227 L1400.24,431.805 L1403.24,431.805 L1413.6,397.008 L1424.94,431.805 L1427.82,431.805 L1440.13,390.712 C1441.61,385.321 1443.22,383.649 1447.21,383.508 L1447.49,383.508 L1447.49,380.212 L1430.33,380.212 L1430.33,383.508 L1430.9,383.508 C1434.96,383.508 1436.91,384.696 1436.91,387.149 C1436.91,387.837 1436.77,388.821 1436.5,389.587 L1428.1,418.024 L1418.44,387.352 C1417.94,385.946 1417.94,385.883 1417.94,385.399 C1417.94,384.758 1418.36,384.133 1418.99,383.852 C1419.77,383.571 1420.25,383.508 1422.99,383.508 L1424.1,383.508 L1424.1,380.212 L1403.88,380.212 L1403.88,383.508 L1405.49,383.508 C1408.49,383.571 1409.33,383.993 1409.9,385.68 L1411.71,391.133 L1403.6,418.024 M1487.36,380.212 L1469.3,380.212 L1469.3,383.508 L1470.63,383.508 C1474.61,383.571 1475.96,383.79 1476.44,384.477 C1476.93,385.118 1476.93,385.18 1476.93,388.821 L1476.93,415.633 C1476.93,425.165 1475.6,427.118 1468.82,427.462 L1468.82,430.758 L1488.77,430.758 L1488.77,427.462 C1482.04,427.118 1480.71,425.165 1480.71,415.633 L1480.71,384.696 L1497.38,430.758 L1500.18,430.758 L1515.79,384.696 L1515.79,422.149 C1515.79,425.712 1515.79,425.852 1515.36,426.555 C1514.8,427.258 1513.47,427.462 1509.49,427.462 L1508.22,427.462 L1508.22,430.758 L1531.19,430.758 L1531.19,427.462 L1529.93,427.462 C1525.94,427.462 1524.61,427.258 1524.05,426.555 C1523.63,425.852 1523.63,425.79 1523.63,422.149 L1523.63,388.821 C1523.63,385.258 1523.63,385.118 1524.05,384.477 C1524.61,383.79 1525.94,383.571 1529.93,383.508 L1531.19,383.508 L1531.19,380.212 L1513.61,380.212 L1500.8,417.524 L1487.36,380.212 M1563.04,405.758 L1551.27,386.79 C1550.71,385.946 1550.5,385.321 1550.5,384.837 C1550.5,383.93 1551.35,383.508 1553.24,383.508 L1557.36,383.508 L1557.36,380.212 L1534.9,380.212 L1534.9,383.508 L1536.43,383.508 C1539.58,383.571 1540.43,383.993 1542.1,386.727 L1557.22,410.665 L1557.22,422.149 C1557.22,425.712 1557.22,425.852 1556.8,426.493 C1556.24,427.18 1554.91,427.462 1550.93,427.462 L1549.1,427.462 L1549.1,430.758 L1573.11,430.758 L1573.11,427.462 L1571.3,427.462 C1567.3,427.399 1566.05,427.18 1565.49,426.493 C1565.07,425.852 1565.07,425.79 1565.07,422.149 L1565.07,409.821 L1575.49,390.993 C1578.5,385.399 1580.68,383.712 1585.16,383.508 L1585.72,383.508 L1585.72,380.212 L1565.83,380.212 L1565.83,383.508 L1567.44,383.508 C1571.22,383.508 1572.83,384.415 1572.83,386.649 C1572.83,387.712 1572.41,389.102 1571.71,390.29 L1563.04,405.758 M1649.74,411.571 L1646.66,411.571 C1644.35,424.18 1641.21,427.258 1630.35,427.462 L1627.41,427.462 C1623.21,427.321 1622.16,426.633 1622.38,424.102 L1622.38,388.821 C1622.38,385.321 1622.38,385.118 1622.79,384.477 C1623.35,383.79 1624.68,383.571 1628.68,383.508 L1629.93,383.508 L1629.93,380.212 L1606.97,380.212 L1606.97,383.508 L1608.22,383.508 C1612.22,383.571 1613.55,383.79 1614.11,384.477 C1614.54,385.118 1614.54,385.258 1614.54,388.821 L1614.54,422.149 C1614.54,425.712 1614.54,425.852 1614.11,426.493 C1613.55,427.18 1612.22,427.462 1608.22,427.462 L1606.97,427.462 L1606.97,430.758 L1648.27,430.758 L1649.74,411.571 M1695.32,380.212 L1653.24,380.212 L1653.24,383.508 L1654.5,383.508 C1658.49,383.571 1659.82,383.79 1660.38,384.477 C1660.8,385.118 1660.8,385.258 1660.8,388.821 L1660.8,422.149 C1660.8,425.712 1660.8,425.852 1660.38,426.493 C1659.82,427.18 1658.49,427.462 1654.5,427.462 L1653.24,427.462 L1653.24,430.758 L1696.22,430.758 L1697.63,412.071 L1694.54,412.071 C1691.88,424.524 1689,427.18 1678.3,427.462 L1673.68,427.462 C1669.47,427.321 1668.43,426.633 1668.65,424.102 L1668.65,406.258 L1670.04,406.258 C1677.25,405.977 1679.85,408.571 1680.11,416.337 L1683.41,416.337 L1683.41,393.368 L1680.11,393.368 C1679.71,400.243 1676.97,402.962 1670.32,402.962 L1668.65,402.962 L1668.65,387.008 C1668.57,384.071 1669.27,383.571 1673.05,383.508 L1676.69,383.508 C1688.18,383.43 1691.04,385.946 1693.29,398.071 L1696.29,398.071 L1695.32,380.212 M1728.97,379.227 L1726.02,379.227 L1709.93,420.04 C1708.04,425.508 1706.21,427.18 1702.22,427.462 L1701.94,427.462 L1701.94,430.758 L1720.49,430.758 L1720.49,427.462 L1719.1,427.462 C1715.32,427.462 1713.43,426.133 1713.43,423.477 C1713.43,422.571 1713.63,421.727 1714.05,420.54 L1716.36,414.383 L1734.91,414.383 L1738.69,423.758 C1739.11,424.883 1739.25,425.305 1739.25,425.649 C1739.25,426.774 1737.5,427.462 1734.91,427.462 L1731.97,427.462 L1731.97,430.758 L1753.68,430.758 L1753.68,427.462 L1752.69,427.462 C1749.07,427.399 1748.43,426.977 1746.82,422.993 L1728.97,379.227 M1725.54,390.712 L1733.44,410.602 L1717.77,410.602 L1725.54,390.712 M1755.07,430.758 L1778.58,430.758 C1784.82,430.758 1789.58,429.774 1793.29,427.68 C1800.36,423.68 1804.29,415.712 1804.29,405.212 C1804.29,395.54 1800.79,387.977 1794.33,383.79 C1790.49,381.337 1785.3,380.212 1777.33,380.212 L1755.07,380.212 L1755.07,383.508 L1756.4,383.508 C1760.32,383.571 1761.65,383.79 1762.21,384.477 C1762.63,385.118 1762.63,385.258 1762.63,388.821 L1762.63,422.149 C1762.63,425.712 1762.63,425.852 1762.21,426.493 C1761.65,427.18 1760.32,427.399 1756.4,427.462 L1755.07,427.462 L1755.07,430.758 M1774.46,427.462 C1770.9,427.462 1770.47,427.055 1770.47,423.618 L1770.47,387.43 C1770.47,383.993 1770.96,383.508 1774.46,383.508 L1778.1,383.508 C1790.07,383.508 1795.04,390.008 1795.04,405.493 C1795.04,421.165 1790.57,427.462 1779.22,427.462 L1774.46,427.462 M1850.05,380.212 L1807.97,380.212 L1807.97,383.508 L1809.24,383.508 C1813.22,383.571 1814.55,383.79 1815.11,384.477 C1815.54,385.118 1815.54,385.258 1815.54,388.821 L1815.54,422.149 C1815.54,425.712 1815.54,425.852 1815.11,426.493 C1814.55,427.18 1813.22,427.462 1809.24,427.462 L1807.97,427.462 L1807.97,430.758 L1850.96,430.758 L1852.36,412.071 L1849.27,412.071 C1846.61,424.524 1843.74,427.18 1833.04,427.462 L1828.41,427.462 C1824.21,427.321 1823.16,426.633 1823.38,424.102 L1823.38,406.258 L1824.77,406.258 C1831.99,405.977 1834.58,408.571 1834.85,416.337 L1838.15,416.337 L1838.15,393.368 L1834.85,393.368 C1834.44,400.243 1831.71,402.962 1825.05,402.962 L1823.38,402.962 L1823.38,387.008 C1823.3,384.071 1824,383.571 1827.79,383.508 L1831.43,383.508 C1842.91,383.43 1845.77,385.946 1848.02,398.071 L1851.02,398.071 L1850.05,380.212 M1873.69,406.258 L1877.75,406.258 C1884.83,406.54 1887.63,409.399 1888.4,417.102 L1888.74,420.68 C1889.58,428.587 1892.18,431.805 1897.71,431.805 C1903.44,431.805 1906.18,427.962 1906.4,419.555 L1903.44,419.555 C1903.16,424.383 1902.33,426.493 1900.44,426.493 C1898.83,426.493 1898.13,425.305 1896.94,420.462 L1895.82,416.055 C1894.27,409.618 1891.55,406.68 1886.08,405.274 C1896.16,403.868 1901,399.821 1901,392.743 C1901,384.758 1894.27,380.212 1882.52,380.212 L1858.29,380.212 L1858.29,383.508 L1859.55,383.508 C1863.55,383.571 1864.88,383.79 1865.44,384.477 C1865.85,385.118 1865.85,385.258 1865.85,388.821 L1865.85,422.212 C1865.85,425.712 1865.85,425.852 1865.44,426.555 C1864.88,427.258 1863.55,427.462 1859.55,427.462 L1858.29,427.462 L1858.29,430.758 L1881.25,430.758 L1881.25,427.462 L1879.99,427.462 C1876,427.462 1874.68,427.258 1874.11,426.555 C1873.69,425.852 1873.69,425.712 1873.69,422.212 L1873.69,406.258 M1873.69,402.962 L1873.69,387.571 C1873.55,383.712 1873.91,383.43 1878.52,383.508 L1882.3,383.508 C1889.24,383.508 1892.38,386.446 1892.38,392.821 C1892.38,400.165 1888.47,402.962 1881.4,402.962 L1873.69,402.962 M1916.6,422.993 C1914.15,422.993 1912.19,424.946 1912.19,427.321 C1912.19,429.774 1914.15,431.743 1916.52,431.743 C1918.97,431.743 1920.94,429.774 1920.94,427.321 C1920.94,424.946 1918.97,422.993 1916.6,422.993 M1932.97,395.899 L1934.5,395.899 L1936.68,383.368 C1936.75,383.008 1936.75,382.587 1936.75,382.243 C1936.75,380.493 1935.49,379.227 1933.74,379.227 C1931.99,379.227 1930.72,380.493 1930.72,382.243 C1930.72,382.587 1930.72,382.946 1930.8,383.368 L1932.97,395.899 M1945.65,395.899 L1947.18,395.899 L1949.35,383.368 C1949.43,382.946 1949.43,382.587 1949.43,382.243 C1949.43,380.493 1948.16,379.227 1946.41,379.227 C1944.66,379.227 1943.4,380.493 1943.4,382.243 C1943.4,382.665 1943.4,382.946 1943.47,383.368 L1945.65,395.899 "/>
<path class="Text" d="M1060.79,221.851 L1056.6,221.851 L1052.19,228.335 C1044.18,222.507 1040.1,220.96 1032.5,220.96 C1022.05,220.96 1013.15,225.367 1005.79,234.163 C998.739,242.523 995.442,251.773 995.442,263.101 C995.442,286.851 1010.94,303.695 1032.61,303.695 C1050.22,303.695 1061.44,293.351 1063.97,274.867 L1058.8,273.992 C1055.83,290.382 1047.47,298.523 1033.94,298.523 C1017.66,298.523 1009.96,287.304 1009.96,263.538 C1009.96,250.992 1011.61,242.742 1015.35,236.148 C1018.75,229.992 1025.47,226.132 1032.61,226.132 C1040.32,226.132 1047.15,230.21 1051.32,237.242 C1053.41,240.882 1054.94,244.945 1057.58,253.632 L1062.43,253.632 L1060.79,221.851 M1133.04,263.867 L1133.04,288.507 C1133.04,294.117 1133.04,294.335 1132.38,295.335 C1131.5,296.429 1129.41,296.867 1123.15,296.867 L1121.16,296.867 L1121.16,302.038 L1157.24,302.038 L1157.24,296.867 L1155.25,296.867 C1148.99,296.867 1146.9,296.429 1146.02,295.335 C1145.36,294.335 1145.36,294.226 1145.36,288.507 L1145.36,236.148 C1145.36,230.429 1145.36,230.32 1146.02,229.335 C1147,228.117 1148.99,227.788 1155.25,227.788 L1157.24,227.788 L1157.24,222.617 L1121.6,222.617 L1121.6,227.788 L1123.15,227.788 C1129.41,227.788 1131.4,228.117 1132.38,229.335 C1133.04,230.32 1133.04,230.538 1133.04,236.148 L1133.04,257.929 L1096.19,257.929 L1096.19,236.148 C1096.19,230.538 1096.19,230.32 1096.96,229.335 C1097.85,228.117 1099.82,227.788 1106.1,227.788 L1108.18,227.788 L1108.18,222.617 L1071.99,222.617 L1071.99,227.788 L1073.97,227.788 C1080.24,227.788 1082.22,228.117 1083.21,229.335 C1083.86,230.32 1083.86,230.538 1083.86,236.148 L1083.86,288.507 C1083.86,294.007 1083.86,294.335 1083.21,295.335 C1082.33,296.429 1080.24,296.867 1073.97,296.867 L1071.99,296.867 L1071.99,302.038 L1108.18,302.038 L1108.18,296.867 L1106.1,296.867 C1099.82,296.757 1097.85,296.429 1096.96,295.335 C1096.19,294.335 1096.19,294.117 1096.19,288.507 L1096.19,263.867 L1133.04,263.867 M1165.82,227.788 L1168,227.788 C1174.29,227.898 1176.36,228.226 1177.25,229.335 C1177.91,230.32 1177.91,230.648 1177.91,236.148 L1177.91,288.507 C1177.91,294.007 1177.91,294.335 1177.25,295.335 C1176.36,296.429 1174.29,296.867 1168,296.867 L1165.82,296.867 L1165.82,302.038 L1202.22,302.038 L1202.22,296.867 L1200.02,296.867 C1193.86,296.867 1191.77,296.538 1190.9,295.335 C1190.22,294.335 1190.22,294.117 1190.22,288.507 L1190.22,236.148 C1190.22,230.538 1190.22,230.32 1190.9,229.335 C1191.77,228.226 1193.75,227.898 1200.02,227.788 L1202.22,227.788 L1202.22,222.617 L1165.82,222.617 L1165.82,227.788 M1277.46,271.898 L1272.61,271.898 C1268.99,291.695 1264.04,296.538 1246.99,296.867 L1242.36,296.867 C1235.77,296.648 1234.11,295.554 1234.44,291.585 L1234.44,236.148 C1234.44,230.648 1234.44,230.32 1235.1,229.335 C1235.99,228.226 1238.08,227.898 1244.35,227.788 L1246.33,227.788 L1246.33,222.617 L1210.24,222.617 L1210.24,227.788 L1212.22,227.788 C1218.49,227.898 1220.58,228.226 1221.46,229.335 C1222.13,230.32 1222.13,230.538 1222.13,236.148 L1222.13,288.507 C1222.13,294.117 1222.13,294.335 1221.46,295.335 C1220.58,296.429 1218.49,296.867 1212.22,296.867 L1210.24,296.867 L1210.24,302.038 L1275.15,302.038 L1277.46,271.898 M1282.94,302.038 L1319.91,302.038 C1329.69,302.038 1337.18,300.492 1343,297.195 C1354.11,290.929 1360.27,278.382 1360.27,261.882 C1360.27,246.71 1354.77,234.835 1344.66,228.226 C1338.6,224.382 1330.46,222.617 1317.93,222.617 L1282.94,222.617 L1282.94,227.788 L1285.04,227.788 C1291.19,227.898 1293.29,228.226 1294.16,229.335 C1294.82,230.32 1294.82,230.538 1294.82,236.148 L1294.82,288.507 C1294.82,294.117 1294.82,294.335 1294.16,295.335 C1293.29,296.429 1291.19,296.757 1285.04,296.867 L1282.94,296.867 L1282.94,302.038 M1313.41,296.867 C1307.8,296.867 1307.15,296.21 1307.15,290.82 L1307.15,233.945 C1307.15,228.554 1307.91,227.788 1313.41,227.788 L1319.13,227.788 C1337.94,227.788 1345.75,238.023 1345.75,262.335 C1345.75,286.976 1338.71,296.867 1320.9,296.867 L1313.41,296.867 M1392.4,263.538 L1398.77,263.538 C1409.88,263.976 1414.29,268.492 1415.49,280.585 L1416.04,286.195 C1417.36,298.632 1421.43,303.695 1430.13,303.695 C1439.15,303.695 1443.43,297.632 1443.77,284.445 L1439.15,284.445 C1438.71,292.023 1437.38,295.335 1434.41,295.335 C1431.88,295.335 1430.79,293.46 1428.91,285.867 L1427.16,278.945 C1424.74,268.82 1420.44,264.195 1411.86,261.992 C1427.71,259.804 1435.29,253.413 1435.29,242.304 C1435.29,229.773 1424.74,222.617 1406.25,222.617 L1368.19,222.617 L1368.19,227.788 L1370.18,227.788 C1376.44,227.898 1378.54,228.226 1379.41,229.335 C1380.07,230.32 1380.07,230.538 1380.07,236.148 L1380.07,288.617 C1380.07,294.117 1380.07,294.335 1379.41,295.445 C1378.54,296.538 1376.44,296.867 1370.18,296.867 L1368.19,296.867 L1368.19,302.038 L1404.27,302.038 L1404.27,296.867 L1402.29,296.867 C1396.02,296.867 1393.93,296.538 1393.05,295.445 C1392.4,294.335 1392.4,294.117 1392.4,288.617 L1392.4,263.538 M1392.4,258.367 L1392.4,234.163 C1392.18,228.117 1392.72,227.679 1399.99,227.788 L1405.93,227.788 C1416.82,227.788 1421.77,232.413 1421.77,242.413 C1421.77,253.976 1415.6,258.367 1404.49,258.367 L1392.4,258.367 M1515.91,222.617 L1449.8,222.617 L1449.8,227.788 L1451.79,227.788 C1458.05,227.898 1460.15,228.226 1461.02,229.335 C1461.68,230.32 1461.68,230.538 1461.68,236.148 L1461.68,288.507 C1461.68,294.117 1461.68,294.335 1461.02,295.335 C1460.15,296.429 1458.05,296.867 1451.79,296.867 L1449.8,296.867 L1449.8,302.038 L1517.35,302.038 L1519.55,272.663 L1514.71,272.663 C1510.52,292.242 1506.02,296.429 1489.18,296.867 L1481.93,296.867 C1475.32,296.648 1473.68,295.554 1474,291.585 L1474,263.538 L1476.21,263.538 C1487.54,263.101 1491.6,267.163 1492.05,279.382 L1497.21,279.382 L1497.21,243.304 L1492.05,243.304 C1491.38,254.085 1487.1,258.367 1476.65,258.367 L1474,258.367 L1474,233.288 C1473.9,228.663 1474.99,227.898 1480.93,227.788 L1486.66,227.788 C1504.69,227.679 1509.21,231.632 1512.72,250.663 L1517.46,250.663 L1515.91,222.617 M1550.77,222.617 L1528.11,222.617 L1528.11,227.788 L1530.86,227.788 C1537.13,228.007 1539.22,228.773 1540.97,231.413 L1540.97,278.163 C1540.97,293.132 1538.9,296.32 1528.22,296.867 L1528.22,302.038 L1559.57,302.038 L1559.57,296.867 C1549,296.32 1546.93,293.132 1546.93,278.163 L1546.93,237.351 L1595.97,303.585 L1600.6,303.585 L1600.6,246.492 C1600.6,231.523 1602.69,228.335 1613.36,227.788 L1613.36,222.617 L1582,222.617 L1582,227.788 C1592.57,228.335 1594.66,231.413 1594.66,246.492 L1594.66,281.023 L1550.77,222.617 M1625.68,247.257 L1628.1,247.257 L1631.5,227.57 C1631.61,227.023 1631.61,226.351 1631.61,225.804 C1631.61,223.054 1629.63,221.085 1626.88,221.085 C1624.13,221.085 1622.15,223.054 1622.15,225.804 C1622.15,226.351 1622.15,226.913 1622.25,227.57 L1625.68,247.257 M1698.16,221.96 L1694.08,221.96 L1689.69,228.554 C1684.41,223.601 1677.47,220.96 1669.66,220.96 C1655.15,220.96 1645.58,230.101 1645.58,243.96 C1645.58,255.945 1651.52,261.882 1667.69,266.07 L1678.15,268.71 C1686.29,270.804 1687.05,271.023 1689.36,272.773 C1692.66,275.304 1694.43,278.945 1694.43,283.226 C1694.43,287.632 1692.77,291.257 1689.47,294.335 C1685.83,297.413 1682.21,298.632 1676.16,298.632 C1659.55,298.632 1651.3,286.413 1648.44,271.57 L1643.71,271.57 L1644.15,302.913 L1648.44,302.913 L1653.4,295.445 C1660.75,301.492 1666.8,303.695 1676.49,303.695 C1692.66,303.695 1703,294.226 1703,279.492 C1703,272.554 1700.8,266.835 1696.4,262.663 C1693.43,259.804 1689.15,257.929 1680.33,255.726 L1668.57,252.757 C1658.79,250.226 1654.16,245.945 1654.16,239.226 C1654.16,231.523 1660.43,226.242 1669.79,226.242 C1683.97,226.242 1691.79,238.023 1694.75,250.554 L1699.47,250.554 L1698.16,221.96 M1798.04,221.96 L1793.96,221.96 L1789.57,228.554 C1784.29,223.601 1777.35,220.96 1769.54,220.96 C1755.02,220.96 1745.46,230.101 1745.46,243.96 C1745.46,255.945 1751.4,261.882 1767.57,266.07 L1778.02,268.71 C1786.16,270.804 1786.93,271.023 1789.24,272.773 C1792.54,275.304 1794.3,278.945 1794.3,283.226 C1794.3,287.632 1792.65,291.257 1789.35,294.335 C1785.71,297.413 1782.08,298.632 1776.04,298.632 C1759.43,298.632 1751.18,286.413 1748.32,271.57 L1743.58,271.57 L1744.02,302.913 L1748.32,302.913 L1753.27,295.445 C1760.63,301.492 1766.68,303.695 1776.36,303.695 C1792.54,303.695 1802.88,294.226 1802.88,279.492 C1802.88,272.554 1800.68,266.835 1796.27,262.663 C1793.3,259.804 1789.02,257.929 1780.21,255.726 L1768.44,252.757 C1758.66,250.226 1754.04,245.945 1754.04,239.226 C1754.04,231.523 1760.3,226.242 1769.66,226.242 C1783.85,226.242 1791.66,238.023 1794.63,250.554 L1799.35,250.554 L1798.04,221.96 M1850.72,220.96 C1827.5,220.96 1812.44,239.992 1812.44,262.445 C1812.44,284.335 1827.5,303.695 1850.29,303.695 C1871.83,303.695 1888.11,285.867 1888.11,262.335 C1888.11,239.007 1871.83,220.96 1850.72,220.96 M1850.61,226.132 C1857.97,226.132 1864.15,229.554 1868.1,235.601 C1872.18,242.085 1873.6,248.804 1873.6,262.335 C1873.6,275.742 1872.18,282.46 1868.1,289.054 C1864.15,295.226 1858.08,298.523 1850.29,298.523 C1842.47,298.523 1836.43,295.335 1832.46,289.054 C1828.29,282.46 1826.96,275.742 1826.96,262.101 C1826.96,248.804 1828.4,242.195 1832.46,235.601 C1836.54,229.21 1842.36,226.132 1850.61,226.132 M1917.82,222.617 L1895.16,222.617 L1895.16,227.788 L1897.91,227.788 C1904.18,228.007 1906.27,228.773 1908.02,231.413 L1908.02,278.163 C1908.02,293.132 1905.94,296.32 1895.27,296.867 L1895.27,302.038 L1926.61,302.038 L1926.61,296.867 C1916.05,296.32 1913.97,293.132 1913.97,278.163 L1913.97,237.351 L1963.02,303.585 L1967.65,303.585 L1967.65,246.492 C1967.65,231.523 1969.74,228.335 1980.41,227.788 L1980.41,222.617 L1949.05,222.617 L1949.05,227.788 C1959.61,228.335 1961.71,231.413 1961.71,246.492 L1961.71,281.023 L1917.82,222.617 M2052,221.851 L2047.83,221.851 L2043.54,228.445 C2036.38,222.835 2031.55,220.96 2023.52,220.96 C2014.82,220.96 2008,223.382 2001.07,228.992 C1990.19,237.804 1985.13,248.913 1985.13,263.757 C1985.13,274.976 1988.32,284.335 1994.8,291.476 C2001.63,299.179 2011.74,303.695 2022.3,303.695 C2031.55,303.695 2038.04,300.835 2045.19,293.679 L2049.25,303.585 L2053.88,303.585 L2053.88,279.382 C2053.88,273.773 2053.88,273.554 2054.54,272.554 C2055.52,271.351 2057.5,271.023 2063.77,271.023 L2065.43,271.023 L2065.43,265.851 L2030.44,265.851 L2030.44,271.023 L2032.54,271.023 C2041.77,271.023 2042.55,271.57 2042.55,277.726 C2042.55,282.46 2041.77,286.742 2040.35,289.382 C2037.6,294.773 2030.55,298.523 2023.41,298.523 C2016.25,298.523 2009.21,294.882 2005.47,289.382 C2001.41,283.226 1999.65,275.523 1999.65,263.757 C1999.65,239.226 2007.79,226.132 2023.07,226.132 C2035.61,226.132 2044.3,235.163 2048.82,252.757 L2053.55,252.757 L2052,221.851 "/>
<polyline class="BarLine" fill="none" stroke="#000000" stroke-width="4.46" stroke-linejoin="bevel" points="1649.04,905.634 1649.04,1007.56"/>
<polyline class="BarLine" fill="none" stroke="#000000" stroke-width="4.46" stroke-linejoin="bevel" points="2845.17,632.834 2845.17,734.762"/>
<polyline class="BarLine" fill="none" stroke="#000000" stroke-width="4.46" stroke-linejoin="bevel" points="2326.39,632.834 2326.39,734.762"/>
<polyline class="BarLine" fill="none" stroke="#000000" stroke-width="4.46" stroke-linejoin="bevel" points="1030.57,905.634 1030.57,1007.56"/>
<polyline class="BarLine" fill="none" stroke="#000000" stroke-width="4.46" stroke-linejoin="bevel" points="1727.25,632.834 1727.25,734.762"/>
<polyline class="BarLine" fill="none" stroke="#000000" stroke-width="4.46" stroke-linejoin="bevel" points="1128.12,632.834 1128.12,734.762"/>
<polyline class="BarLine" fill="none" stroke="#000000" stroke-width="4.46" stroke-linejoin="bevel" points="2267.5,905.634 2267.5,1007.56"/>
<path class="BarLine" transform="matrix(0.992,0,0,0.992,2800.63,944.198)" d="M10.4063,0 C10.4063,-2.90625 8.09375,-5.29688 5.20313,-5.29688 C2.29688,-5.29688 0,-2.90625 0,0 C0,2.90625 2.29688,5.29688 5.20313,5.29688 C8.09375,5.29688 10.4063,2.90625 10.4063,0"/>
<path class="BarLine" transform="matrix(0.992,0,0,0.992,2800.63,968.998)" d="M10.4063,0 C10.4063,-2.90625 8.09375,-5.29688 5.20313,-5.29688 C2.29688,-5.29688 0,-2.90625 0,0 C0,2.90625 2.29688,5.29688 5.20313,5.29688 C8.09375,5.29688 10.4063,2.90625 10.4063,0"/>
<polyline class="BarLine" fill="none" stroke="#000000" stroke-width="4.46" stroke-linejoin="bevel" points="2822.35,905.634 2822.35,1007.56"/>
<polyline class="BarLine" fill="none" stroke="#000000" stroke-width="13.64" stroke-linejoin="bevel" points="2840.58,905.634 2840.58,1007.56"/>
<polyline class="Stem" fill="none" stroke="#000000" stroke-width="2.48" stroke-linejoin="bevel" points="2033.76,717.03 2033.76,637.915"/>
<polyline class="Stem" fill="none" stroke="#000000" stroke-width="2.48" stroke-linejoin="bevel" points="1792.72,704.63 1792.72,634.217"/>
<polyline class="Stem" fill="none" stroke="#000000" stroke-width="2.48" stroke-linejoin="bevel" points="2332.97,977.43 2332.97,894.797"/>
<polyline class="Stem" fill="none" stroke="#000000" stroke-width="2.48" stroke-linejoin="bevel" points="1096.03,952.63 1096.03,882.29"/>
<polyline class="Stem" fill="none" stroke="#000000" stroke-width="2.48" stroke-linejoin="bevel" points="810.001,965.03 810.001,900.829"/>
<polyline class="Stem" fill="none" stroke="#000000" stroke-width="2.48" stroke-linejoin="bevel" points="2194.45,729.43 2194.45,640.379"/>
<polyline class="Stem" fill="none" stroke="#000000" stroke-width="2.48" stroke-linejoin="bevel" points="560.674,977.43 560.674,906.968"/>
<polyline class="Stem" fill="none" stroke="#000000" stroke-width="2.48" stroke-linejoin="bevel" points="2391.85,704.63 2391.85,621.997"/>
<polyline class="Stem" fill="none" stroke="#000000" stroke-width="2.48" stroke-linejoin="bevel" points="1262.25,977.43 1262.25,894.507"/>
<polyline class="Stem" fill="none" stroke="#000000" stroke-width="2.48" stroke-linejoin="bevel" points="1354.28,692.23 1354.28,596.951"/>
<polyline class="Stem" fill="none" stroke="#000000" stroke-width="2.48" stroke-linejoin="bevel" points="2130.05,1014.63 2130.05,913.18"/>
<polyline class="Stem" fill="none" stroke="#000000" stroke-width="2.48" stroke-linejoin="bevel" points="1193.59,667.43 1193.59,590.846"/>
<polyline class="Stem" fill="none" stroke="#000000" stroke-width="2.48" stroke-linejoin="bevel" points="594.456,655.03 594.456,590.817"/>
<polyline class="Stem" fill="none" stroke="#000000" stroke-width="2.48" stroke-linejoin="bevel" points="1714.5,977.43 1714.5,907.017"/>
<polyline class="Stem" fill="none" stroke="#000000" stroke-width="2.48" stroke-linejoin="bevel" points="835.497,667.43 835.497,594.515"/>
<polyline class="Stem" fill="none" stroke="#000000" stroke-width="2.48" stroke-linejoin="bevel" points="996.19,692.23 996.19,596.979"/>
<polyline class="Stem" fill="none" stroke="#000000" stroke-width="2.48" stroke-linejoin="bevel" points="1963.83,977.43 1963.83,910.715"/>
<path class="Note" transform="matrix(0.992,0,0,0.992,2099.05,1018.6)" d="M0,4.20313 C0,8.5 3.09375,13.2969 11.2031,13.2969 C21.5938,13.2969 32.5,4.79688 32.5,-4 C32.5,-9.90625 27.5,-13.2031 21.2969,-13.2031 C11.5938,-13.2031 0,-5 0,4.20313"/>
<path class="Note" transform="matrix(0.992,0,0,0.992,1065.04,956.598)" d="M0,4.20313 C0,8.5 3.09375,13.2969 11.2031,13.2969 C21.5938,13.2969 32.5,4.79688 32.5,-4 C32.5,-9.90625 27.5,-13.2031 21.2969,-13.2031 C11.5938,-13.2031 0,-5 0,4.20313"/>
<path class="Note" transform="matrix(0.992,0,0,0.992,1932.84,981.398)" d="M0,4.20313 C0,8.5 3.09375,13.2969 11.2031,13.2969 C21.5938,13.2969 32.5,4.79688 32.5,-4 C32.5,-9.90625 27.5,-13.2031 21.2969,-13.2031 C11.5938,-13.2031 0,-5 0,4.20313"/>
<path class="Note" transform="matrix(0.992,0,0,0.992,2301.98,981.398)" d="M0,4.20313 C0,8.5 3.09375,13.2969 11.2031,13.2969 C21.5938,13.2969 32.5,4.79688 32.5,-4 C32.5,-9.90625 27.5,-13.2031 21.2969,-13.2031 C11.5938,-13.2031 0,-5 0,4.20313"/>
<path class="Note" transform="matrix(0.992,0,0,0.992,1683.51,981.398)" d="M0,4.20313 C0,8.5 3.09375,13.2969 11.2031,13.2969 C21.5938,13.2969 32.5,4.79688 32.5,-4 C32.5,-9.90625 27.5,-13.2031 21.2969,-13.2031 C11.5938,-13.2031 0,-5 0,4.20313"/>
<path class="Note" transform="matrix(0.992,0,0,0.992,529.682,981.398)" d="M0,4.20313 C0,8.5 3.09375,13.2969 11.2031,13.2969 C21.5938,13.2969 32.5,4.79688 32.5,-4 C32.5,-9.90625 27.5,-13.2031 21.2969,-13.2031 C11.5938,-13.2031 0,-5 0,4.20313"/>
<path class="Note" transform="matrix(0.992,0,0,0.992,779.009,968.998)" d="M0,4.20313 C0,8.5 3.09375,13.2969 11.2031,13.2969 C21.5938,13.2969 32.5,4.79688 32.5,-4 C32.5,-9.90625 27.5,-13.2031 21.2969,-13.2031 C11.5938,-13.2031 0,-5 0,4.20313"/>
<path class="Note" transform="matrix(0.992,0,0,0.992,2360.86,708.598)" d="M0,4.20313 C0,8.5 3.09375,13.2969 11.2031,13.2969 C21.5938,13.2969 32.5,4.79688 32.5,-4 C32.5,-9.90625 27.5,-13.2031 21.2969,-13.2031 C11.5938,-13.2031 0,-5 0,4.20313"/>
<path class="Note" transform="matrix(0.992,0,0,0.992,1231.26,981.398)" d="M0,4.20313 C0,8.5 3.09375,13.2969 11.2031,13.2969 C21.5938,13.2969 32.5,4.79688 32.5,-4 C32.5,-9.90625 27.5,-13.2031 21.2969,-13.2031 C11.5938,-13.2031 0,-5 0,4.20313"/>
<path class="Note" transform="matrix(0.992,0,0,0.992,965.198,696.198)" d="M0,4.20313 C0,8.5 3.09375,13.2969 11.2031,13.2969 C21.5938,13.2969 32.5,4.79688 32.5,-4 C32.5,-9.90625 27.5,-13.2031 21.2969,-13.2031 C11.5938,-13.2031 0,-5 0,4.20313"/>
<path class="Note" transform="matrix(0.992,0,0,0.992,1323.29,696.198)" d="M0,4.20313 C0,8.5 3.09375,13.2969 11.2031,13.2969 C21.5938,13.2969 32.5,4.79688 32.5,-4 C32.5,-9.90625 27.5,-13.2031 21.2969,-13.2031 C11.5938,-13.2031 0,-5 0,4.20313"/>
<path class="Note" transform="matrix(0.992,0,0,0.992,1761.73,708.598)" d="M0,4.20313 C0,8.5 3.09375,13.2969 11.2031,13.2969 C21.5938,13.2969 32.5,4.79688 32.5,-4 C32.5,-9.90625 27.5,-13.2031 21.2969,-13.2031 C11.5938,-13.2031 0,-5 0,4.20313"/>
<path class="Note" transform="matrix(0.992,0,0,0.992,563.464,658.998)" d="M0,4.20313 C0,8.5 3.09375,13.2969 11.2031,13.2969 C21.5938,13.2969 32.5,4.79688 32.5,-4 C32.5,-9.90625 27.5,-13.2031 21.2969,-13.2031 C11.5938,-13.2031 0,-5 0,4.20313"/>
<path class="Note" transform="matrix(0.992,0,0,0.992,2002.77,720.998)" d="M0,4.20313 C0,8.5 3.09375,13.2969 11.2031,13.2969 C21.5938,13.2969 32.5,4.79688 32.5,-4 C32.5,-9.90625 27.5,-13.2031 21.2969,-13.2031 C11.5938,-13.2031 0,-5 0,4.20313"/>
<path class="Note" transform="matrix(0.992,0,0,0.992,1162.6,671.398)" d="M0,4.20313 C0,8.5 3.09375,13.2969 11.2031,13.2969 C21.5938,13.2969 32.5,4.79688 32.5,-4 C32.5,-9.90625 27.5,-13.2031 21.2969,-13.2031 C11.5938,-13.2031 0,-5 0,4.20313"/>
<path class="Note" transform="matrix(0.992,0,0,0.992,2163.46,733.398)" d="M0,4.20313 C0,8.5 3.09375,13.2969 11.2031,13.2969 C21.5938,13.2969 32.5,4.79688 32.5,-4 C32.5,-9.90625 27.5,-13.2031 21.2969,-13.2031 C11.5938,-13.2031 0,-5 0,4.20313"/>
<path class="Note" transform="matrix(0.992,0,0,0.992,804.504,671.398)" d="M0,4.20313 C0,8.5 3.09375,13.2969 11.2031,13.2969 C21.5938,13.2969 32.5,4.79688 32.5,-4 C32.5,-9.90625 27.5,-13.2031 21.2969,-13.2031 C11.5938,-13.2031 0,-5 0,4.20313"/>
<path class="Clef" transform="matrix(0.992,0,0,0.992,355.198,981.398)" d="M12.2969,51.2969 C12.2969,57.9063 17.2969,66.6094 30.7969,66.6094 C35.5,66.6094 39.6094,65.4063 43.2031,63.2031 C48.6094,59.4063 50,52.7969 50,46.5 C50,42.6094 49.4063,38.1094 48.4063,32.4063 C48.1094,30.4063 47.5,27.4063 46.9063,23.5 C56.7031,20.2969 64,10.0938 64,-0.203125 C64,-15.2969 53.2969,-25.5 38.7031,-25.5 C37.7031,-31.5 36.7031,-37.4063 35.9063,-43 C46.4063,-54.1094 53.7031,-66.6094 53.7031,-82.5 C53.7031,-91.6094 50.9063,-99 49.2969,-102.609 C46.9063,-107.703 44,-111.203 42.2031,-111.203 C41.5,-111.203 38.4063,-110 35.1094,-106.109 C28.7031,-98.5 26.9063,-85.7031 26.9063,-77.3125 C26.9063,-71.9063 27.4063,-67 29.1094,-55.7969 C29,-55.7031 23.7969,-50.4063 21.7031,-48.7031 C12.5938,-40.2969 0,-28.1094 0,-8.09375 C0,10.5938 16.2969,25.2969 34.9063,25.2969 C37.7969,25.2969 40.5,25 42.7969,24.5938 C44.7031,34.2031 45.9063,41.2031 45.9063,46.5 C45.9063,56.9063 40.5,62.4063 30.4063,62.4063 C28,62.4063 25.9063,61.9063 25.7031,61.9063 C25.6094,61.7969 25.4063,61.7031 25.4063,61.6094 C25.4063,61.4063 25.6094,61.2969 25.9063,61.2969 C30.6094,60.5 35.2969,56.5 35.2969,50.1094 C35.2969,44.7031 31.2031,39 23.7031,39 C16.7031,39 12.2969,44.7031 12.2969,51.2969 M33.2031,-82.2031 C34.1094,-86.2031 38.7031,-96.7031 43.9063,-96.7031 C45.4063,-96.7031 47.7969,-91.9063 47.7969,-84.9063 C47.7969,-74.5 40.1094,-66.7031 33.2031,-59.9063 C32.6094,-63.9063 32.1094,-67.7969 32.1094,-72 C32.1094,-75.7031 32.4063,-79.1094 33.2031,-82.2031 M42,20.5938 C40,21 38.1094,21.2031 36.2031,21.2031 C21.9063,21.2031 9.70313,11.2031 9.70313,-3.90625 C9.70313,-16.0938 18.2969,-27 27.1094,-34.6094 C28.7969,-36.1094 30.4063,-37.5 31.9063,-39 C32.7969,-33.6094 33.5,-28.9063 34.2031,-24.7969 C25.0938,-22.0938 18.9063,-12.5 18.9063,-3.09375 C18.9063,3.90625 24.4063,13.5 32.4063,13.5 C33.2031,13.5 34.1094,13.0938 34.1094,12.2031 C34.1094,11.2969 33.1094,10.7969 31.9063,10 C28,7.59375 25.7969,5 25.7969,0.09375 C25.7969,-6 30.4063,-10.9063 36.2031,-12.2969 L42,20.5938 M56.2031,2.09375 C56.2031,9.20313 53.2969,16.5 46.2031,19.4063 C44.1094,7.40625 41.4063,-8.5 40.7031,-12.9063 C49.7031,-12.9063 56.2031,-6.79688 56.2031,2.09375"/>
<path class="Clef" transform="matrix(0.992,0,0,0.992,355.198,708.598)" d="M12.2969,51.2969 C12.2969,57.9063 17.2969,66.6094 30.7969,66.6094 C35.5,66.6094 39.6094,65.4063 43.2031,63.2031 C48.6094,59.4063 50,52.7969 50,46.5 C50,42.6094 49.4063,38.1094 48.4063,32.4063 C48.1094,30.4063 47.5,27.4063 46.9063,23.5 C56.7031,20.2969 64,10.0938 64,-0.203125 C64,-15.2969 53.2969,-25.5 38.7031,-25.5 C37.7031,-31.5 36.7031,-37.4063 35.9063,-43 C46.4063,-54.1094 53.7031,-66.6094 53.7031,-82.5 C53.7031,-91.6094 50.9063,-99 49.2969,-102.609 C46.9063,-107.703 44,-111.203 42.2031,-111.203 C41.5,-111.203 38.4063,-110 35.1094,-106.109 C28.7031,-98.5 26.9063,-85.7031 26.9063,-77.3125 C26.9063,-71.9063 27.4063,-67 29.1094,-55.7969 C29,-55.7031 23.7969,-50.4063 21.7031,-48.7031 C12.5938,-40.2969 0,-28.1094 0,-8.09375 C0,10.5938 16.2969,25.2969 34.9063,25.2969 C37.7969,25.2969 40.5,25 42.7969,24.5938 C44.7031,34.2031 45.9063,41.2031 45.9063,46.5 C45.9063,56.9063 40.5,62.4063 30.4063,62.4063 C28,62.4063 25.9063,61.9063 25.7031,61.9063 C25.6094,61.7969 25.4063,61.7031 25.4063,61.6094 C25.4063,61.4063 25.6094,61.2969 25.9063,61.2969 C30.6094,60.5 35.2969,56.5 35.2969,50.1094 C35.2969,44.7031 31.2031,39 23.7031,39 C16.7031,39 12.2969,44.7031 12.2969,51.2969 M33.2031,-82.2031 C34.1094,-86.2031 38.7031,-96.7031 43.9063,-96.7031 C45.4063,-96.7031 47.7969,-91.9063 47.7969,-84.9063 C47.7969,-74.5 40.1094,-66.7031 33.2031,-59.9063 C32.6094,-63.9063 32.1094,-67.7969 32.1094,-72 C32.1094,-75.7031 32.4063,-79.1094 33.2031,-82.2031 M42,20.5938 C40,21 38.1094,21.2031 36.2031,21.2031 C21.9063,21.2031 9.70313,11.2031 9.70313,-3.90625 C9.70313,-16.0938 18.2969,-27 27.1094,-34.6094 C28.7969,-36.1094 30.4063,-37.5 31.9063,-39 C32.7969,-33.6094 33.5,-28.9063 34.2031,-24.7969 C25.0938,-22.0938 18.9063,-12.5 18.9063,-3.09375 C18.9063,3.90625 24.4063,13.5 32.4063,13.5 C33.2031,13.5 34.1094,13.0938 34.1094,12.2031 C34.1094,11.2969 33.1094,10.7969 31.9063,10 C28,7.59375 25.7969,5 25.7969,0.09375 C25.7969,-6 30.4063,-10.9063 36.2031,-12.2969 L42,20.5938 M56.2031,2.09375 C56.2031,9.20313 53.2969,16.5 46.2031,19.4063 C44.1094,7.40625 41.4063,-8.5 40.7031,-12.9063 C49.7031,-12.9063 56.2031,-6.79688 56.2031,2.09375"/>
<path class="KeySig" transform="matrix(0.992,0,0,0.992,443.479,906.998)" d="M23.2969,-10.5 C23.9063,-10.5938 24.4063,-11.2969 24.4063,-11.9063 L24.4063,-17.7969 C24.4063,-18.7969 23.7031,-19.2031 22.7969,-19.2031 L19.5,-18.5 L19.5,-33.4063 L16.7031,-33.4063 L16.7031,-17.9063 L7.79688,-16.0938 L7.79688,-30.2031 L5,-30.2031 L5,-15.5 L1.09375,-14.7031 C0.5,-14.5938 0,-13.9063 0,-13.2969 L0,-7.5 C0,-6.40625 0.796875,-6.09375 1.70313,-6.09375 L5,-6.79688 L5,9.70313 L1.09375,10.5 C0.5,10.5938 0,11.2969 0,11.9063 L0,17.7031 C0,18.7969 0.796875,19.0938 1.70313,19.0938 L5,18.4063 L5,33.2969 L7.79688,33.2969 L7.79688,17.7969 L16.7031,16 L16.7031,30.1094 L19.5,30.1094 L19.5,15.4063 L23.2969,14.7031 C23.9063,14.5938 24.4063,13.9063 24.4063,13.2969 L24.4063,7.40625 C24.4063,6.40625 23.7031,6 22.7969,6 L19.5,6.70313 L19.5,-9.79688 L23.2969,-10.5 M7.79688,-7.40625 L16.7031,-9.20313 L16.7031,7.29688 L7.79688,9.20313 L7.79688,-7.40625 "/>
<path class="KeySig" transform="matrix(0.992,0,0,0.992,443.479,634.198)" d="M23.2969,-10.5 C23.9063,-10.5938 24.4063,-11.2969 24.4063,-11.9063 L24.4063,-17.7969 C24.4063,-18.7969 23.7031,-19.2031 22.7969,-19.2031 L19.5,-18.5 L19.5,-33.4063 L16.7031,-33.4063 L16.7031,-17.9063 L7.79688,-16.0938 L7.79688,-30.2031 L5,-30.2031 L5,-15.5 L1.09375,-14.7031 C0.5,-14.5938 0,-13.9063 0,-13.2969 L0,-7.5 C0,-6.40625 0.796875,-6.09375 1.70313,-6.09375 L5,-6.79688 L5,9.70313 L1.09375,10.5 C0.5,10.5938 0,11.2969 0,11.9063 L0,17.7031 C0,18.7969 0.796875,19.0938 1.70313,19.0938 L5,18.4063 L5,33.2969 L7.79688,33.2969 L7.79688,17.7969 L16.7031,16 L16.7031,30.1094 L19.5,30.1094 L19.5,15.4063 L23.2969,14.7031 C23.9063,14.5938 24.4063,13.9063 24.4063,13.2969 L24.4063,7.40625 C24.4063,6.40625 23.7031,6 22.7969,6 L19.5,6.70313 L19.5,-9.79688 L23.2969,-10.5 M7.79688,-7.40625 L16.7031,-9.20313 L16.7031,7.29688 L7.79688,9.20313 L7.79688,-7.40625 "/>
<path class="TimeSig" transform="matrix(0.992,0,0,0.992,491.792,659.494)" d="M34.2031,3.90625 C33.4063,6.09375 31.4063,13.2969 26.5,13.2969 C20,13.2969 18.5938,9.29688 13.2031,9.29688 C12.4063,9.29688 11.5938,9.40625 10.5938,9.59375 C10.5938,9.59375 13.0938,5.79688 23.7031,2.5 C34.2969,-0.796875 37,-6 37,-12 C37,-16.2031 35.1094,-24.5 20,-24.5 C4.90625,-24.5 2.09375,-15.4063 2.09375,-10.7969 C2.09375,-6.70313 5.5,-3.40625 9.59375,-3.40625 C13.7031,-3.40625 17,-6.70313 17,-10.7969 C17,-13.5938 15,-16.7031 12.4063,-17.7031 C12.0938,-17.7969 11.7031,-18.2969 11.7031,-18.7969 C11.7031,-19.4063 12.2031,-20.0938 14,-20.5938 C14.5,-20.7969 15.9063,-21.0938 17.4063,-21.0938 C23.0938,-21.0938 24.2031,-17.5938 24.2031,-12.5 C24.2031,-0.796875 10.2969,1.70313 4.5,10.4063 C4.5,10.4063 1.5,14.5938 1.5,19.2969 C1.5,24 3.90625,24.2969 5.09375,24.2969 C6.70313,24.2969 8.40625,23 8.40625,21.2031 C8.40625,20.7969 8.29688,20.4063 8.09375,19.9063 C7.5,18.5 7.29688,17.4063 7.29688,16.5938 C7.29688,16.2969 7.29688,16 7.40625,15.7031 C7.5,15.0938 8.29688,14.0938 10.7031,14.0938 C13.5938,14.0938 14.7031,17.5 16.5,20.0938 C18.2969,22.7031 21.0938,24.2969 24.2969,24.2969 C27.5,24.2969 31.7969,22 33.6094,18.2969 C35.4063,14.5938 37.7031,7.09375 37.7031,4.40625 C37.7031,3.09375 36.9063,2.5 36,2.5 C35.2969,2.5 34.6094,2.90625 34.2031,3.90625"/>
<path class="TimeSig" transform="matrix(0.992,0,0,0.992,491.002,708.35)" d="M32.4063,-1.79688 C35.7031,-4.29688 38,-7.5 38,-11.5 C38,-18.7031 30.1094,-24.5938 20.4063,-24.5938 C10.7031,-24.5938 2.79688,-18.7031 2.79688,-11.5 C2.79688,-7.5 3.79688,-3.90625 8.5,-0.90625 C4,1.70313 1.5,5.40625 1.5,10.2031 C1.5,18.2969 10,24.7969 20.4063,24.7969 C30.7969,24.7969 39.2969,18.2969 39.2969,10.2031 C39.2969,5.40625 37.6094,0.90625 32.4063,-1.79688 M26.7969,-4.5 C20,-6.70313 12.5,-10 12.5,-14.5 C12.5,-18.4063 16.0938,-20 20.4063,-20 C26.6094,-20 30.7969,-17.0938 30.7969,-12.5 C30.7969,-7.70313 28.6094,-5.40625 26.7969,-4.5 M20.4063,19.2031 C14,19.2031 8.5,15.7031 8.5,10.0938 C8.5,3.40625 13.7031,1.79688 13.7031,1.79688 C20.5,4.09375 30.2031,7.5 30.2031,13 C30.2031,15.7031 26.7969,19.2031 20.4063,19.2031"/>
<path class="Rest" transform="matrix(0.992,0,0,0.992,2551.3,956.598)" d="M26.7031,-20.2969 C26.6094,-20.2969 26.4063,-20.4063 26.2969,-20.4063 C25.7031,-20.4063 25.2031,-20.0938 25,-19.5938 C22.7031,-15 17.9063,-8.79688 12.5,-7.79688 C13.5938,-9.09375 14.2969,-10.7031 14.2969,-12.5938 C14.2969,-16.5 11.0938,-19.7031 7.20313,-19.7031 C3.20313,-19.7031 0,-16.5 0,-12.5938 C0,-7.20313 5.29688,-4.70313 10,-4.70313 C15.2969,-4.70313 18.7969,-7.20313 22.2031,-10.9063 L10.7969,24.7031 L13.5,25.5 L27.5,-18.5938 C27.6094,-18.7031 27.6094,-18.9063 27.6094,-19.0938 C27.6094,-19.5938 27.2969,-20 26.7031,-20.2969"/>
<path class="Rest" transform="matrix(0.992,0,0,0.992,2601.9,683.798)" d="M26.7031,-20.2969 C26.6094,-20.2969 26.4063,-20.4063 26.2969,-20.4063 C25.7031,-20.4063 25.2031,-20.0938 25,-19.5938 C22.7031,-15 17.9063,-8.79688 12.5,-7.79688 C13.5938,-9.09375 14.2969,-10.7031 14.2969,-12.5938 C14.2969,-16.5 11.0938,-19.7031 7.20313,-19.7031 C3.20313,-19.7031 0,-16.5 0,-12.5938 C0,-7.20313 5.29688,-4.70313 10,-4.70313 C15.2969,-4.70313 18.7969,-7.20313 22.2031,-10.9063 L10.7969,24.7031 L13.5,25.5 L27.5,-18.5938 C27.6094,-18.7031 27.6094,-18.9063 27.6094,-19.0938 C27.6094,-19.5938 27.2969,-20 26.7031,-20.2969"/>
<path class="Rest" transform="matrix(0.992,0,0,0.992,1483.98,683.798)" d="M26.7031,-20.2969 C26.6094,-20.2969 26.4063,-20.4063 26.2969,-20.4063 C25.7031,-20.4063 25.2031,-20.0938 25,-19.5938 C22.7031,-15 17.9063,-8.79688 12.5,-7.79688 C13.5938,-9.09375 14.2969,-10.7031 14.2969,-12.5938 C14.2969,-16.5 11.0938,-19.7031 7.20313,-19.7031 C3.20313,-19.7031 0,-16.5 0,-12.5938 C0,-7.20313 5.29688,-4.70313 10,-4.70313 C15.2969,-4.70313 18.7969,-7.20313 22.2031,-10.9063 L10.7969,24.7031 L13.5,25.5 L27.5,-18.5938 C27.6094,-18.7031 27.6094,-18.9063 27.6094,-19.0938 C27.6094,-19.5938 27.2969,-20 26.7031,-20.2969"/>
<path class="Rest" transform="matrix(0.992,0,0,0.992,1397.48,956.598)" d="M26.7031,-20.2969 C26.6094,-20.2969 26.4063,-20.4063 26.2969,-20.4063 C25.7031,-20.4063 25.2031,-20.0938 25,-19.5938 C22.7031,-15 17.9063,-8.79688 12.5,-7.79688 C13.5938,-9.09375 14.2969,-10.7031 14.2969,-12.5938 C14.2969,-16.5 11.0938,-19.7031 7.20313,-19.7031 C3.20313,-19.7031 0,-16.5 0,-12.5938 C0,-7.20313 5.29688,-4.70313 10,-4.70313 C15.2969,-4.70313 18.7969,-7.20313 22.2031,-10.9063 L10.7969,24.7031 L13.5,25.5 L27.5,-18.5938 C27.6094,-18.7031 27.6094,-18.9063 27.6094,-19.0938 C27.6094,-19.5938 27.2969,-20 26.7031,-20.2969"/>
<path class="Beam" fill-rule="evenodd" d="M1791.48,627.998 L2195.69,634.198 L2195.69,646.599 L1791.48,640.399 L1791.48,627.998 "/>
<path class="Beam" fill-rule="evenodd" d="M2032.52,650.295 L2195.69,652.798 L2195.69,665.199 L2032.52,662.696 L2032.52,650.295 "/>
<path class="Beam" fill-rule="evenodd" d="M1192.35,584.594 L1355.52,590.794 L1355.52,603.203 L1192.35,597.003 L1192.35,584.594 "/>
<path class="Beam" fill-rule="evenodd" d="M1192.35,603.194 L1355.52,609.394 L1355.52,621.803 L1192.35,615.603 L1192.35,603.194 "/>
<path class="Beam" fill-rule="evenodd" d="M1713.26,900.798 L2131.29,906.998 L2131.29,919.399 L1713.26,913.199 L1713.26,900.798 "/>
<path class="Beam" fill-rule="evenodd" d="M1962.59,923.096 L2131.29,925.598 L2131.29,937.999 L1962.59,935.497 L1962.59,923.096 "/>
<path class="Beam" fill-rule="evenodd" d="M593.216,584.598 L997.43,590.798 L997.43,603.199 L593.216,596.999 L593.216,584.598 "/>
<path class="Beam" fill-rule="evenodd" d="M834.257,606.895 L997.43,609.398 L997.43,621.799 L834.257,619.296 L834.257,606.895 "/>
<path class="Beam" fill-rule="evenodd" d="M1094.79,875.982 L1263.49,888.382 L1263.49,900.815 L1094.79,888.415 L1094.79,875.982 "/>
<path class="Beam" fill-rule="evenodd" d="M1094.79,894.582 L1263.49,906.982 L1263.49,919.415 L1094.79,907.015 L1094.79,894.582 "/>
<path class="Beam" fill-rule="evenodd" d="M559.434,900.797 L811.241,894.597 L811.241,907 L559.434,913.2 L559.434,900.797 "/>
<path class="Hook" transform="matrix(0.992,0,0,0.992,2331.73,894.598)" d="M0,22.7031 C0,23 0.09375,23.5938 0.796875,23.7969 C5.09375,25.2031 13.7031,30.6094 20.2031,41.7031 C22,44.7969 24.9063,49.1094 24.9063,57.4063 C24.9063,64.6094 23.0938,72 20.4063,79.2031 C20.2031,79.8125 20.0938,80.3125 20.0938,80.7031 C20.0938,81.4063 20.5,81.7031 21.2031,81.7031 C21.7969,81.7031 22.2969,81.3125 22.7031,80.6094 C27.2031,72.6094 28.9063,63.2969 28.9063,54.2031 C28.4063,41.2969 21,31.7969 21,31.7969 C21.2969,31.7969 11.7969,19.5 9.09375,15.2969 C5.40625,9.59375 3.70313,3.90625 3.5,3.5 C3.40625,3.20313 2.5,-0.40625 2.5,-0.40625 C2.40625,-0.796875 1.90625,-1.20313 1.29688,-1.20313 C0.59375,-1.20313 0,-0.59375 0,0.09375 L0,22.7031 "/>
<path class="Hook" transform="matrix(0.992,0,0,0.992,2390.61,621.798)" d="M0,22.7031 C0,23 0.09375,23.5938 0.796875,23.7969 C5.09375,25.2031 13.7031,30.6094 20.2031,41.7031 C22,44.7969 24.9063,49.1094 24.9063,57.4063 C24.9063,64.6094 23.0938,72 20.4063,79.2031 C20.2031,79.8125 20.0938,80.3125 20.0938,80.7031 C20.0938,81.4063 20.5,81.7031 21.2031,81.7031 C21.7969,81.7031 22.2969,81.3125 22.7031,80.6094 C27.2031,72.6094 28.9063,63.2969 28.9063,54.2031 C28.4063,41.2969 21,31.7969 21,31.7969 C21.2969,31.7969 11.7969,19.5 9.09375,15.2969 C5.40625,9.59375 3.70313,3.90625 3.5,3.5 C3.40625,3.20313 2.5,-0.40625 2.5,-0.40625 C2.40625,-0.796875 1.90625,-1.20313 1.29688,-1.20313 C0.59375,-1.20313 0,-0.59375 0,0.09375 L0,22.7031 "/>
<path class="Lyrics" d="M549.987,770.627 L555.377,770.627 L565.69,785.908 L575.924,770.627 L581.33,770.627 L568.19,790.095 L568.19,807.798 L563.127,807.798 L563.127,790.095 L549.987,770.627 M590.049,783.127 C587.591,783.127 585.648,784.085 584.221,786.002 C582.794,787.918 582.08,790.543 582.08,793.877 C582.08,797.21 582.791,799.837 584.213,801.759 C585.635,803.681 587.58,804.642 590.049,804.642 C592.497,804.642 594.434,803.679 595.862,801.752 C597.289,799.824 598.002,797.199 598.002,793.877 C598.002,790.574 597.289,787.957 595.862,786.025 C594.434,784.093 592.497,783.127 590.049,783.127 M590.049,779.236 C594.039,779.236 597.169,780.53 599.44,783.119 C601.711,785.707 602.846,789.293 602.846,793.877 C602.846,798.439 601.711,802.02 599.44,804.619 C597.169,807.218 594.039,808.517 590.049,808.517 C586.049,808.517 582.916,807.218 580.651,804.619 C578.385,802.02 577.252,798.439 577.252,793.877 C577.252,789.293 578.385,785.707 580.651,783.119 C582.916,780.53 586.049,779.236 590.049,779.236"/>
<path class="Lyrics" d="M1945.44,1068.96 L1945.44,1085.79 L1940.86,1085.79 L1940.86,1069.1 C1940.86,1066.47 1940.34,1064.49 1939.32,1063.18 C1938.29,1061.87 1936.75,1061.21 1934.69,1061.21 C1932.21,1061.21 1930.25,1062 1928.83,1063.58 C1927.4,1065.16 1926.69,1067.31 1926.69,1070.02 L1926.69,1085.79 L1922.08,1085.79 L1922.08,1047.04 L1926.69,1047.04 L1926.69,1062.23 C1927.78,1060.55 1929.07,1059.3 1930.56,1058.47 C1932.05,1057.64 1933.76,1057.23 1935.7,1057.23 C1938.91,1057.23 1941.33,1058.22 1942.97,1060.2 C1944.62,1062.19 1945.44,1065.11 1945.44,1068.96 M1967.25,1071.77 C1963.54,1071.77 1960.97,1072.2 1959.55,1073.04 C1958.12,1073.88 1957.4,1075.33 1957.4,1077.37 C1957.4,1078.99 1957.94,1080.29 1959.01,1081.24 C1960.09,1082.2 1961.55,1082.68 1963.39,1082.68 C1965.93,1082.68 1967.97,1081.78 1969.5,1079.98 C1971.03,1078.18 1971.8,1075.78 1971.8,1072.79 L1971.8,1071.77 L1967.25,1071.77 M1976.39,1069.88 L1976.39,1085.79 L1971.8,1085.79 L1971.8,1081.56 C1970.75,1083.25 1969.45,1084.5 1967.89,1085.31 C1966.33,1086.11 1964.42,1086.51 1962.17,1086.51 C1959.32,1086.51 1957.05,1085.71 1955.36,1084.11 C1953.67,1082.51 1952.83,1080.36 1952.83,1077.67 C1952.83,1074.53 1953.88,1072.17 1955.97,1070.57 C1958.07,1068.98 1961.21,1068.18 1965.37,1068.18 L1971.8,1068.18 L1971.8,1067.74 C1971.8,1065.63 1971.1,1064 1969.72,1062.85 C1968.33,1061.69 1966.39,1061.12 1963.89,1061.12 C1962.3,1061.12 1960.74,1061.31 1959.23,1061.69 C1957.72,1062.07 1956.27,1062.64 1954.87,1063.4 L1954.87,1059.17 C1956.55,1058.52 1958.18,1058.04 1959.76,1057.71 C1961.33,1057.39 1962.87,1057.23 1964.36,1057.23 C1968.39,1057.23 1971.4,1058.27 1973.4,1060.37 C1975.39,1062.46 1976.39,1065.63 1976.39,1069.88"/>
<path class="Lyrics" d="M2115.28,1061.12 C2112.82,1061.12 2110.88,1062.08 2109.45,1063.99 C2108.02,1065.91 2107.31,1068.54 2107.31,1071.87 C2107.31,1075.2 2108.02,1077.83 2109.44,1079.75 C2110.87,1081.67 2112.81,1082.63 2115.28,1082.63 C2117.73,1082.63 2119.66,1081.67 2121.09,1079.74 C2122.52,1077.82 2123.23,1075.19 2123.23,1071.87 C2123.23,1068.57 2122.52,1065.95 2121.09,1064.02 C2119.66,1062.08 2117.73,1061.12 2115.28,1061.12 M2115.28,1057.23 C2119.27,1057.23 2122.4,1058.52 2124.67,1061.11 C2126.94,1063.7 2128.08,1067.29 2128.08,1071.87 C2128.08,1076.43 2126.94,1080.01 2124.67,1082.61 C2122.4,1085.21 2119.27,1086.51 2115.28,1086.51 C2111.28,1086.51 2108.15,1085.21 2105.88,1082.61 C2103.62,1080.01 2102.48,1076.43 2102.48,1071.87 C2102.48,1067.29 2103.62,1063.7 2105.88,1061.11 C2108.15,1058.52 2111.28,1057.23 2115.28,1057.23"/>
<path class="Lyrics" d="M2373.46,790.97 L2373.46,807.798 L2368.88,807.798 L2368.88,791.111 C2368.88,788.476 2368.37,786.502 2367.34,785.189 C2366.31,783.877 2364.77,783.22 2362.71,783.22 C2360.23,783.22 2358.28,784.009 2356.85,785.587 C2355.42,787.166 2354.71,789.314 2354.71,792.033 L2354.71,807.798 L2350.1,807.798 L2350.1,769.048 L2354.71,769.048 L2354.71,784.236 C2355.8,782.559 2357.09,781.306 2358.58,780.478 C2360.07,779.65 2361.79,779.236 2363.72,779.236 C2366.93,779.236 2369.36,780.228 2371,782.212 C2372.64,784.197 2373.46,787.116 2373.46,790.97 M2395.27,793.783 C2391.56,793.783 2388.99,794.205 2387.57,795.048 C2386.14,795.892 2385.43,797.335 2385.43,799.377 C2385.43,801.002 2385.96,802.293 2387.04,803.252 C2388.11,804.21 2389.57,804.689 2391.41,804.689 C2393.95,804.689 2395.99,803.788 2397.52,801.986 C2399.05,800.184 2399.82,797.788 2399.82,794.798 L2399.82,793.783 L2395.27,793.783 M2404.41,791.892 L2404.41,807.798 L2399.82,807.798 L2399.82,803.564 C2398.78,805.262 2397.47,806.512 2395.91,807.314 C2394.35,808.116 2392.44,808.517 2390.19,808.517 C2387.34,808.517 2385.07,807.718 2383.38,806.119 C2381.69,804.52 2380.85,802.371 2380.85,799.673 C2380.85,796.538 2381.9,794.173 2384,792.58 C2386.1,790.986 2389.23,790.189 2393.4,790.189 L2399.82,790.189 L2399.82,789.752 C2399.82,787.637 2399.12,786.004 2397.74,784.853 C2396.35,783.702 2394.41,783.127 2391.91,783.127 C2390.32,783.127 2388.77,783.317 2387.25,783.697 C2385.74,784.077 2384.29,784.647 2382.9,785.408 L2382.9,781.173 C2384.57,780.528 2386.2,780.043 2387.78,779.72 C2389.36,779.397 2390.89,779.236 2392.38,779.236 C2396.41,779.236 2399.42,780.283 2401.42,782.377 C2403.41,784.47 2404.41,787.642 2404.41,791.892"/>
<path class="Lyrics" d="M2314.3,1068.96 L2314.3,1085.79 L2309.72,1085.79 L2309.72,1069.1 C2309.72,1066.47 2309.2,1064.49 2308.18,1063.18 C2307.15,1061.87 2305.61,1061.21 2303.55,1061.21 C2301.07,1061.21 2299.11,1062 2297.69,1063.58 C2296.26,1065.16 2295.55,1067.31 2295.55,1070.02 L2295.55,1085.79 L2290.94,1085.79 L2290.94,1047.04 L2295.55,1047.04 L2295.55,1062.23 C2296.64,1060.55 2297.93,1059.3 2299.42,1058.47 C2300.91,1057.64 2302.62,1057.23 2304.56,1057.23 C2307.77,1057.23 2310.19,1058.22 2311.83,1060.2 C2313.47,1062.19 2314.3,1065.11 2314.3,1068.96 M2336.11,1071.77 C2332.4,1071.77 2329.83,1072.2 2328.4,1073.04 C2326.98,1073.88 2326.26,1075.33 2326.26,1077.37 C2326.26,1078.99 2326.8,1080.29 2327.87,1081.24 C2328.95,1082.2 2330.4,1082.68 2332.25,1082.68 C2334.79,1082.68 2336.83,1081.78 2338.36,1079.98 C2339.89,1078.18 2340.65,1075.78 2340.65,1072.79 L2340.65,1071.77 L2336.11,1071.77 M2345.25,1069.88 L2345.25,1085.79 L2340.65,1085.79 L2340.65,1081.56 C2339.61,1083.25 2338.31,1084.5 2336.75,1085.31 C2335.19,1086.11 2333.28,1086.51 2331.03,1086.51 C2328.18,1086.51 2325.9,1085.71 2324.22,1084.11 C2322.53,1082.51 2321.69,1080.36 2321.69,1077.67 C2321.69,1074.53 2322.74,1072.17 2324.83,1070.57 C2326.93,1068.98 2330.07,1068.18 2334.23,1068.18 L2340.65,1068.18 L2340.65,1067.74 C2340.65,1065.63 2339.96,1064 2338.58,1062.85 C2337.19,1061.69 2335.25,1061.12 2332.75,1061.12 C2331.15,1061.12 2329.6,1061.31 2328.09,1061.69 C2326.58,1062.07 2325.13,1062.64 2323.73,1063.4 L2323.73,1059.17 C2325.41,1058.52 2327.04,1058.04 2328.62,1057.71 C2330.19,1057.39 2331.73,1057.23 2333.22,1057.23 C2337.25,1057.23 2340.26,1058.27 2342.26,1060.37 C2344.25,1062.46 2345.25,1065.63 2345.25,1069.88 M2355.33,1079.46 L2360.58,1079.46 L2360.58,1085.79 L2355.33,1085.79 L2355.33,1079.46 "/>
<path class="Lyrics" d="M1686.03,1088.38 C1684.74,1091.71 1683.48,1093.87 1682.25,1094.88 C1681.02,1095.89 1679.37,1096.4 1677.31,1096.4 L1673.66,1096.4 L1673.66,1092.57 L1676.34,1092.57 C1677.6,1092.57 1678.58,1092.27 1679.28,1091.67 C1679.98,1091.07 1680.75,1089.66 1681.61,1087.43 L1682.42,1085.34 L1671.14,1057.9 L1676,1057.9 L1684.72,1079.71 L1693.44,1057.9 L1698.28,1057.9 L1686.03,1088.38 M1715.41,1061.12 C1712.95,1061.12 1711,1062.08 1709.58,1063.99 C1708.15,1065.91 1707.44,1068.54 1707.44,1071.87 C1707.44,1075.2 1708.15,1077.83 1709.57,1079.75 C1710.99,1081.67 1712.94,1082.63 1715.41,1082.63 C1717.85,1082.63 1719.79,1081.67 1721.22,1079.74 C1722.65,1077.82 1723.36,1075.19 1723.36,1071.87 C1723.36,1068.57 1722.65,1065.95 1721.22,1064.02 C1719.79,1062.08 1717.85,1061.12 1715.41,1061.12 M1715.41,1057.23 C1719.4,1057.23 1722.53,1058.52 1724.8,1061.11 C1727.07,1063.7 1728.2,1067.29 1728.2,1071.87 C1728.2,1076.43 1727.07,1080.01 1724.8,1082.61 C1722.53,1085.21 1719.4,1086.51 1715.41,1086.51 C1711.41,1086.51 1708.27,1085.21 1706.01,1082.61 C1703.74,1080.01 1702.61,1076.43 1702.61,1071.87 C1702.61,1067.29 1703.74,1063.7 1706.01,1061.11 C1708.27,1058.52 1711.41,1057.23 1715.41,1057.23"/>
<path class="Lyrics" d="M828.489,790.97 L828.489,807.798 L823.911,807.798 L823.911,791.111 C823.911,788.476 823.398,786.502 822.372,785.189 C821.345,783.877 819.801,783.22 817.739,783.22 C815.26,783.22 813.306,784.009 811.879,785.587 C810.452,787.166 809.739,789.314 809.739,792.033 L809.739,807.798 L805.129,807.798 L805.129,769.048 L809.739,769.048 L809.739,784.236 C810.832,782.559 812.124,781.306 813.614,780.478 C815.103,779.65 816.817,779.236 818.754,779.236 C821.963,779.236 824.387,780.228 826.028,782.212 C827.668,784.197 828.489,787.116 828.489,790.97 M850.301,793.783 C846.593,793.783 844.025,794.205 842.598,795.048 C841.171,795.892 840.457,797.335 840.457,799.377 C840.457,801.002 840.994,802.293 842.067,803.252 C843.14,804.21 844.598,804.689 846.442,804.689 C848.983,804.689 851.02,803.788 852.551,801.986 C854.082,800.184 854.848,797.788 854.848,794.798 L854.848,793.783 L850.301,793.783 M859.442,791.892 L859.442,807.798 L854.848,807.798 L854.848,803.564 C853.806,805.262 852.504,806.512 850.942,807.314 C849.379,808.116 847.473,808.517 845.223,808.517 C842.369,808.517 840.098,807.718 838.411,806.119 C836.723,804.52 835.879,802.371 835.879,799.673 C835.879,796.538 836.929,794.173 839.028,792.58 C841.127,790.986 844.26,790.189 848.426,790.189 L854.848,790.189 L854.848,789.752 C854.848,787.637 854.155,786.004 852.77,784.853 C851.385,783.702 849.442,783.127 846.942,783.127 C845.348,783.127 843.796,783.317 842.286,783.697 C840.775,784.077 839.322,784.647 837.926,785.408 L837.926,781.173 C839.603,780.528 841.231,780.043 842.809,779.72 C844.387,779.397 845.921,779.236 847.411,779.236 C851.442,779.236 854.455,780.283 856.45,782.377 C858.444,784.47 859.442,787.642 859.442,791.892 M880.473,810.392 C879.181,813.715 877.921,815.882 876.692,816.892 C875.463,817.903 873.817,818.408 871.754,818.408 L868.098,818.408 L868.098,814.58 L870.786,814.58 C872.046,814.58 873.025,814.28 873.723,813.681 C874.421,813.082 875.197,811.668 876.051,809.439 L876.864,807.345 L865.582,779.908 L870.442,779.908 L879.161,801.72 L887.879,779.908 L892.723,779.908 L880.473,810.392 "/>
<path class="Lyrics" d="M1233.36,1071.77 C1229.65,1071.77 1227.08,1072.2 1225.66,1073.04 C1224.23,1073.88 1223.52,1075.33 1223.52,1077.37 C1223.52,1078.99 1224.05,1080.29 1225.12,1081.24 C1226.2,1082.2 1227.66,1082.68 1229.5,1082.68 C1232.04,1082.68 1234.08,1081.78 1235.61,1079.98 C1237.14,1078.18 1237.91,1075.78 1237.91,1072.79 L1237.91,1071.77 L1233.36,1071.77 M1242.5,1069.88 L1242.5,1085.79 L1237.91,1085.79 L1237.91,1081.56 C1236.86,1083.25 1235.56,1084.5 1234,1085.31 C1232.44,1086.11 1230.53,1086.51 1228.28,1086.51 C1225.43,1086.51 1223.16,1085.71 1221.47,1084.11 C1219.78,1082.51 1218.94,1080.36 1218.94,1077.67 C1218.94,1074.53 1219.99,1072.17 1222.09,1070.57 C1224.18,1068.98 1227.32,1068.18 1231.48,1068.18 L1237.91,1068.18 L1237.91,1067.74 C1237.91,1065.63 1237.21,1064 1235.83,1062.85 C1234.44,1061.69 1232.5,1061.12 1230,1061.12 C1228.41,1061.12 1226.85,1061.31 1225.34,1061.69 C1223.83,1062.07 1222.38,1062.64 1220.98,1063.4 L1220.98,1059.17 C1222.66,1058.52 1224.29,1058.04 1225.87,1057.71 C1227.45,1057.39 1228.98,1057.23 1230.47,1057.23 C1234.5,1057.23 1237.51,1058.27 1239.51,1060.37 C1241.5,1062.46 1242.5,1065.63 1242.5,1069.88 M1275.78,1070.7 L1275.78,1072.95 L1254.72,1072.95 C1254.92,1076.09 1255.87,1078.49 1257.57,1080.15 C1259.27,1081.81 1261.65,1082.63 1264.69,1082.63 C1266.45,1082.63 1268.15,1082.42 1269.8,1081.99 C1271.46,1081.55 1273.09,1080.91 1274.72,1080.04 L1274.72,1084.37 C1273.07,1085.07 1271.39,1085.6 1269.66,1085.96 C1267.94,1086.33 1266.19,1086.51 1264.41,1086.51 C1259.96,1086.51 1256.43,1085.21 1253.84,1082.63 C1251.24,1080.04 1249.94,1076.54 1249.94,1072.12 C1249.94,1067.56 1251.17,1063.93 1253.63,1061.25 C1256.1,1058.57 1259.42,1057.23 1263.61,1057.23 C1267.36,1057.23 1270.33,1058.44 1272.51,1060.85 C1274.69,1063.27 1275.78,1066.55 1275.78,1070.7 M1271.2,1069.35 C1271.17,1066.84 1270.47,1064.84 1269.1,1063.35 C1267.73,1061.86 1265.92,1061.12 1263.66,1061.12 C1261.1,1061.12 1259.06,1061.84 1257.52,1063.28 C1255.99,1064.73 1255.1,1066.76 1254.87,1069.38 L1271.2,1069.35 "/>
<path class="Lyrics" d="M1165.12,810.392 C1163.83,813.715 1162.57,815.882 1161.34,816.892 C1160.11,817.903 1158.46,818.408 1156.4,818.408 L1152.74,818.408 L1152.74,814.58 L1155.43,814.58 C1156.69,814.58 1157.67,814.28 1158.37,813.681 C1159.07,813.082 1159.84,811.668 1160.7,809.439 L1161.51,807.345 L1150.23,779.908 L1155.09,779.908 L1163.81,801.72 L1172.52,779.908 L1177.37,779.908 L1165.12,810.392 M1194.49,783.127 C1192.03,783.127 1190.09,784.085 1188.66,786.002 C1187.24,787.918 1186.52,790.543 1186.52,793.877 C1186.52,797.21 1187.23,799.837 1188.66,801.759 C1190.08,803.681 1192.02,804.642 1194.49,804.642 C1196.94,804.642 1198.88,803.679 1200.31,801.752 C1201.73,799.824 1202.45,797.199 1202.45,793.877 C1202.45,790.574 1201.73,787.957 1200.31,786.025 C1198.88,784.093 1196.94,783.127 1194.49,783.127 M1194.49,779.236 C1198.48,779.236 1201.61,780.53 1203.88,783.119 C1206.15,785.707 1207.29,789.293 1207.29,793.877 C1207.29,798.439 1206.15,802.02 1203.88,804.619 C1201.61,807.218 1198.48,808.517 1194.49,808.517 C1190.49,808.517 1187.36,807.218 1185.09,804.619 C1182.83,802.02 1181.7,798.439 1181.7,793.877 C1181.7,789.293 1182.83,785.707 1185.09,783.119 C1187.36,780.53 1190.49,779.236 1194.49,779.236"/>
<path class="Lyrics" d="M1067.56,1088.38 C1066.27,1091.71 1065.01,1093.87 1063.78,1094.88 C1062.55,1095.89 1060.91,1096.4 1058.84,1096.4 L1055.19,1096.4 L1055.19,1092.57 L1057.88,1092.57 C1059.14,1092.57 1060.11,1092.27 1060.81,1091.67 C1061.51,1091.07 1062.29,1089.66 1063.14,1087.43 L1063.95,1085.34 L1052.67,1057.9 L1057.53,1057.9 L1066.25,1079.71 L1074.97,1057.9 L1079.81,1057.9 L1067.56,1088.38 M1096.94,1061.12 C1094.48,1061.12 1092.54,1062.08 1091.11,1063.99 C1089.68,1065.91 1088.97,1068.54 1088.97,1071.87 C1088.97,1075.2 1089.68,1077.83 1091.1,1079.75 C1092.52,1081.67 1094.47,1082.63 1096.94,1082.63 C1099.39,1082.63 1101.32,1081.67 1102.75,1079.74 C1104.18,1077.82 1104.89,1075.19 1104.89,1071.87 C1104.89,1068.57 1104.18,1065.95 1102.75,1064.02 C1101.32,1062.08 1099.39,1061.12 1096.94,1061.12 M1096.94,1057.23 C1100.93,1057.23 1104.06,1058.52 1106.33,1061.11 C1108.6,1063.7 1109.73,1067.29 1109.73,1071.87 C1109.73,1076.43 1108.6,1080.01 1106.33,1082.61 C1104.06,1085.21 1100.93,1086.51 1096.94,1086.51 C1092.94,1086.51 1089.81,1085.21 1087.54,1082.61 C1085.27,1080.01 1084.14,1076.43 1084.14,1071.87 C1084.14,1067.29 1085.27,1063.7 1087.54,1061.11 C1089.81,1058.52 1092.94,1057.23 1096.94,1057.23"/>
<path class="Lyrics" d="M1325.39,793.783 C1321.68,793.783 1319.11,794.205 1317.69,795.048 C1316.26,795.892 1315.55,797.335 1315.55,799.377 C1315.55,801.002 1316.08,802.293 1317.15,803.252 C1318.23,804.21 1319.69,804.689 1321.53,804.689 C1324.07,804.689 1326.11,803.788 1327.64,801.986 C1329.17,800.184 1329.94,797.788 1329.94,794.798 L1329.94,793.783 L1325.39,793.783 M1334.53,791.892 L1334.53,807.798 L1329.94,807.798 L1329.94,803.564 C1328.89,805.262 1327.59,806.512 1326.03,807.314 C1324.47,808.116 1322.56,808.517 1320.31,808.517 C1317.46,808.517 1315.19,807.718 1313.5,806.119 C1311.81,804.52 1310.97,802.371 1310.97,799.673 C1310.97,796.538 1312.02,794.173 1314.12,792.58 C1316.21,790.986 1319.35,790.189 1323.51,790.189 L1329.94,790.189 L1329.94,789.752 C1329.94,787.637 1329.24,786.004 1327.86,784.853 C1326.47,783.702 1324.53,783.127 1322.03,783.127 C1320.44,783.127 1318.88,783.317 1317.37,783.697 C1315.86,784.077 1314.41,784.647 1313.01,785.408 L1313.01,781.173 C1314.69,780.528 1316.32,780.043 1317.9,779.72 C1319.48,779.397 1321.01,779.236 1322.5,779.236 C1326.53,779.236 1329.54,780.283 1331.54,782.377 C1333.53,784.47 1334.53,787.642 1334.53,791.892 M1367.81,792.705 L1367.81,794.955 L1346.75,794.955 C1346.95,798.101 1347.9,800.502 1349.6,802.158 C1351.3,803.814 1353.68,804.642 1356.72,804.642 C1358.48,804.642 1360.18,804.426 1361.83,803.994 C1363.49,803.561 1365.12,802.913 1366.75,802.048 L1366.75,806.377 C1365.1,807.074 1363.42,807.606 1361.69,807.97 C1359.97,808.335 1358.22,808.517 1356.44,808.517 C1351.99,808.517 1348.46,807.223 1345.87,804.634 C1343.27,802.046 1341.97,798.543 1341.97,794.127 C1341.97,789.564 1343.2,785.942 1345.66,783.259 C1348.13,780.577 1351.45,779.236 1355.64,779.236 C1359.39,779.236 1362.36,780.444 1364.54,782.861 C1366.72,785.278 1367.81,788.559 1367.81,792.705 M1363.23,791.361 C1363.2,788.851 1362.5,786.851 1361.13,785.361 C1359.76,783.871 1357.95,783.127 1355.69,783.127 C1353.13,783.127 1351.09,783.848 1349.55,785.291 C1348.02,786.733 1347.13,788.767 1346.9,791.392 L1363.23,791.361 "/>
<path class="Lyrics" d="M775.11,1068.96 L775.11,1085.79 L770.532,1085.79 L770.532,1069.1 C770.532,1066.47 770.019,1064.49 768.993,1063.18 C767.966,1061.87 766.422,1061.21 764.36,1061.21 C761.881,1061.21 759.927,1062 758.5,1063.58 C757.073,1065.16 756.36,1067.31 756.36,1070.02 L756.36,1085.79 L751.75,1085.79 L751.75,1047.04 L756.36,1047.04 L756.36,1062.23 C757.453,1060.55 758.745,1059.3 760.235,1058.47 C761.724,1057.64 763.438,1057.23 765.375,1057.23 C768.584,1057.23 771.008,1058.22 772.649,1060.2 C774.289,1062.19 775.11,1065.11 775.11,1068.96 M796.922,1071.77 C793.214,1071.77 790.646,1072.2 789.219,1073.04 C787.792,1073.88 787.078,1075.33 787.078,1077.37 C787.078,1078.99 787.615,1080.29 788.688,1081.24 C789.761,1082.2 791.219,1082.68 793.063,1082.68 C795.604,1082.68 797.641,1081.78 799.172,1079.98 C800.703,1078.18 801.469,1075.78 801.469,1072.79 L801.469,1071.77 L796.922,1071.77 M806.063,1069.88 L806.063,1085.79 L801.469,1085.79 L801.469,1081.56 C800.427,1083.25 799.125,1084.5 797.563,1085.31 C796,1086.11 794.094,1086.51 791.844,1086.51 C788.99,1086.51 786.719,1085.71 785.032,1084.11 C783.344,1082.51 782.5,1080.36 782.5,1077.67 C782.5,1074.53 783.55,1072.17 785.649,1070.57 C787.748,1068.98 790.881,1068.18 795.047,1068.18 L801.469,1068.18 L801.469,1067.74 C801.469,1065.63 800.776,1064 799.391,1062.85 C798.006,1061.69 796.063,1061.12 793.563,1061.12 C791.969,1061.12 790.417,1061.31 788.907,1061.69 C787.396,1062.07 785.943,1062.64 784.547,1063.4 L784.547,1059.17 C786.224,1058.52 787.852,1058.04 789.43,1057.71 C791.008,1057.39 792.542,1057.23 794.032,1057.23 C798.063,1057.23 801.076,1058.27 803.071,1060.37 C805.065,1062.46 806.063,1065.63 806.063,1069.88 M827.094,1088.38 C825.802,1091.71 824.542,1093.87 823.313,1094.88 C822.084,1095.89 820.438,1096.4 818.375,1096.4 L814.719,1096.4 L814.719,1092.57 L817.407,1092.57 C818.667,1092.57 819.646,1092.27 820.344,1091.67 C821.042,1091.07 821.818,1089.66 822.672,1087.43 L823.485,1085.34 L812.203,1057.9 L817.063,1057.9 L825.782,1079.71 L834.5,1057.9 L839.344,1057.9 L827.094,1088.38 "/>
<path class="Lyrics" d="M1774.33,790.97 L1774.33,807.798 L1769.75,807.798 L1769.75,791.111 C1769.75,788.476 1769.24,786.502 1768.21,785.189 C1767.18,783.877 1765.64,783.22 1763.58,783.22 C1761.1,783.22 1759.14,784.009 1757.72,785.587 C1756.29,787.166 1755.58,789.314 1755.58,792.033 L1755.58,807.798 L1750.97,807.798 L1750.97,769.048 L1755.58,769.048 L1755.58,784.236 C1756.67,782.559 1757.96,781.306 1759.45,780.478 C1760.94,779.65 1762.65,779.236 1764.59,779.236 C1767.8,779.236 1770.23,780.228 1771.87,782.212 C1773.51,784.197 1774.33,787.116 1774.33,790.97 M1796.14,793.783 C1792.43,793.783 1789.86,794.205 1788.44,795.048 C1787.01,795.892 1786.3,797.335 1786.3,799.377 C1786.3,801.002 1786.83,802.293 1787.9,803.252 C1788.98,804.21 1790.44,804.689 1792.28,804.689 C1794.82,804.689 1796.86,803.788 1798.39,801.986 C1799.92,800.184 1800.69,797.788 1800.69,794.798 L1800.69,793.783 L1796.14,793.783 M1805.28,791.892 L1805.28,807.798 L1800.69,807.798 L1800.69,803.564 C1799.64,805.262 1798.34,806.512 1796.78,807.314 C1795.22,808.116 1793.31,808.517 1791.06,808.517 C1788.21,808.517 1785.94,807.718 1784.25,806.119 C1782.56,804.52 1781.72,802.371 1781.72,799.673 C1781.72,796.538 1782.77,794.173 1784.87,792.58 C1786.96,790.986 1790.1,790.189 1794.26,790.189 L1800.69,790.189 L1800.69,789.752 C1800.69,787.637 1799.99,786.004 1798.61,784.853 C1797.22,783.702 1795.28,783.127 1792.78,783.127 C1791.19,783.127 1789.63,783.317 1788.12,783.697 C1786.61,784.077 1785.16,784.647 1783.76,785.408 L1783.76,781.173 C1785.44,780.528 1787.07,780.043 1788.65,779.72 C1790.23,779.397 1791.76,779.236 1793.25,779.236 C1797.28,779.236 1800.29,780.283 1802.29,782.377 C1804.28,784.47 1805.28,787.642 1805.28,791.892"/>
<path class="Lyrics" d="M517.204,1048.62 L522.595,1048.62 L532.907,1063.9 L543.142,1048.62 L548.548,1048.62 L535.407,1068.09 L535.407,1085.79 L530.345,1085.79 L530.345,1068.09 L517.204,1048.62 M558.907,1071.77 C555.199,1071.77 552.631,1072.2 551.204,1073.04 C549.777,1073.88 549.064,1075.33 549.064,1077.37 C549.064,1078.99 549.6,1080.29 550.673,1081.24 C551.746,1082.2 553.204,1082.68 555.048,1082.68 C557.59,1082.68 559.626,1081.78 561.157,1079.98 C562.689,1078.18 563.454,1075.78 563.454,1072.79 L563.454,1071.77 L558.907,1071.77 M568.048,1069.88 L568.048,1085.79 L563.454,1085.79 L563.454,1081.56 C562.413,1083.25 561.111,1084.5 559.548,1085.31 C557.986,1086.11 556.079,1086.51 553.829,1086.51 C550.975,1086.51 548.704,1085.71 547.017,1084.11 C545.329,1082.51 544.486,1080.36 544.486,1077.67 C544.486,1074.53 545.535,1072.17 547.634,1070.57 C549.733,1068.98 552.866,1068.18 557.032,1068.18 L563.454,1068.18 L563.454,1067.74 C563.454,1065.63 562.762,1064 561.376,1062.85 C559.991,1061.69 558.048,1061.12 555.548,1061.12 C553.954,1061.12 552.402,1061.31 550.892,1061.69 C549.381,1062.07 547.928,1062.64 546.532,1063.4 L546.532,1059.17 C548.21,1058.52 549.837,1058.04 551.415,1057.71 C552.993,1057.39 554.527,1057.23 556.017,1057.23 C560.048,1057.23 563.061,1058.27 565.056,1060.37 C567.051,1062.46 568.048,1065.63 568.048,1069.88"/>
<path class="Lyrics" d="M2013.85,784.189 C2013.34,783.887 2012.78,783.666 2012.17,783.525 C2011.56,783.384 2010.89,783.314 2010.16,783.314 C2007.57,783.314 2005.58,784.158 2004.2,785.845 C2002.81,787.533 2002.12,789.955 2002.12,793.111 L2002.12,807.798 L1997.51,807.798 L1997.51,779.908 L2002.12,779.908 L2002.12,784.236 C2003.09,782.548 2004.34,781.293 2005.88,780.47 C2007.42,779.647 2009.3,779.236 2011.51,779.236 C2011.82,779.236 2012.17,779.257 2012.55,779.298 C2012.94,779.34 2013.36,779.403 2013.82,779.486 L2013.85,784.189 M2031.32,793.783 C2027.61,793.783 2025.04,794.205 2023.62,795.048 C2022.19,795.892 2021.48,797.335 2021.48,799.377 C2021.48,801.002 2022.01,802.293 2023.09,803.252 C2024.16,804.21 2025.62,804.689 2027.46,804.689 C2030,804.689 2032.04,803.788 2033.57,801.986 C2035.1,800.184 2035.87,797.788 2035.87,794.798 L2035.87,793.783 L2031.32,793.783 M2040.46,791.892 L2040.46,807.798 L2035.87,807.798 L2035.87,803.564 C2034.83,805.262 2033.52,806.512 2031.96,807.314 C2030.4,808.116 2028.49,808.517 2026.24,808.517 C2023.39,808.517 2021.12,807.718 2019.43,806.119 C2017.74,804.52 2016.9,802.371 2016.9,799.673 C2016.9,796.538 2017.95,794.173 2020.05,792.58 C2022.15,790.986 2025.28,790.189 2029.45,790.189 L2035.87,790.189 L2035.87,789.752 C2035.87,787.637 2035.17,786.004 2033.79,784.853 C2032.4,783.702 2030.46,783.127 2027.96,783.127 C2026.37,783.127 2024.81,783.317 2023.3,783.697 C2021.79,784.077 2020.34,784.647 2018.95,785.408 L2018.95,781.173 C2020.62,780.528 2022.25,780.043 2023.83,779.72 C2025.41,779.397 2026.94,779.236 2028.43,779.236 C2032.46,779.236 2035.47,780.283 2037.47,782.377 C2039.46,784.47 2040.46,787.642 2040.46,791.892"/>
<path class="Lyrics" d="M2179.69,783.127 C2177.23,783.127 2175.28,784.085 2173.86,786.002 C2172.43,787.918 2171.72,790.543 2171.72,793.877 C2171.72,797.21 2172.43,799.837 2173.85,801.759 C2175.27,803.681 2177.22,804.642 2179.69,804.642 C2182.13,804.642 2184.07,803.679 2185.5,801.752 C2186.92,799.824 2187.64,797.199 2187.64,793.877 C2187.64,790.574 2186.92,787.957 2185.5,786.025 C2184.07,784.093 2182.13,783.127 2179.69,783.127 M2179.69,779.236 C2183.67,779.236 2186.81,780.53 2189.08,783.119 C2191.35,785.707 2192.48,789.293 2192.48,793.877 C2192.48,798.439 2191.35,802.02 2189.08,804.619 C2186.81,807.218 2183.67,808.517 2179.69,808.517 C2175.69,808.517 2172.55,807.218 2170.29,804.619 C2168.02,802.02 2166.89,798.439 2166.89,793.877 C2166.89,789.293 2168.02,785.707 2170.29,783.119 C2172.55,780.53 2175.69,779.236 2179.69,779.236"/>
<polyline class="LyricsLineSegment" fill="none" stroke="#000000" stroke-width="2.48" stroke-linejoin="bevel" points="894.984,806.558 997.43,806.558"/>
<path class="Page" d="M1227.84,3736.4 L1227.84,3735.09 L1233.16,3734.4 L1233.16,3705.15 L1231.88,3705.15 C1227.68,3705.15 1224.81,3705.32 1223.27,3705.65 L1222.59,3710.85 L1220.92,3710.85 L1220.92,3703.01 L1250.31,3703.01 L1250.31,3710.85 L1248.61,3710.85 L1247.94,3705.65 C1247.44,3705.54 1246.35,3705.43 1244.67,3705.34 C1242.99,3705.25 1241.16,3705.2 1239.17,3705.2 L1237.95,3705.2 L1237.95,3734.4 L1243.27,3735.09 L1243.27,3736.4 L1227.84,3736.4 M1265.88,3712.37 L1265.88,3718.7 L1264.81,3718.7 L1263.36,3715.96 C1262.54,3715.96 1261.55,3716.08 1260.41,3716.3 C1259.27,3716.52 1258.29,3716.82 1257.47,3717.18 L1257.47,3734.65 L1261.47,3735.28 L1261.47,3736.4 L1250.36,3736.4 L1250.36,3735.28 L1253.33,3734.65 L1253.33,3714.73 L1250.36,3714.12 L1250.36,3713 L1257.19,3713 L1257.41,3715.9 C1258.41,3715.08 1259.76,3714.28 1261.46,3713.52 C1263.16,3712.75 1264.51,3712.37 1265.5,3712.37 L1265.88,3712.37 M1277.89,3712.46 C1280.45,3712.46 1282.34,3712.99 1283.54,3714.03 C1284.74,3715.08 1285.34,3716.68 1285.34,3718.84 L1285.34,3734.65 L1288.25,3735.28 L1288.25,3736.4 L1281.83,3736.4 L1281.36,3734.06 C1279.46,3735.95 1277.05,3736.9 1274.11,3736.9 C1270.11,3736.9 1268.11,3734.58 1268.11,3729.93 C1268.11,3728.37 1268.41,3727.08 1269.02,3726.06 C1269.62,3725.04 1270.59,3724.26 1271.91,3723.71 C1273.24,3723.17 1275.17,3722.88 1277.69,3722.82 L1281.2,3722.73 L1281.2,3719.07 C1281.2,3717.46 1280.91,3716.27 1280.32,3715.51 C1279.73,3714.75 1278.82,3714.37 1277.59,3714.37 C1275.94,3714.37 1274.42,3714.76 1273.03,3715.53 L1272.19,3718.45 L1270.8,3718.45 L1270.8,3713.34 C1273.48,3712.76 1275.85,3712.46 1277.89,3712.46 M1281.2,3724.48 L1277.94,3724.57 C1275.72,3724.66 1274.21,3725.09 1273.42,3725.87 C1272.63,3726.65 1272.23,3727.95 1272.23,3729.78 C1272.23,3732.7 1273.42,3734.17 1275.8,3734.17 C1276.93,3734.17 1277.91,3734.04 1278.73,3733.78 C1279.54,3733.52 1280.37,3733.19 1281.2,3732.79 L1281.2,3724.48 M1297,3714.89 C1298.28,3714.16 1299.64,3713.56 1301.09,3713.08 C1302.53,3712.61 1303.73,3712.37 1304.7,3712.37 C1306.72,3712.37 1308.25,3712.96 1309.28,3714.14 C1310.31,3715.31 1310.83,3717.02 1310.83,3719.26 L1310.83,3734.65 L1313.67,3735.28 L1313.67,3736.4 L1303.58,3736.4 L1303.58,3735.28 L1306.69,3734.65 L1306.69,3719.71 C1306.69,3718.34 1306.35,3717.26 1305.68,3716.46 C1305.01,3715.67 1303.97,3715.28 1302.56,3715.28 C1301.06,3715.28 1299.23,3715.52 1297.06,3716.01 L1297.06,3734.65 L1300.22,3735.28 L1300.22,3736.4 L1290.11,3736.4 L1290.11,3735.28 L1292.92,3734.65 L1292.92,3714.73 L1290.11,3714.12 L1290.11,3713 L1296.78,3713 L1297,3714.89 M1332.44,3729.82 C1332.44,3732.15 1331.7,3733.91 1330.23,3735.1 C1328.77,3736.3 1326.59,3736.9 1323.72,3736.9 C1322.56,3736.9 1321.28,3736.78 1319.88,3736.54 C1318.48,3736.3 1317.38,3736.03 1316.58,3735.73 L1316.58,3729.98 L1317.7,3729.98 L1318.92,3733.25 C1320.16,3734.37 1321.78,3734.93 1323.78,3734.93 C1327,3734.93 1328.61,3733.55 1328.61,3730.79 C1328.61,3728.77 1327.34,3727.33 1324.8,3726.46 L1322.58,3725.75 C1320.9,3725.19 1319.68,3724.64 1318.92,3724.07 C1318.16,3723.51 1317.57,3722.82 1317.16,3722 C1316.74,3721.17 1316.53,3720.18 1316.53,3719.03 C1316.53,3716.96 1317.23,3715.34 1318.63,3714.15 C1320.03,3712.96 1321.93,3712.37 1324.33,3712.37 C1326.04,3712.37 1328.18,3712.63 1330.75,3713.14 L1330.75,3718.25 L1329.58,3718.25 L1328.53,3715.53 C1327.66,3714.76 1326.27,3714.37 1324.38,3714.37 C1323.03,3714.37 1322.01,3714.7 1321.3,3715.36 C1320.59,3716.02 1320.23,3716.92 1320.23,3718.04 C1320.23,3718.99 1320.55,3719.79 1321.2,3720.44 C1321.84,3721.09 1322.8,3721.63 1324.09,3722.06 C1326.54,3722.89 1328.14,3723.5 1328.88,3723.88 C1329.63,3724.26 1330.26,3724.73 1330.79,3725.28 C1331.32,3725.84 1331.72,3726.48 1332.01,3727.19 C1332.29,3727.9 1332.44,3728.78 1332.44,3729.82 M1355.34,3734.98 C1354.53,3735.58 1353.41,3736.06 1351.98,3736.39 C1350.56,3736.73 1349.1,3736.9 1347.61,3736.9 C1340.02,3736.9 1336.22,3732.78 1336.22,3724.53 C1336.22,3720.62 1337.19,3717.62 1339.13,3715.52 C1341.06,3713.42 1343.83,3712.37 1347.44,3712.37 C1349.68,3712.37 1352.13,3712.63 1354.78,3713.14 L1354.78,3719.67 L1353.41,3719.67 L1352.33,3715.53 C1350.95,3714.76 1349.3,3714.37 1347.38,3714.37 C1342.93,3714.37 1340.7,3717.76 1340.7,3724.53 C1340.7,3728.05 1341.38,3730.56 1342.73,3732.06 C1344.09,3733.56 1346.19,3734.31 1349.03,3734.31 C1351.45,3734.31 1353.55,3734.04 1355.34,3733.5 L1355.34,3734.98 M1373.44,3712.37 L1373.44,3718.7 L1372.38,3718.7 L1370.92,3715.96 C1370.1,3715.96 1369.12,3716.08 1367.98,3716.3 C1366.84,3716.52 1365.85,3716.82 1365.03,3717.18 L1365.03,3734.65 L1369.03,3735.28 L1369.03,3736.4 L1357.92,3736.4 L1357.92,3735.28 L1360.89,3734.65 L1360.89,3714.73 L1357.92,3714.12 L1357.92,3713 L1364.75,3713 L1364.97,3715.9 C1365.97,3715.08 1367.32,3714.28 1369.02,3713.52 C1370.73,3712.75 1372.07,3712.37 1373.06,3712.37 L1373.44,3712.37 M1383.31,3705.35 C1383.31,3706.08 1383.05,3706.71 1382.52,3707.25 C1381.98,3707.78 1381.34,3708.04 1380.59,3708.04 C1379.86,3708.04 1379.23,3707.78 1378.7,3707.25 C1378.17,3706.71 1377.91,3706.08 1377.91,3705.35 C1377.91,3704.6 1378.17,3703.96 1378.7,3703.43 C1379.23,3702.9 1379.86,3702.64 1380.59,3702.64 C1381.34,3702.64 1381.98,3702.9 1382.52,3703.43 C1383.05,3703.96 1383.31,3704.6 1383.31,3705.35 M1383.06,3734.65 L1387.08,3735.28 L1387.08,3736.4 L1374.95,3736.4 L1374.95,3735.28 L1378.94,3734.65 L1378.94,3714.73 L1375.63,3714.12 L1375.63,3713 L1383.06,3713 L1383.06,3734.65 M1407.11,3724.04 C1407.11,3720.99 1406.58,3718.72 1405.52,3717.22 C1404.45,3715.73 1402.81,3714.98 1400.58,3714.98 C1399.6,3714.98 1398.63,3715.07 1397.66,3715.25 C1396.7,3715.42 1396.01,3715.61 1395.58,3715.81 L1395.58,3734.35 C1396.97,3734.63 1398.64,3734.76 1400.58,3734.76 C1402.87,3734.76 1404.53,3733.87 1405.56,3732.07 C1406.59,3730.28 1407.11,3727.6 1407.11,3724.04 M1391.44,3702.73 L1388.03,3702.14 L1388.03,3701.01 L1395.58,3701.01 L1395.58,3709.39 C1395.58,3710.28 1395.53,3711.92 1395.42,3714.31 C1397.09,3713.02 1399.18,3712.37 1401.7,3712.37 C1404.89,3712.37 1407.34,3713.34 1409.04,3715.27 C1410.74,3717.2 1411.59,3720.13 1411.59,3724.04 C1411.59,3728.25 1410.66,3731.45 1408.79,3733.63 C1406.92,3735.81 1404.22,3736.9 1400.69,3736.9 C1399.26,3736.9 1397.69,3736.74 1395.97,3736.43 C1394.25,3736.11 1392.74,3735.69 1391.44,3735.18 L1391.44,3702.73 M1420,3724.62 L1420,3725.07 C1420,3727.37 1420.26,3729.15 1420.77,3730.42 C1421.28,3731.69 1422.06,3732.65 1423.11,3733.32 C1424.16,3733.98 1425.54,3734.31 1427.25,3734.31 C1428.15,3734.31 1429.21,3734.23 1430.44,3734.08 C1431.67,3733.93 1432.68,3733.77 1433.48,3733.59 L1433.48,3734.98 C1432.68,3735.5 1431.6,3735.95 1430.23,3736.33 C1428.86,3736.71 1427.46,3736.9 1426.03,3736.9 C1422.4,3736.9 1419.74,3735.92 1418.05,3733.96 C1416.37,3732.01 1415.53,3728.86 1415.53,3724.53 C1415.53,3720.44 1416.39,3717.4 1418.09,3715.39 C1419.8,3713.38 1422.24,3712.37 1425.41,3712.37 C1431.41,3712.37 1434.41,3715.77 1434.41,3722.57 L1434.41,3724.62 L1420,3724.62 M1425.41,3714.37 C1423.68,3714.37 1422.35,3715.07 1421.44,3716.46 C1420.52,3717.85 1420.06,3719.91 1420.06,3722.64 L1430.06,3722.64 C1430.06,3719.66 1429.68,3717.53 1428.92,3716.27 C1428.16,3715 1426.99,3714.37 1425.41,3714.37 M1454.16,3734.65 C1452.28,3736.15 1450.09,3736.9 1447.59,3736.9 C1441.2,3736.9 1438,3732.91 1438,3724.92 C1438,3720.82 1438.9,3717.71 1440.71,3715.57 C1442.52,3713.44 1445.18,3712.37 1448.7,3712.37 C1450.49,3712.37 1452.31,3712.56 1454.16,3712.95 C1454.06,3712.4 1454.02,3711.02 1454.02,3708.81 L1454.02,3702.73 L1450.08,3702.14 L1450.08,3701.01 L1458.14,3701.01 L1458.14,3734.65 L1461.03,3735.28 L1461.03,3736.4 L1454.45,3736.4 L1454.16,3734.65 M1442.48,3724.92 C1442.48,3728.07 1443.02,3730.43 1444.08,3731.98 C1445.14,3733.53 1446.77,3734.31 1448.95,3734.31 C1450.83,3734.31 1452.52,3733.98 1454.02,3733.34 L1454.02,3714.84 C1452.54,3714.56 1450.85,3714.42 1448.95,3714.42 C1444.64,3714.42 1442.48,3717.92 1442.48,3724.92 M1493.48,3724.04 C1493.48,3720.99 1492.95,3718.72 1491.89,3717.22 C1490.83,3715.73 1489.18,3714.98 1486.95,3714.98 C1485.97,3714.98 1485,3715.07 1484.04,3715.25 C1483.08,3715.42 1482.38,3715.61 1481.95,3715.81 L1481.95,3734.35 C1483.35,3734.63 1485.02,3734.76 1486.95,3734.76 C1489.24,3734.76 1490.91,3733.87 1491.94,3732.07 C1492.97,3730.28 1493.48,3727.6 1493.48,3724.04 M1477.81,3702.73 L1474.41,3702.14 L1474.41,3701.01 L1481.95,3701.01 L1481.95,3709.39 C1481.95,3710.28 1481.9,3711.92 1481.8,3714.31 C1483.46,3713.02 1485.56,3712.37 1488.08,3712.37 C1491.27,3712.37 1493.71,3713.34 1495.41,3715.27 C1497.12,3717.2 1497.97,3720.13 1497.97,3724.04 C1497.97,3728.25 1497.03,3731.45 1495.16,3733.63 C1493.29,3735.81 1490.59,3736.9 1487.06,3736.9 C1485.64,3736.9 1484.06,3736.74 1482.34,3736.43 C1480.63,3736.11 1479.11,3735.69 1477.81,3735.18 L1477.81,3702.73 M1504.86,3747.4 C1503.57,3747.4 1502.29,3747.26 1501.03,3746.96 L1501.03,3741.9 L1502.2,3741.9 L1503.02,3744.29 C1503.54,3744.68 1504.25,3744.87 1505.16,3744.87 C1506.02,3744.87 1506.82,3744.62 1507.55,3744.12 C1508.28,3743.62 1508.95,3742.88 1509.55,3741.9 C1510.16,3740.92 1510.92,3739.17 1511.83,3736.65 L1502.92,3714.73 L1500.53,3714.12 L1500.53,3713 L1511.39,3713 L1511.39,3714.12 L1507.7,3714.79 L1514.03,3731.15 L1520.16,3714.73 L1516.48,3714.12 L1516.48,3713 L1525.2,3713 L1525.2,3714.12 L1522.77,3714.64 L1513.63,3737.87 C1512.55,3740.61 1511.62,3742.58 1510.82,3743.78 C1510.02,3744.97 1509.14,3745.88 1508.18,3746.49 C1507.22,3747.1 1506.11,3747.4 1504.86,3747.4 M1553.88,3704.32 L1548.72,3704.98 L1548.72,3734.26 L1555.3,3734.26 C1558.83,3734.26 1561.42,3734.09 1563.08,3733.76 L1564.63,3726.81 L1566.25,3726.81 L1565.8,3736.4 L1539.63,3736.4 L1539.63,3735.09 L1543.91,3734.4 L1543.91,3704.98 L1539.63,3704.32 L1539.63,3703.01 L1553.88,3703.01 L1553.88,3704.32 M1578.73,3705.35 C1578.73,3706.08 1578.47,3706.71 1577.94,3707.25 C1577.41,3707.78 1576.77,3708.04 1576.02,3708.04 C1575.29,3708.04 1574.66,3707.78 1574.13,3707.25 C1573.59,3706.71 1573.33,3706.08 1573.33,3705.35 C1573.33,3704.6 1573.59,3703.96 1574.13,3703.43 C1574.66,3702.9 1575.29,3702.64 1576.02,3702.64 C1576.77,3702.64 1577.41,3702.9 1577.94,3703.43 C1578.47,3703.96 1578.73,3704.6 1578.73,3705.35 M1578.48,3734.65 L1582.5,3735.28 L1582.5,3736.4 L1570.38,3736.4 L1570.38,3735.28 L1574.36,3734.65 L1574.36,3714.73 L1571.05,3714.12 L1571.05,3713 L1578.48,3713 L1578.48,3734.65 M1591.52,3714.89 C1592.8,3714.16 1594.16,3713.56 1595.6,3713.08 C1597.04,3712.61 1598.25,3712.37 1599.22,3712.37 C1601.24,3712.37 1602.77,3712.96 1603.8,3714.14 C1604.83,3715.31 1605.34,3717.02 1605.34,3719.26 L1605.34,3734.65 L1608.19,3735.28 L1608.19,3736.4 L1598.09,3736.4 L1598.09,3735.28 L1601.2,3734.65 L1601.2,3719.71 C1601.2,3718.34 1600.87,3717.26 1600.2,3716.46 C1599.52,3715.67 1598.48,3715.28 1597.08,3715.28 C1595.58,3715.28 1593.74,3715.52 1591.58,3716.01 L1591.58,3734.65 L1594.73,3735.28 L1594.73,3736.4 L1584.63,3736.4 L1584.63,3735.28 L1587.44,3734.65 L1587.44,3714.73 L1584.63,3714.12 L1584.63,3713 L1591.3,3713 L1591.52,3714.89 M1626.95,3734.65 C1625.08,3736.15 1622.89,3736.9 1620.39,3736.9 C1613.99,3736.9 1610.8,3732.91 1610.8,3724.92 C1610.8,3720.82 1611.7,3717.71 1613.51,3715.57 C1615.32,3713.44 1617.98,3712.37 1621.5,3712.37 C1623.29,3712.37 1625.11,3712.56 1626.95,3712.95 C1626.86,3712.4 1626.81,3711.02 1626.81,3708.81 L1626.81,3702.73 L1622.88,3702.14 L1622.88,3701.01 L1630.94,3701.01 L1630.94,3734.65 L1633.83,3735.28 L1633.83,3736.4 L1627.25,3736.4 L1626.95,3734.65 M1615.28,3724.92 C1615.28,3728.07 1615.81,3730.43 1616.88,3731.98 C1617.94,3733.53 1619.56,3734.31 1621.75,3734.31 C1623.63,3734.31 1625.31,3733.98 1626.81,3733.34 L1626.81,3714.84 C1625.33,3714.56 1623.65,3714.42 1621.75,3714.42 C1617.44,3714.42 1615.28,3717.92 1615.28,3724.92 M1646.03,3712.46 C1648.59,3712.46 1650.48,3712.99 1651.68,3714.03 C1652.88,3715.08 1653.48,3716.68 1653.48,3718.84 L1653.48,3734.65 L1656.39,3735.28 L1656.39,3736.4 L1649.97,3736.4 L1649.5,3734.06 C1647.6,3735.95 1645.19,3736.9 1642.25,3736.9 C1638.25,3736.9 1636.25,3734.58 1636.25,3729.93 C1636.25,3728.37 1636.55,3727.08 1637.16,3726.06 C1637.76,3725.04 1638.73,3724.26 1640.05,3723.71 C1641.38,3723.17 1643.31,3722.88 1645.83,3722.82 L1649.34,3722.73 L1649.34,3719.07 C1649.34,3717.46 1649.05,3716.27 1648.46,3715.51 C1647.87,3714.75 1646.96,3714.37 1645.73,3714.37 C1644.08,3714.37 1642.56,3714.76 1641.17,3715.53 L1640.33,3718.45 L1638.94,3718.45 L1638.94,3713.34 C1641.63,3712.76 1643.99,3712.46 1646.03,3712.46 M1649.34,3724.48 L1646.08,3724.57 C1643.86,3724.66 1642.35,3725.09 1641.56,3725.87 C1640.77,3726.65 1640.38,3727.95 1640.38,3729.78 C1640.38,3732.7 1641.56,3734.17 1643.94,3734.17 C1645.07,3734.17 1646.05,3734.04 1646.87,3733.78 C1647.68,3733.52 1648.51,3733.19 1649.34,3732.79 L1649.34,3724.48 M1689.11,3736.9 C1683.69,3736.9 1679.47,3735.43 1676.45,3732.48 C1673.43,3729.53 1671.92,3725.4 1671.92,3720.09 C1671.92,3714.35 1673.38,3710.01 1676.28,3707.06 C1679.19,3704.11 1683.49,3702.64 1689.2,3702.64 C1692.67,3702.64 1696.4,3703.06 1700.39,3703.9 L1700.53,3711.2 L1698.89,3711.2 L1698.14,3706.87 C1696.98,3706.15 1695.64,3705.6 1694.1,3705.21 C1692.57,3704.82 1691,3704.62 1689.41,3704.62 C1685.14,3704.62 1682.02,3705.88 1680.06,3708.39 C1678.1,3710.9 1677.13,3714.78 1677.13,3720.04 C1677.13,3724.89 1678.15,3728.59 1680.2,3731.14 C1682.26,3733.7 1685.24,3734.98 1689.16,3734.98 C1691.04,3734.98 1692.82,3734.75 1694.5,3734.29 C1696.18,3733.83 1697.51,3733.22 1698.48,3732.46 L1699.41,3727.48 L1701.03,3727.48 L1700.88,3735.32 C1697.23,3736.38 1693.31,3736.9 1689.11,3736.9 M1715.42,3712.46 C1717.98,3712.46 1719.87,3712.99 1721.07,3714.03 C1722.27,3715.08 1722.88,3716.68 1722.88,3718.84 L1722.88,3734.65 L1725.78,3735.28 L1725.78,3736.4 L1719.36,3736.4 L1718.89,3734.06 C1716.99,3735.95 1714.58,3736.9 1711.64,3736.9 C1707.64,3736.9 1705.64,3734.58 1705.64,3729.93 C1705.64,3728.37 1705.94,3727.08 1706.55,3726.06 C1707.15,3725.04 1708.12,3724.26 1709.45,3723.71 C1710.77,3723.17 1712.7,3722.88 1715.22,3722.82 L1718.73,3722.73 L1718.73,3719.07 C1718.73,3717.46 1718.44,3716.27 1717.85,3715.51 C1717.26,3714.75 1716.35,3714.37 1715.13,3714.37 C1713.47,3714.37 1711.95,3714.76 1710.56,3715.53 L1709.72,3718.45 L1708.33,3718.45 L1708.33,3713.34 C1711.02,3712.76 1713.38,3712.46 1715.42,3712.46 M1718.73,3724.48 L1715.47,3724.57 C1713.25,3724.66 1711.74,3725.09 1710.95,3725.87 C1710.16,3726.65 1709.77,3727.95 1709.77,3729.78 C1709.77,3732.7 1710.95,3734.17 1713.33,3734.17 C1714.46,3734.17 1715.44,3734.04 1716.26,3733.78 C1717.08,3733.52 1717.9,3733.19 1718.73,3732.79 L1718.73,3724.48 M1734.53,3714.89 C1735.81,3714.16 1737.17,3713.56 1738.62,3713.08 C1740.06,3712.61 1741.27,3712.37 1742.23,3712.37 C1744.26,3712.37 1745.78,3712.96 1746.81,3714.14 C1747.84,3715.31 1748.36,3717.02 1748.36,3719.26 L1748.36,3734.65 L1751.2,3735.28 L1751.2,3736.4 L1741.11,3736.4 L1741.11,3735.28 L1744.22,3734.65 L1744.22,3719.71 C1744.22,3718.34 1743.88,3717.26 1743.21,3716.46 C1742.54,3715.67 1741.5,3715.28 1740.09,3715.28 C1738.59,3715.28 1736.76,3715.52 1734.59,3716.01 L1734.59,3734.65 L1737.75,3735.28 L1737.75,3736.4 L1727.64,3736.4 L1727.64,3735.28 L1730.45,3734.65 L1730.45,3714.73 L1727.64,3714.12 L1727.64,3713 L1734.31,3713 L1734.53,3714.89 M1760.28,3736.9 C1758.69,3736.9 1757.5,3736.43 1756.71,3735.48 C1755.92,3734.53 1755.53,3733.2 1755.53,3731.5 L1755.53,3715.09 L1752.47,3715.09 L1752.47,3713.96 L1755.58,3713 L1758.09,3707.68 L1759.66,3707.68 L1759.66,3713 L1765.02,3713 L1765.02,3715.09 L1759.66,3715.09 L1759.66,3731.04 C1759.66,3732.13 1759.9,3732.94 1760.4,3733.49 C1760.89,3734.03 1761.54,3734.31 1762.33,3734.31 C1763.29,3734.31 1764.46,3734.18 1765.84,3733.92 L1765.84,3735.53 C1765.26,3735.92 1764.42,3736.25 1763.33,3736.51 C1762.23,3736.77 1761.22,3736.9 1760.28,3736.9 M1789.69,3724.57 C1789.69,3732.79 1786.03,3736.9 1778.72,3736.9 C1775.21,3736.9 1772.55,3735.85 1770.76,3733.74 C1768.96,3731.63 1768.06,3728.57 1768.06,3724.57 C1768.06,3720.63 1768.96,3717.6 1770.76,3715.51 C1772.55,3713.42 1775.28,3712.37 1778.92,3712.37 C1782.47,3712.37 1785.16,3713.4 1786.97,3715.45 C1788.78,3717.5 1789.69,3720.54 1789.69,3724.57 M1785.2,3724.57 C1785.2,3720.99 1784.68,3718.39 1783.63,3716.78 C1782.59,3715.18 1780.95,3714.37 1778.72,3714.37 C1776.55,3714.37 1774.98,3715.14 1774.01,3716.68 C1773.03,3718.22 1772.55,3720.85 1772.55,3724.57 C1772.55,3728.34 1773.04,3731.01 1774.03,3732.58 C1775.02,3734.15 1776.58,3734.93 1778.72,3734.93 C1780.92,3734.93 1782.55,3734.12 1783.61,3732.5 C1784.67,3730.87 1785.2,3728.23 1785.2,3724.57 M1799.69,3714.89 C1800.97,3714.16 1802.33,3713.56 1803.77,3713.08 C1805.22,3712.61 1806.42,3712.37 1807.39,3712.37 C1809.41,3712.37 1810.94,3712.96 1811.97,3714.14 C1813,3715.31 1813.52,3717.02 1813.52,3719.26 L1813.52,3734.65 L1816.36,3735.28 L1816.36,3736.4 L1806.27,3736.4 L1806.27,3735.28 L1809.38,3734.65 L1809.38,3719.71 C1809.38,3718.34 1809.04,3717.26 1808.37,3716.46 C1807.7,3715.67 1806.66,3715.28 1805.25,3715.28 C1803.75,3715.28 1801.92,3715.52 1799.75,3716.01 L1799.75,3734.65 L1802.91,3735.28 L1802.91,3736.4 L1792.8,3736.4 L1792.8,3735.28 L1795.61,3734.65 L1795.61,3714.73 L1792.8,3714.12 L1792.8,3713 L1799.47,3713 L1799.69,3714.89 M1826.56,3705.35 C1826.56,3706.08 1826.3,3706.71 1825.77,3707.25 C1825.23,3707.78 1824.59,3708.04 1823.84,3708.04 C1823.11,3708.04 1822.48,3707.78 1821.95,3707.25 C1821.42,3706.71 1821.16,3706.08 1821.16,3705.35 C1821.16,3704.6 1821.42,3703.96 1821.95,3703.43 C1822.48,3702.9 1823.11,3702.64 1823.84,3702.64 C1824.59,3702.64 1825.23,3702.9 1825.77,3703.43 C1826.3,3703.96 1826.56,3704.6 1826.56,3705.35 M1826.31,3734.65 L1830.33,3735.28 L1830.33,3736.4 L1818.2,3736.4 L1818.2,3735.28 L1822.19,3734.65 L1822.19,3714.73 L1818.88,3714.12 L1818.88,3713 L1826.31,3713 L1826.31,3734.65 "/>
</svg>
